<svg width="72" height="70" viewBox="0 0 72 70" fill="none" xmlns="http://www.w3.org/2000/svg">
<g clip-path="url(#clip0_3057_12106)">
<path d="M68.1377 10.6514C67.5191 11.6997 67.1627 12.832 66.9425 14.0271C66.3134 17.3085 66.7118 20.9779 65.4432 24.1544C64.6045 26.2302 63.0947 28.002 61.2705 29.3544C60.589 29.8786 59.8761 30.3399 59.1212 30.7382C58.0308 31.3253 56.8985 31.7971 55.7243 32.1955C53.9629 32.793 52.1281 33.2019 50.3039 33.5269C49.1716 33.7366 48.0392 33.9253 46.8965 34.093C38.509 35.2882 29.9957 35.1519 21.7865 33.6632C21.6502 33.6422 21.5034 33.6213 21.3671 33.5898C20.0041 33.3382 18.6412 33.0447 17.3097 32.6672C15.6217 32.1955 13.9966 31.5874 12.4869 30.7487C9.78193 29.2495 7.44392 26.9431 6.44791 24.0286C5.54626 21.3238 5.77691 18.2626 5.51481 15.39C5.35754 13.7441 5.03253 12.161 4.23572 10.7667C4.53976 10.882 4.84381 10.9868 5.14785 11.1022C9.57224 12.6538 14.3636 13.2513 19.092 13.6497C31.0546 14.6562 43.1431 14.5408 55.1476 13.3038C59.551 12.8425 64.0069 12.2344 68.1377 10.6514Z" fill="url(#paint0_linear_3057_12106)"/>
<path d="M68.1376 10.6515C64.0173 12.2345 59.5614 12.8426 55.1475 13.3039C43.143 14.5305 31.0545 14.6458 19.0919 13.6498C14.028 13.22 8.91164 12.5805 4.23563 10.7773C4.10982 10.7249 3.97353 10.6829 3.83723 10.62C3.76384 10.5886 3.66948 10.5571 3.58561 10.5362C3.30253 10.4313 3.00897 10.3265 2.73637 10.2112C0.912102 9.49828 -0.597641 8.61765 0.209652 6.10155C0.975008 3.7427 3.44931 3.12416 5.5986 2.64191C12.9796 0.964509 20.5388 0.545159 28.077 0.167744C34.5249 -0.146768 40.9832 -0.0314472 47.4311 0.503224C48.123 0.566127 48.8255 0.618545 49.5174 0.691932C53.1241 1.0379 68.9554 2.30643 70.9055 5.57736C71.2724 6.1959 71.4821 6.73057 71.5345 7.19186C71.7862 9.01603 70.0667 9.90715 68.1376 10.6515Z" fill="url(#paint1_linear_3057_12106)"/>
<path d="M66.9215 6.15389C66.9949 6.94017 66.282 7.70549 64.8247 8.24016C64.3948 8.39741 63.9545 8.55467 63.5246 8.68047C59.9914 9.79175 56.1646 10.2321 52.3798 10.5466C42.0842 11.4167 31.7152 11.4901 21.451 10.7877C17.1105 10.4942 12.7176 10.0329 8.70206 8.76434C8.16736 8.5966 7.62217 8.4079 7.09796 8.2087C6.15437 7.84177 5.18981 7.40146 4.64462 6.66759C2.96713 4.47649 8.03106 3.3757 9.86582 3.04022C16.1879 1.86604 22.6777 1.57249 29.136 1.3104C35.2694 1.05879 41.4132 1.19508 47.5255 1.67733C50.6184 1.91846 53.7113 2.25394 56.7832 2.6628C59.4672 3.01925 62.7802 3.14505 65.1497 4.31923C66.2715 4.87487 66.8586 5.52487 66.9215 6.16437V6.15389Z" fill="url(#paint2_linear_3057_12106)"/>
<path d="M55.9025 33.4955C55.9025 33.852 55.8606 34.1979 55.7977 34.481C55.4517 35.9907 54.5186 37.1229 53.3024 37.9721C50.891 39.66 47.3578 40.268 44.8101 40.635C43.8036 40.7817 42.7971 40.8971 41.7906 40.9914C41.1091 41.0648 40.4172 41.1067 39.7357 41.1487C37.6598 41.264 35.5839 41.285 33.508 41.2116C32.7846 41.1801 32.0612 41.1382 31.3482 41.0962C30.7506 41.0648 30.153 41.0229 29.5554 40.96C25.2359 40.5616 19.1654 39.4922 17.3412 34.8899C17.1734 34.46 17.0581 33.9883 17.0895 33.5375C17.0895 33.3068 17.142 33.0762 17.2363 32.856C17.2678 32.7826 17.2992 32.7302 17.3412 32.6673C17.6452 32.7512 17.9492 32.835 18.2533 32.9084C19.2912 33.1705 20.3397 33.3907 21.3881 33.5899C30.8345 35.3407 40.7002 35.3302 50.3249 33.5165C52.1491 33.181 53.9839 32.7721 55.7453 32.1851C55.8606 32.6149 55.913 33.0762 55.913 33.506L55.9025 33.4955Z" fill="url(#paint3_linear_3057_12106)"/>
<path d="M45.4601 59.9984C45.4601 59.9984 45.4601 60.0299 45.4601 60.0508C45.1875 60.1662 44.9149 60.2815 44.6423 60.3968C44.506 60.4492 44.3697 60.5016 44.2334 60.5541C43.8665 60.7008 43.4891 60.8266 43.1116 60.942C42.7237 61.0573 42.3358 61.1726 41.9374 61.2879C41.5704 61.3718 41.2035 61.4661 40.8365 61.5395C40.4905 61.6129 40.1236 61.6758 39.7671 61.7282C39.4316 61.7807 39.1066 61.8226 38.7711 61.8645C38.4775 61.9065 38.1735 61.9379 37.8695 61.9589C37.7436 61.9589 37.6074 61.9799 37.4711 61.9903C37.2614 61.9903 37.0726 62.0218 36.863 62.0218C35.825 62.0742 34.7661 62.0532 33.7281 61.9694C33.4241 61.9379 33.1305 61.9169 32.837 61.8855C32.5958 61.854 32.3442 61.8226 32.0821 61.8016C31.82 61.7597 31.5579 61.7282 31.2958 61.6758C31.0966 61.6444 30.9183 61.6129 30.7296 61.5815C30.1635 61.4871 29.5973 61.3613 29.0417 61.225C28.6013 61.1202 28.1715 61.0049 27.7416 60.8791C27.6682 60.8581 27.6158 60.8371 27.5424 60.8162C27.4061 60.7742 27.2698 60.7428 27.1335 60.7008C26.8085 60.596 26.4835 60.4912 26.1585 60.3654C26.127 60.3654 26.0851 60.3444 26.0641 60.3339C25.7181 59.3904 25.9802 58.4049 26.6827 57.6815C30.9498 53.2469 31.8829 48.3929 31.5474 43.3397C31.5055 42.6059 31.4321 41.8615 31.3377 41.1172C31.7466 41.1486 32.1555 41.1696 32.5539 41.1906C34.9548 41.3164 37.3452 41.3164 39.7252 41.1906C39.5994 42.0922 39.526 43.0147 39.5155 43.9268C39.4736 48.8018 41.1301 53.7606 44.506 57.2202C45.1875 57.9226 45.7956 59.1178 45.4496 60.0299L45.4601 59.9984Z" fill="url(#paint4_linear_3057_12106)"/>
<path d="M56.3009 66.2992C49.6958 69.1613 42.4825 70.2097 36.0556 69.9685C29.6287 70.2097 22.4155 69.1718 15.8104 66.2992C15.6741 66.2363 15.5797 66.1315 15.5168 65.9952C15.3701 65.7016 15.3805 65.2718 15.5168 64.9678C15.6007 64.7896 15.737 64.6533 15.9152 64.6218C19.5952 63.9089 23.097 62.4412 26.1584 60.3235C26.4834 60.4388 26.8085 60.5436 27.1335 60.659C27.2698 60.7009 27.4061 60.7323 27.5424 60.7743C27.6158 60.7952 27.6682 60.8162 27.7416 60.8372C28.1714 60.963 28.6013 61.0783 29.0416 61.1831C29.5973 61.3194 30.1634 61.4452 30.7296 61.5396C30.9183 61.5815 31.0965 61.613 31.2958 61.6339C31.5579 61.6864 31.82 61.7178 32.0821 61.7597C32.3337 61.7912 32.5853 61.8227 32.8369 61.8436C33.1305 61.8856 33.4241 61.9065 33.7281 61.9275C34.7661 62.0009 35.825 62.0218 36.8629 61.9799C37.0726 61.9799 37.2718 61.9799 37.471 61.9485C37.6073 61.9485 37.7436 61.9275 37.8694 61.917C38.1735 61.896 38.4775 61.8646 38.7711 61.8227C39.1171 61.7912 39.4421 61.7493 39.7671 61.6864C40.1236 61.6339 40.4905 61.571 40.8365 61.4977C41.2034 61.4243 41.5704 61.3299 41.9373 61.246C42.3253 61.1412 42.7132 61.0259 43.1116 60.9001C43.489 60.7848 43.8665 60.659 44.2334 60.5122C44.3697 60.4598 44.506 60.4178 44.6423 60.3549C44.9149 60.2501 45.1875 60.1348 45.4601 60.009C45.4601 59.988 45.4601 59.9775 45.4601 59.9565C45.4601 59.9565 45.4601 59.9565 45.4811 59.9775C48.5634 62.2001 52.1386 63.7726 55.892 64.5275C55.9863 64.5589 56.1017 64.5799 56.196 64.6008C56.8251 64.7162 56.888 66.0162 56.3009 66.2678V66.2992Z" fill="url(#paint5_linear_3057_12106)"/>
<path d="M56.3009 66.2993C49.6958 69.1614 42.4825 70.2098 36.0557 69.9686C29.6288 70.2098 22.4155 69.1719 15.8104 66.2993C15.391 66.1211 15.3176 65.4082 15.5168 64.9784C26.5568 68.8469 38.7606 69.3291 50.0522 66.3308C47.0432 66.813 43.9504 66.9388 40.9099 66.9913C40.6478 66.1735 40.3962 65.3348 40.1445 64.5066C39.83 63.5106 39.9453 63.2381 38.9284 63.0913C37.1775 62.8292 35.3742 62.7663 33.6023 62.5671C31.5579 62.326 29.3981 61.98 27.7416 60.8373C33.5709 62.5566 39.9034 62.5042 45.4496 60.0405C45.2294 60.376 44.9673 60.701 44.7367 61.0365C46.8755 62.9445 49.2659 64.6534 51.908 65.7856C53.3129 65.3348 54.5605 64.9784 55.8815 64.5695C55.9759 64.601 56.0912 64.6219 56.1856 64.6429C56.8146 64.7582 56.8775 66.0582 56.2904 66.3098L56.3009 66.2993Z" fill="#D45815"/>
<path d="M44.8415 60.3024C43.1954 60.9839 41.4865 61.4556 39.7461 61.7177C39.7146 60.6169 39.1275 59.621 38.5404 58.6145C36.108 54.4315 35.1854 49.0848 35.6782 44.2623C34.2628 44.147 32.8684 43.822 31.5473 43.3187C31.5054 42.5849 31.432 41.8405 31.3376 41.0962C34.137 41.2954 36.9363 41.3059 39.7356 41.1591C39.6098 42.0607 39.5364 42.9833 39.5259 43.8954C39.1065 44.0316 38.6767 44.147 38.2259 44.2518C38.7815 48.9905 40.2284 53.4775 42.6083 57.5976C43.8559 58.0065 44.9253 59.0549 44.8415 60.3024Z" fill="#D45815"/>
<path d="M55.9025 33.4958C55.3258 33.7369 54.7597 33.978 54.183 34.2191C54.0887 35.582 53.837 36.8506 53.2919 37.9723C50.8805 39.6602 47.3472 40.2683 44.7995 40.6352C43.793 40.782 42.7866 40.8973 41.7801 40.9916C42.9648 40.5094 44.1076 39.9328 45.198 39.2618C45.502 39.0731 45.8165 38.8739 45.9633 38.5489C46.173 38.0667 45.9004 37.5006 45.481 37.186C45.0617 36.8715 44.5374 36.7667 44.0237 36.7038C41.8744 36.4207 39.7042 36.5465 37.5444 36.5675C33.0886 36.6199 28.6222 36.2006 24.2503 35.3514C22.0695 34.9215 19.8993 34.3764 17.7709 33.7369C17.5088 33.653 17.2887 33.5901 17.079 33.5272C17.079 33.2966 17.1314 33.0659 17.2258 32.8458C17.2572 32.7724 17.2887 32.72 17.3306 32.6571C18.6516 33.0345 20.0251 33.328 21.388 33.5796C30.8344 35.3304 40.7002 35.3199 50.3248 33.5062C52.1491 33.1708 53.9838 32.7619 55.7452 32.1748C55.8605 32.6046 55.9129 33.0659 55.9129 33.4958H55.9025Z" fill="#D45815"/>
<path d="M68.1377 10.6514C67.5191 11.6997 67.1627 12.832 66.9425 14.0271C66.2191 14.5933 65.569 15.2013 65.0868 15.9457C63.7972 17.9795 64.1222 20.6004 63.8391 22.9907C63.5665 25.2867 62.6544 27.4988 61.2705 29.3439C60.589 29.8681 59.8761 30.3294 59.1212 30.7277C58.0308 31.3148 56.8985 31.7866 55.7243 32.185C53.9629 32.7826 52.1281 33.1914 50.3039 33.5164C49.1716 33.7261 48.0392 33.9148 46.8965 34.0825C46.8965 34.0825 46.865 34.0825 46.8545 34.0825C48.4376 32.9713 49.9264 31.6818 50.9853 30.0778C52.0443 28.4633 52.6419 26.4609 52.2854 24.5738C51.7926 21.9948 49.6119 19.9924 47.2005 18.9859C44.7681 17.969 42.1051 17.7908 39.484 17.6231C28.161 16.8787 16.8379 16.1449 5.51481 15.4005C5.35754 13.7546 5.03253 12.1715 4.23572 10.7772C8.91173 12.5804 14.0281 13.2199 19.092 13.6497C31.0546 14.6562 43.1431 14.5408 55.1476 13.3038C59.551 12.8425 64.0069 12.2344 68.1377 10.6514Z" fill="#D45815"/>
<path d="M42.881 1.43652C46.0892 1.47846 49.2869 1.52039 52.4951 1.74055C55.6928 1.95023 58.901 2.36958 62.0568 3.03005C62.8536 3.21876 63.6085 3.37602 64.4263 3.6486C65.2126 3.91069 66.1143 4.53971 66.2505 5.57761C66.3135 6.09131 66.1038 6.6155 65.7892 6.95098C65.4747 7.30742 65.1078 7.54855 64.7408 7.74774C63.9964 8.12516 63.2625 8.43967 62.4972 8.72273C59.4672 9.86546 56.2275 10.4316 53.0193 10.3477C56.217 10.1276 59.3623 9.42514 62.2875 8.19854C63.0109 7.89451 63.7448 7.54855 64.4368 7.1921C65.0973 6.83566 65.6844 6.2905 65.59 5.67196C65.5062 5.03245 64.8981 4.5502 64.1956 4.33004C63.4827 4.0994 62.6754 3.94214 61.8996 3.76392C58.7962 3.05102 55.6299 2.65264 52.4532 2.31716C50.87 2.13893 49.2659 2.01313 47.6723 1.89781C46.0787 1.75104 44.4851 1.62523 42.8915 1.44701L42.881 1.43652Z" fill="#FBD6AB"/>
<path d="M3.59619 10.5259C3.71152 10.5468 3.82685 10.5678 3.94217 10.5783C3.91072 10.5993 3.86878 10.6097 3.84782 10.6202C3.77443 10.5888 3.68007 10.5573 3.59619 10.5364V10.5259Z" fill="#FBD6AB"/>
<path d="M47.4311 0.503224C46.0996 0.608062 44.7576 0.66048 43.4575 0.566127C40.4695 0.335484 37.45 0.345968 34.4725 0.356452C28.3706 0.356452 22.2687 0.702415 16.2088 1.46773C12.7909 1.90805 9.38345 2.48465 6.0075 3.21852C4.22516 3.6169 2.23314 4.21447 1.38391 5.83945C0.891147 6.77251 0.901632 7.95717 1.40488 8.89022C1.70892 9.45635 2.18072 9.91763 2.74687 10.2112C0.9226 9.49828 -0.587143 8.61765 0.22015 6.10155C0.985506 3.7427 3.45981 3.12416 5.6091 2.64191C12.9796 0.964509 20.5388 0.545159 28.077 0.167744C34.5249 -0.146768 40.9832 -0.0314472 47.4311 0.503224Z" fill="#FBD6AB"/>
<path d="M23.5374 33.7996C22.9607 33.7472 22.3736 33.7158 21.797 33.6529C21.6607 33.6319 21.5139 33.6109 21.3776 33.5795C20.0146 33.3279 18.6517 33.0343 17.3202 32.6569C15.6322 32.1851 14.0071 31.5771 12.4974 30.7384C9.79243 29.2392 7.45442 26.9328 6.45841 24.0183C5.55676 21.3135 5.78741 18.2522 5.5253 15.3797C5.36804 13.7337 5.04302 12.1507 4.24622 10.7563C4.55026 10.8717 4.85431 10.9765 5.15835 11.0918C5.27368 11.4273 5.36804 11.7733 5.45191 12.0354C5.45191 12.0354 5.45191 12.0668 5.47288 12.0878C6.47938 15.2224 6.15436 18.4619 6.87778 21.628C7.67459 25.182 10.2118 28.1908 13.2837 30.1618C16.3556 32.1327 19.9308 33.1601 23.5269 33.7996H23.5374Z" fill="#FBD6AB"/>
<path d="M33.7281 41.1276C33.6548 41.1591 33.5709 41.1905 33.4975 41.201C32.7741 41.1695 32.0507 41.1276 31.3377 41.0857C30.7401 41.0542 30.1425 41.0123 29.5449 40.9494C25.2254 40.551 19.1549 39.4817 17.3307 34.8793C17.1629 34.4495 17.0476 33.9777 17.079 33.5269C17.079 33.2962 17.1315 33.0656 17.2258 32.8454C17.2573 32.7721 17.2887 32.7196 17.3307 32.6567C17.6347 32.7406 17.9387 32.8245 18.2428 32.8979C18.2952 33.3277 18.2428 33.768 18.2428 34.2083C18.2952 35.6656 18.9872 36.7664 20.088 37.647C21.43 38.7268 23.0866 39.3559 24.7536 39.8171C27.6577 40.6454 30.6877 41.0857 33.7177 41.1276H33.7281Z" fill="#FBD6AB"/>
<path d="M40.3228 67.7249C33.4031 70.0313 25.0576 69.0458 18.5363 66.0056C18.0226 65.7644 17.4984 65.5023 16.9217 65.4814C16.4499 65.4499 16.1983 65.6701 15.8104 65.8588C15.7056 65.9112 15.6112 65.9531 15.5168 65.9951C15.3701 65.7015 15.3805 65.2717 15.5168 64.9677C15.6007 64.7894 15.737 64.6532 15.9152 64.6217C19.5952 63.9088 23.097 62.4411 26.1584 60.3234C26.127 60.3234 26.085 60.3024 26.0641 60.2919C25.7181 59.3484 25.9802 58.3629 26.6826 57.6395C30.9498 53.2049 31.8829 48.3509 31.5474 43.2977C31.5054 42.5639 31.432 41.8195 31.3377 41.0752C31.7466 41.1066 32.1555 41.1276 32.5539 41.1486C33.791 47.0195 32.4385 53.4251 28.8739 58.2685C31.6837 58.7718 34.5249 59.0339 37.3767 59.0443C34.0741 59.579 30.6667 59.5161 27.3956 58.8347C27.794 59.3798 27.8045 60.1451 27.5424 60.7637C27.5424 60.8056 27.5109 60.8371 27.4899 60.879C27.1754 61.5185 26.6197 62.0217 26.0326 62.4411C24.4495 63.5838 22.6042 64.2757 20.7695 64.9467C21.8913 65.9007 23.2857 65.9951 24.6172 66.4459C26.2842 67.0015 28.0771 67.3055 29.8279 67.5362C31.6627 67.7878 33.5079 67.9136 35.3427 67.9241C36.8105 67.9241 38.8235 68.0918 40.3123 67.7039L40.3228 67.7249Z" fill="#FBD6AB"/>
<path style="mix-blend-mode:screen" d="M4.91718 10.0224C10.023 12.0563 15.6217 12.4127 21.105 12.7273C21.5244 12.7482 21.9647 12.7692 22.3631 12.6329C22.7615 12.4966 23.1285 12.1611 23.1599 11.7313C18.767 10.9974 14.3845 10.2531 9.99159 9.51923C7.87376 9.16278 3.93165 8.51279 3.70099 5.78701C3.68003 5.5983 3.68003 5.38863 3.54373 5.25234C2.61062 4.38219 1.83478 7.20232 1.99205 7.73699C2.34852 8.9531 3.85826 9.59261 4.91718 10.0224Z" fill="url(#paint6_linear_3057_12106)"/>
<path style="mix-blend-mode:screen" d="M20.6962 31.6084C17.2468 31.5665 14.0281 29.4697 12.12 26.6077C10.2118 23.7351 9.50939 20.1916 9.61423 16.753C13.137 16.7005 16.7645 17.0255 20.172 17.9271C19.9308 22.4351 20.497 27.2472 21.7656 31.577C21.2833 31.6504 21.1889 31.6189 20.6962 31.6084Z" fill="url(#paint7_linear_3057_12106)"/>
<path style="mix-blend-mode:screen" d="M23.6422 38.7583C22.4155 38.1817 21.4824 37.0285 21.1888 35.7075C23.6212 35.8019 26.085 36.0325 28.4545 36.6196C28.7376 36.693 29.0311 36.7769 29.2198 36.997C29.3457 37.1543 29.3981 37.343 29.4505 37.5422C29.5973 38.1083 29.7441 38.6639 29.9013 39.2301C29.9223 39.3139 29.9433 39.4083 29.9013 39.4922C29.8384 39.597 29.6916 39.618 29.5658 39.618C27.5528 39.618 25.4664 39.618 23.6422 38.7688V38.7583Z" fill="url(#paint8_linear_3057_12106)"/>
<path style="mix-blend-mode:screen" d="M30.132 57.5242C31.3167 57.5661 32.5119 57.608 33.6966 57.65C33.9168 57.65 34.1579 57.65 34.3362 57.5242C34.5563 57.3564 34.5878 57.0419 34.5983 56.7693C34.6926 54.0121 34.7136 50.4267 33.6023 47.8477C32.7111 51.2758 32.0401 54.4315 30.1424 57.5137L30.132 57.5242Z" fill="url(#paint9_linear_3057_12106)"/>
<path style="mix-blend-mode:screen" d="M24.7325 64.9784C25.1938 65.3977 25.8648 65.4711 26.4834 65.5235C28.1295 65.6598 29.7755 65.7961 31.411 65.9324C31.7256 65.9638 32.0611 65.9848 32.3546 65.8485C32.8159 65.6389 33.0361 65.1042 33.12 64.6114C33.2039 64.1187 33.2039 63.584 33.4031 63.1228C33.2877 63.3744 28.8738 62.0115 28.2553 62.2631C27.731 62.4832 27.3117 63.2486 26.8923 63.626C26.2528 64.2026 25.5189 64.6534 24.722 64.9784H24.7325Z" fill="url(#paint10_linear_3057_12106)"/>
<path d="M30.4152 28.275C32.2814 32.5209 37.6913 34.1983 40.522 30.183C41.4447 28.8726 41.885 27.0274 41.8116 25.2871C41.7487 23.9662 41.4132 22.7291 40.868 21.6283C40.7003 21.2613 40.5011 20.9049 40.2704 20.5799C38.8865 18.5461 36.7267 17.4348 34.6403 17.8646C32.554 18.3049 30.6458 20.3702 30.0063 23.0436C29.545 25.004 29.7546 26.8073 30.3942 28.275H30.4152Z" fill="#D45815"/>
<path d="M29.6393 27.4992C31.4636 31.4935 36.842 33.0137 39.7147 29.1976C40.6478 27.95 41.1091 26.2097 41.0462 24.5638C40.9938 23.3267 40.6688 22.1525 40.1446 21.1251C39.9768 20.7791 39.7881 20.4437 39.5679 20.1396C38.205 18.2421 36.0662 17.2147 33.9798 17.634C31.8934 18.0743 29.9643 20.0348 29.3038 22.5614C28.8215 24.417 29.0207 26.1154 29.6498 27.4992H29.6393Z" fill="url(#paint11_linear_3057_12106)"/>
<path d="M29.6393 27.499C30.1949 27.9498 30.824 28.2643 31.5055 28.3691C31.2643 25.9788 31.0966 23.253 32.4071 21.3869C33.3822 20.0136 34.9339 19.4999 36.3388 19.6571C37.6808 19.7829 38.9284 20.4434 40.1341 21.1144C39.9663 20.7684 39.7776 20.4329 39.5574 20.1289C38.1945 18.2313 36.0557 17.2039 33.9693 17.6233C31.8829 18.0636 29.9538 20.0241 29.2933 22.5506C28.811 24.4063 29.0102 26.1046 29.6393 27.4885V27.499Z" fill="#FBD6AB"/>
<path d="M37.3872 19.2378C38.7921 20.4749 39.6309 22.7184 39.1591 24.9514C38.5929 27.6667 36.171 29.6586 34.0113 29.1869C31.6942 28.6731 29.9958 25.5595 30.3942 22.6031C30.9184 18.6297 35.0807 17.2039 37.3872 19.2378Z" fill="url(#paint12_linear_3057_12106)"/>
<path d="M34.7346 27.2158C33.9693 27.2473 33.0362 26.9642 32.3861 26.5029C32.0611 26.2723 31.8514 26.0941 31.6522 25.6642C31.5788 25.5175 31.4216 24.532 31.3796 24.5005C32.0402 24.8884 32.7636 25.203 33.508 25.1925C34.5564 25.1715 35.5105 24.3328 35.9927 23.1481C36.0976 22.8965 36.6113 19.9611 36.6533 19.982C37.9848 20.674 38.4461 23.7352 37.6702 25.2344C37.0412 26.461 35.8669 27.1739 34.7346 27.2263V27.2158Z" fill="#407987"/>
<path style="mix-blend-mode:screen" d="M31.8515 22.2677C31.6628 21.9637 31.6418 21.5234 31.7571 21.146C32.1765 19.7097 34.3363 18.6089 34.7032 20.5589C34.9968 22.1105 32.5749 23.4105 31.8515 22.2677Z" fill="url(#paint13_linear_3057_12106)"/>
<path d="M5.78748 22.8337C7.1085 26.0941 10.7466 27.457 12.5813 24.4482C13.1789 23.4627 13.441 22.0684 13.3676 20.7369C13.3047 19.7305 13.0531 18.7765 12.6757 17.9378C12.5604 17.6547 12.4136 17.3821 12.2668 17.1305C11.3127 15.5684 9.84491 14.6878 8.46098 14.9813C7.07705 15.2854 5.82942 16.8265 5.4415 18.8498C5.15842 20.3385 5.33665 21.7119 5.78748 22.8337Z" fill="#D45815"/>
<path d="M5.25274 22.2362C6.53183 25.2974 10.1594 26.545 12.0256 23.6934C12.6337 22.7603 12.9063 21.4394 12.8434 20.1918C12.791 19.2483 12.5498 18.3467 12.1829 17.5604C12.0676 17.2983 11.9313 17.0362 11.774 16.8056C10.8304 15.3378 9.38356 14.5201 7.98915 14.8137C6.60522 15.1177 5.33661 16.5749 4.93821 18.4935C4.64465 19.8983 4.80191 21.1878 5.24225 22.2571L5.25274 22.2362Z" fill="url(#paint14_linear_3057_12106)"/>
<path d="M5.25273 22.2359C5.63016 22.5923 6.06002 22.8335 6.51085 22.9278C6.31164 21.1037 6.15438 19.0279 7.00361 17.6335C7.63267 16.6061 8.66013 16.2392 9.60372 16.3755C10.5054 16.4908 11.3441 17.015 12.1724 17.5497C12.0571 17.2876 11.9208 17.0255 11.7635 16.7948C10.8199 15.3271 9.37307 14.5094 7.97865 14.8029C6.59472 15.1069 5.32612 16.5642 4.92771 18.4827C4.63415 19.8875 4.79141 21.177 5.23176 22.2464L5.25273 22.2359Z" fill="#FBD6AB"/>
<path d="M10.2957 16.0713C11.2603 17.0358 11.8474 18.7552 11.5748 20.4535C11.2393 22.5083 9.64567 23.9866 8.19883 23.5882C6.63667 23.1583 5.46242 20.768 5.67211 18.5245C5.96567 15.5157 8.72305 14.4988 10.2957 16.0713Z" fill="url(#paint15_linear_3057_12106)"/>
<path d="M8.6496 22.0998C8.13587 22.1103 7.50681 21.8797 7.06646 21.5232C6.84629 21.345 6.69951 21.1982 6.56322 20.8732C6.51079 20.7579 6.39547 20.0031 6.36401 19.9821C6.81484 20.2862 7.29712 20.5378 7.80037 20.5378C8.50282 20.5378 9.12139 19.9192 9.42544 19.0176C9.48834 18.8289 9.79239 16.5959 9.81336 16.6168C10.715 17.162 11.0715 19.4999 10.5787 20.6321C10.1803 21.5547 9.40447 22.0789 8.6496 22.0998Z" fill="#407987"/>
<path style="mix-blend-mode:screen" d="M6.64716 18.2833C6.51087 18.0527 6.50038 17.7067 6.56329 17.4237C6.8254 16.3438 8.25127 15.5261 8.52386 17.0253C8.74403 18.2099 7.15041 19.164 6.64716 18.2833Z" fill="url(#paint16_linear_3057_12106)"/>
<path d="M67.3934 23.5676C66.0723 26.828 62.4343 28.1909 60.5995 25.182C60.0019 24.1966 59.7398 22.8022 59.8132 21.4708C59.8761 20.4644 60.1277 19.5103 60.5052 18.6716C60.6205 18.3886 60.7673 18.116 60.914 17.8644C61.8681 16.3023 63.3359 15.4217 64.7199 15.7152C66.1038 16.0193 67.3514 17.5604 67.7393 19.5837C68.0224 21.0724 67.8442 22.4458 67.3934 23.5676Z" fill="#D45815"/>
<path d="M67.9176 22.9593C66.6385 26.0206 63.0109 27.2681 61.1447 24.4165C60.5366 23.4835 60.2641 22.1625 60.327 20.915C60.3794 19.9714 60.6205 19.0698 60.9875 18.2835C61.1028 18.0215 61.2391 17.7594 61.3964 17.5287C62.34 16.061 63.7868 15.2433 65.1812 15.5368C66.5651 15.8408 67.8337 17.2981 68.2321 19.2166C68.5257 20.6214 68.3684 21.9109 67.9281 22.9803L67.9176 22.9593Z" fill="url(#paint17_linear_3057_12106)"/>
<path d="M67.9176 22.9595C67.5401 23.316 67.1103 23.5571 66.6595 23.6515C66.8587 21.8273 67.0159 19.7515 66.1667 18.3572C65.5376 17.3298 64.5102 16.9628 63.5666 17.0991C62.6649 17.2144 61.8262 17.7386 60.9979 18.2733C61.1133 18.0112 61.2495 17.7491 61.4068 17.5185C62.3504 16.0507 63.7972 15.233 65.1917 15.5265C66.5756 15.8306 67.8442 17.2878 68.2426 19.2063C68.5362 20.6112 68.3789 21.9007 67.9386 22.97L67.9176 22.9595Z" fill="#FBD6AB"/>
<path d="M62.8747 16.8057C61.9101 17.7702 61.323 19.4895 61.5956 21.1879C61.9311 23.2427 63.5247 24.7209 64.9715 24.3225C66.5337 23.8927 67.7079 21.5024 67.4982 19.2589C67.2047 16.2501 64.4473 15.2331 62.8747 16.8057Z" fill="url(#paint18_linear_3057_12106)"/>
<path d="M64.5207 22.8234C65.0344 22.8339 65.6634 22.6032 66.1038 22.2468C66.324 22.0685 66.4707 21.9218 66.607 21.5968C66.6595 21.4815 66.7748 20.7266 66.8062 20.7057C66.3554 21.0097 65.8731 21.2613 65.3699 21.2613C64.6674 21.2613 64.0489 20.6427 63.7448 19.7411C63.6819 19.5524 63.3779 17.3299 63.3569 17.3404C62.4552 17.8855 62.0988 20.2234 62.5915 21.3556C62.9899 22.2782 63.7658 22.8024 64.5207 22.8234Z" fill="#407987"/>
<path style="mix-blend-mode:screen" d="M66.5232 19.0177C66.6595 18.7871 66.67 18.4411 66.607 18.158C66.3449 17.0782 64.9191 16.2605 64.6465 17.7596C64.4263 18.9443 66.0199 19.8983 66.5232 19.0177Z" fill="url(#paint19_linear_3057_12106)"/>
</g>
<defs>
<linearGradient id="paint0_linear_3057_12106" x1="4.2462" y1="22.7706" x2="68.1377" y2="22.7706" gradientUnits="userSpaceOnUse">
<stop stop-color="#FFB752"/>
<stop offset="1" stop-color="#DE731F"/>
</linearGradient>
<linearGradient id="paint1_linear_3057_12106" x1="19.6686" y1="0.167743" x2="84.1251" y2="28.0466" gradientUnits="userSpaceOnUse">
<stop stop-color="#FFB752"/>
<stop offset="1" stop-color="#DE731F"/>
</linearGradient>
<linearGradient id="paint2_linear_3057_12106" x1="48.5111" y1="28.4214" x2="39.055" y2="11.9929" gradientUnits="userSpaceOnUse">
<stop stop-color="#FFB752"/>
<stop offset="1" stop-color="#D1651D"/>
</linearGradient>
<linearGradient id="paint3_linear_3057_12106" x1="17.0686" y1="36.7245" x2="55.9025" y2="36.7245" gradientUnits="userSpaceOnUse">
<stop stop-color="#FFB752"/>
<stop offset="1" stop-color="#DE731F"/>
</linearGradient>
<linearGradient id="paint4_linear_3057_12106" x1="25.9068" y1="51.559" x2="45.5545" y2="51.559" gradientUnits="userSpaceOnUse">
<stop stop-color="#FFB752"/>
<stop offset="1" stop-color="#DE731F"/>
</linearGradient>
<linearGradient id="paint5_linear_3057_12106" x1="15.4015" y1="64.9992" x2="56.6993" y2="64.9992" gradientUnits="userSpaceOnUse">
<stop stop-color="#FFB752"/>
<stop offset="1" stop-color="#DE731F"/>
</linearGradient>
<linearGradient id="paint6_linear_3057_12106" x1="12.1723" y1="3.4072" x2="13.336" y2="21.9949" gradientUnits="userSpaceOnUse">
<stop stop-color="#C4936E"/>
<stop offset="0.11" stop-color="#B88A67"/>
<stop offset="0.3" stop-color="#9A7356"/>
<stop offset="0.55" stop-color="#684E3A"/>
<stop offset="0.85" stop-color="#251B14"/>
<stop offset="1"/>
</linearGradient>
<linearGradient id="paint7_linear_3057_12106" x1="15.1185" y1="16.2393" x2="16.1144" y2="31.4302" gradientUnits="userSpaceOnUse">
<stop stop-color="#C4936E"/>
<stop offset="0.11" stop-color="#B88A67"/>
<stop offset="0.3" stop-color="#9A7356"/>
<stop offset="0.55" stop-color="#684E3A"/>
<stop offset="0.85" stop-color="#251B14"/>
<stop offset="1"/>
</linearGradient>
<linearGradient id="paint8_linear_3057_12106" x1="21.1888" y1="37.6575" x2="29.9223" y2="37.6575" gradientUnits="userSpaceOnUse">
<stop stop-color="#C4936E"/>
<stop offset="0.11" stop-color="#B88A67"/>
<stop offset="0.3" stop-color="#9A7356"/>
<stop offset="0.55" stop-color="#684E3A"/>
<stop offset="0.85" stop-color="#251B14"/>
<stop offset="1"/>
</linearGradient>
<linearGradient id="paint9_linear_3057_12106" x1="32.5224" y1="55.9201" x2="33.4344" y2="48.4452" gradientUnits="userSpaceOnUse">
<stop stop-color="#C4936E"/>
<stop offset="0.11" stop-color="#B88A67"/>
<stop offset="0.3" stop-color="#9A7356"/>
<stop offset="0.55" stop-color="#684E3A"/>
<stop offset="0.85" stop-color="#251B14"/>
<stop offset="1"/>
</linearGradient>
<linearGradient id="paint10_linear_3057_12106" x1="27.8254" y1="57.9123" x2="30.7293" y2="72.2646" gradientUnits="userSpaceOnUse">
<stop stop-color="#C4936E"/>
<stop offset="0.11" stop-color="#B88A67"/>
<stop offset="0.3" stop-color="#9A7356"/>
<stop offset="0.55" stop-color="#684E3A"/>
<stop offset="0.85" stop-color="#251B14"/>
<stop offset="1"/>
</linearGradient>
<linearGradient id="paint11_linear_3057_12106" x1="34.4582" y1="19.3443" x2="47.5744" y2="25.2454" gradientUnits="userSpaceOnUse">
<stop stop-color="#FBA746"/>
<stop offset="1" stop-color="#DE731F"/>
</linearGradient>
<linearGradient id="paint12_linear_3057_12106" x1="38.0268" y1="32.3634" x2="32.6803" y2="17.8642" gradientUnits="userSpaceOnUse">
<stop stop-color="#BDE8BF"/>
<stop offset="0.71" stop-color="#4C8B8F"/>
<stop offset="0.76" stop-color="#539192"/>
<stop offset="0.82" stop-color="#67A19A"/>
<stop offset="0.9" stop-color="#88BCA8"/>
<stop offset="0.99" stop-color="#B6E2BC"/>
<stop offset="1" stop-color="#BDE8BF"/>
</linearGradient>
<linearGradient id="paint13_linear_3057_12106" x1="37.1561" y1="16.3428" x2="39.2886" y2="25.9683" gradientUnits="userSpaceOnUse">
<stop stop-color="#A16E5A"/>
<stop offset="0.12" stop-color="#956653"/>
<stop offset="0.35" stop-color="#775142"/>
<stop offset="0.64" stop-color="#452F27"/>
<stop offset="0.99" stop-color="#020101"/>
<stop offset="1"/>
</linearGradient>
<linearGradient id="paint14_linear_3057_12106" x1="9.03316" y1="16.11" x2="18.3573" y2="19.62" gradientUnits="userSpaceOnUse">
<stop stop-color="#FBA746"/>
<stop offset="1" stop-color="#DE731F"/>
</linearGradient>
<linearGradient id="paint15_linear_3057_12106" x1="9.66403" y1="26.0082" x2="5.44969" y2="15.2657" gradientUnits="userSpaceOnUse">
<stop stop-color="#BDE8BF"/>
<stop offset="0.71" stop-color="#4C8B8F"/>
<stop offset="0.76" stop-color="#539192"/>
<stop offset="0.82" stop-color="#67A19A"/>
<stop offset="0.9" stop-color="#88BCA8"/>
<stop offset="0.99" stop-color="#B6E2BC"/>
<stop offset="1" stop-color="#BDE8BF"/>
</linearGradient>
<linearGradient id="paint16_linear_3057_12106" x1="10.7875" y1="13.8661" x2="12.4693" y2="21.2238" gradientUnits="userSpaceOnUse">
<stop stop-color="#A16E5A"/>
<stop offset="0.12" stop-color="#956653"/>
<stop offset="0.35" stop-color="#775142"/>
<stop offset="0.64" stop-color="#452F27"/>
<stop offset="0.99" stop-color="#020101"/>
<stop offset="1"/>
</linearGradient>
<linearGradient id="paint17_linear_3057_12106" x1="63.255" y1="16.6687" x2="53.9309" y2="20.1787" gradientUnits="userSpaceOnUse">
<stop stop-color="#FBA746"/>
<stop offset="1" stop-color="#DE731F"/>
</linearGradient>
<linearGradient id="paint18_linear_3057_12106" x1="63.7264" y1="26.7264" x2="67.9407" y2="15.9961" gradientUnits="userSpaceOnUse">
<stop stop-color="#BDE8BF"/>
<stop offset="0.71" stop-color="#4C8B8F"/>
<stop offset="0.76" stop-color="#539192"/>
<stop offset="0.82" stop-color="#67A19A"/>
<stop offset="0.9" stop-color="#88BCA8"/>
<stop offset="0.99" stop-color="#B6E2BC"/>
<stop offset="1" stop-color="#BDE8BF"/>
</linearGradient>
<linearGradient id="paint19_linear_3057_12106" x1="61.5006" y1="14.4255" x2="59.8004" y2="21.7914" gradientUnits="userSpaceOnUse">
<stop stop-color="#A16E5A"/>
<stop offset="0.12" stop-color="#956653"/>
<stop offset="0.35" stop-color="#775142"/>
<stop offset="0.64" stop-color="#452F27"/>
<stop offset="0.99" stop-color="#020101"/>
<stop offset="1"/>
</linearGradient>
<clipPath id="clip0_3057_12106">
<rect width="71.5555" height="70" fill="white"/>
</clipPath>
</defs>
</svg>
