<svg width="26" height="26" viewBox="0 0 26 26" fill="none" xmlns="http://www.w3.org/2000/svg">
<path d="M11.7926 16.9955L11.6208 16.8237L8.66121 13.8641L8.97506 13.5503L10.9874 15.5635L11.7616 16.3381L12.4628 15.4968L17.0782 9.95946L17.4191 10.2436L11.9483 16.8086L11.9482 16.8087L11.7926 16.9955ZM13 25C14.5759 25 16.1363 24.6896 17.5922 24.0866C19.0481 23.4835 20.371 22.5996 21.4853 21.4853C22.5996 20.371 23.4835 19.0481 24.0866 17.5922C24.6896 16.1363 25 14.5759 25 13C25 11.4241 24.6896 9.86371 24.0866 8.4078C23.4835 6.95189 22.5996 5.62902 21.4853 4.51472C20.371 3.40042 19.0481 2.5165 17.5922 1.91345C16.1363 1.31039 14.5759 1 13 1C9.8174 1 6.76516 2.26428 4.51472 4.51472C2.26428 6.76515 1 9.8174 1 13C1 16.1826 2.26428 19.2348 4.51472 21.4853C6.76516 23.7357 9.8174 25 13 25Z" fill="#3EAC3E" stroke="white" stroke-width="2"/>
</svg>
