<svg width="66" height="69" viewBox="0 0 66 69" fill="none" xmlns="http://www.w3.org/2000/svg">
<g clip-path="url(#clip0_3057_12154)">
<path d="M57.8659 56.3183C56.8578 57.4486 55.7489 58.4761 54.5559 59.3838C50.9435 59.5465 46.8942 59.0327 43.5002 57.7483C38.9301 58.3905 33.7299 62.8346 30.0839 66.7393C29.9915 66.8335 29.9075 66.9192 29.8319 67.0048C29.185 67.6984 28.6053 68.3663 28.0761 68.9914H27.9584C26.7823 68.9828 25.5222 68.94 24.2536 68.8372C21.6241 68.6317 18.8938 68.2293 16.5667 67.5528C13.0635 66.5424 9.59391 64.4873 7.91372 61.1991C8.13214 59.281 8.26656 57.5428 8.30016 55.8473C8.30856 55.4277 8.30856 55.0167 8.30016 54.5971V54.4601C8.29176 53.1671 8.21615 51.8655 8.09014 50.5212C7.98933 49.5022 7.85491 48.4575 7.68689 47.3529C4.3517 45.6317 1.77261 42.9515 0.0168019 39.5863C0.00840097 39.5778 0.00840097 39.5692 0 39.5606C1.86502 36.6835 4.11648 34.0632 6.60317 31.7341C7.32565 26.5707 8.27496 21.3901 10.1988 16.5521C12.1142 11.714 15.0629 7.1928 19.213 4.13584C20.3304 3.3138 21.5149 2.61164 22.7666 2.0208C23.2119 1.81529 23.6739 1.6269 24.136 1.44708C24.2032 1.42139 24.262 1.40427 24.3292 1.37002C24.6401 1.25014 24.9593 1.13882 25.2701 1.03606C27.6644 0.248275 30.1931 -0.0942418 32.705 0.0170762C41.9293 0.445222 52.0356 2.62877 58.2271 9.83874C58.9916 10.7379 59.6973 11.7055 60.3442 12.7673C63.629 18.2047 65.5276 24.8495 65.83 31.58C66.2417 40.6224 63.7634 49.7848 57.8743 56.3268L57.8659 56.3183Z" fill="url(#paint0_radial_3057_12154)"/>
<path d="M65.8216 31.5801C65.5192 24.8497 63.6205 18.2048 60.3358 12.7674C59.6889 11.7141 58.9832 10.738 58.2187 9.83887C57.6559 10.1899 57.2442 10.7123 57.0846 11.423C56.1689 15.4476 53.405 19.4036 51.5484 23.0857C48.7088 28.7287 45.9281 34.149 45.13 40.5369C44.6932 44.0135 43.1054 46.0172 39.4509 46.12C35.8805 46.2313 32.5201 44.9383 29.6974 42.8147C29.6554 42.7462 29.5966 42.6948 29.5546 42.6263C28.0928 40.2201 30.4619 38.5075 31.5876 36.5894C32.915 34.3374 33.9231 31.6058 32.5622 29.114C30.1847 24.7726 28.1852 31.9569 27.6896 33.4383C27.1267 35.1252 26.6731 36.8549 26.337 38.6103C26.127 39.6978 25.9674 40.7853 25.8414 41.8899C25.7322 42.0354 25.6566 42.2067 25.6398 42.3951C25.2197 47.0191 24.1948 51.2663 24.8501 55.8817C22.8086 58.1337 22.9262 61.576 23.1615 64.6244C23.2791 66.0887 23.4639 67.6814 24.2452 68.8545C25.5137 68.9573 26.7655 69.0001 27.95 69.0086H28.0676C28.5969 68.3835 29.1766 67.7156 29.8234 67.022C29.9074 66.9278 29.9831 66.8422 30.0755 66.7566C33.7215 62.8519 38.9301 58.3992 43.4918 57.7655C46.8858 59.05 50.9351 59.5723 54.5475 59.401C55.7488 58.4934 56.8578 57.4658 57.8575 56.3355C63.7382 49.7934 66.2164 40.6311 65.8132 31.5887L65.8216 31.5801Z" fill="url(#paint1_radial_3057_12154)"/>
<path d="M30.0754 66.7393C29.983 66.8335 29.899 66.9191 29.8234 67.0047C29.1765 67.6983 28.5969 68.3662 28.0676 68.9913H27.95C24.3376 68.9656 20.0279 68.5546 16.5583 67.5442C13.0551 66.5338 9.58547 64.4787 7.90527 61.1905C8.1237 59.2724 8.25811 57.5341 8.29172 55.8387C8.30012 55.4191 8.30012 55.0081 8.29172 54.5885C8.93019 53.6637 9.71148 52.8588 10.5936 52.208C11.4253 53.6295 11.8117 55.3249 11.6773 56.9776C12.4754 55.8216 13.3827 54.7341 14.3908 53.7665C14.7521 53.4154 15.2645 53.0557 15.7182 53.2698C16.1466 53.4668 16.239 54.0062 16.281 54.4857C16.4071 55.9329 16.5415 57.3714 16.6675 58.8186C17.8688 57.577 19.2802 56.558 20.8344 55.8301C21.3888 55.5732 22.0273 55.3506 22.5902 55.5732C23.2539 55.8301 23.5647 56.6008 23.7411 57.2944C24.2788 59.2639 24.4048 61.3446 24.1192 63.3741C25.4045 63.1429 26.547 61.7899 27.4711 60.9422C27.6308 60.7966 27.8576 60.6254 28.0592 60.7196C28.1684 60.7709 28.244 60.8737 28.2944 60.9764C29.3782 62.8089 30.2099 64.6842 30.067 66.7393H30.0754Z" fill="url(#paint2_radial_3057_12154)"/>
<path d="M10.9801 17.3315C9.45951 19.3181 9.3587 21.6216 9.02266 24.0106C8.76223 25.8602 8.5102 27.7098 8.24977 29.5594C8.12376 30.4499 7.99774 31.3576 7.5945 32.1625C7.23325 32.8818 6.66199 33.4812 6.10752 34.0635C4.62055 35.6134 3.13358 37.1633 1.64661 38.7217C3.56203 37.266 5.52786 35.8874 7.55249 34.5944C9.16548 35.8189 11.0725 36.6495 13.0551 36.9834C11.3833 35.9302 9.56873 34.6886 9.08987 32.7362C8.87144 31.8286 8.97226 30.8781 9.14028 29.9618C9.54352 27.7441 10.308 25.5605 11.6438 23.7537C12.9795 21.947 14.9033 20.5426 17.0792 20.1316C14.8697 19.6778 12.7695 18.7187 10.9717 17.3401L10.9801 17.3315Z" fill="#FFF8E8"/>
<path d="M40.2238 44.5614C38.5269 44.8696 36.771 44.5014 35.1497 43.8849C36.3342 44.6812 37.5859 45.4091 38.9553 45.7859C40.3247 46.1626 41.8368 46.1541 43.1138 45.529C45.004 44.6042 46.0961 42.4292 46.2557 40.297C46.407 38.1649 45.7601 36.0498 44.9452 34.0718C44.3739 32.6846 43.685 31.3145 42.6433 30.2527C41.6016 29.1909 40.1398 28.4631 38.6697 28.6258C39.955 29.8503 41.2488 31.0833 42.3157 32.5133C43.601 34.243 44.1387 36.8462 44.1807 38.9783C44.1975 39.8603 44.1303 40.7594 43.8279 41.59C43.2482 43.1913 41.8368 44.2617 40.2238 44.5528V44.5614Z" fill="#FFF8E8"/>
<path d="M20.7252 39.8603C20.1791 40.8365 19.6247 41.8041 19.0786 42.7803C18.5829 43.6622 18.0789 44.5528 17.768 45.5204C17.4572 46.488 17.3648 47.5498 17.6756 48.5174C19.255 46.9162 20.868 45.2806 21.8761 43.2512C23.4807 40.0144 23.7327 36.4865 24.3544 32.9672C24.7324 30.8179 25.3625 28.7114 25.7238 26.5707C25.8498 25.8257 25.5893 25.1663 25.4549 24.4385C25.2953 23.5565 25.0685 22.666 24.4636 21.9895C23.6823 21.1075 22.4642 20.7907 21.3049 20.6451C18.6837 20.3112 15.987 20.5937 13.4919 21.4843C15.9366 21.2788 18.4233 21.0733 20.8008 21.6812C22.9178 22.2207 23.4471 23.7963 23.7747 25.7401C24.1612 28.0349 23.8503 30.4582 22.8758 32.5733C21.7333 35.0308 19.7003 37.0431 17.2556 38.1306C18.9358 38.182 20.6244 37.8908 22.1954 37.2829C21.7081 38.1477 21.2208 39.0126 20.7336 39.8774L20.7252 39.8603Z" fill="#FFF8E8"/>
<path d="M57.866 56.3181C56.8578 57.4484 55.7489 58.476 54.556 59.3836C50.9436 59.5463 46.8943 59.0326 43.5003 57.7481C38.0145 58.5188 31.6129 64.7697 28.0761 68.9998H27.9585C28.8742 66.4652 30.3024 64.1104 32.0918 62.1152C33.0747 61.0192 34.4104 60.2399 35.3514 59.161C36.3763 57.9965 36.2923 56.1383 35.9562 54.6055C37.0063 56.2068 38.9302 56.9004 40.7868 57.2515C42.6518 57.594 44.5672 57.4056 46.4322 57.123C48.1208 52.9615 48.3225 48.6286 47.4656 44.2016C48.9525 47.7466 49.9018 51.5571 50.1539 55.4105C52.0021 55.9414 53.7411 55.8557 55.5473 55.1878C60.8735 48.2775 63.8307 40.0914 65.8217 31.5713C66.2333 40.6137 63.755 49.7761 57.866 56.3181Z" fill="#DEA37A"/>
<path d="M11.1733 46.3169C10.2072 47.0362 9.32513 47.8154 8.77906 48.9029C8.51863 49.4338 8.29181 49.9647 8.09018 50.5213C7.98937 49.5023 7.85495 48.4576 7.68693 47.353C4.35175 45.6318 1.77265 42.9517 0.0168457 39.5864C3.19241 42.2581 6.68722 44.2532 11.0389 44.2532C11.1229 44.9639 11.0893 45.6062 11.1733 46.3169Z" fill="#DEA37A"/>
<path d="M29.8739 66.4909C29.9495 64.7697 29.269 62.9116 28.3113 61.5158C26.5723 62.3378 25.0265 63.4339 23.7412 64.8896C24.2704 61.9525 23.674 58.7243 22.5734 55.9585C21.4897 56.3267 20.3976 56.712 19.4483 57.3714C18.3897 58.1249 17.5832 59.2038 16.8104 60.2571C16.3987 60.8222 16.1215 61.0962 15.7098 61.6528C16.2811 58.9897 16.0879 56.164 15.1806 53.6037C13.5592 55.0251 12.257 56.3866 11.3329 58.3561C11.3833 56.6007 10.8709 54.6655 10.4004 52.97C9.53511 53.7835 8.82103 54.7682 8.30017 55.8386C8.30857 55.3762 8.30857 54.9138 8.30017 54.4514C8.86304 52.9529 9.68633 51.5743 10.7953 50.3926C11.4253 51.9682 12.1226 53.6893 12.3578 55.3591C13.5172 53.6807 15.2478 52.3877 17.0624 51.4972C17.4824 53.4153 17.558 55.5303 17.4404 57.4827C18.9358 55.6502 21.2881 54.4942 23.6235 54.3058C24.7157 56.849 25.0181 59.6148 24.5477 62.3464C25.7406 60.5824 27.656 59.5463 29.6554 58.9041C30.1091 61.3017 30.0923 64.0162 29.8655 66.4737L29.8739 66.4909Z" fill="#DEA37A"/>
<path d="M24.3124 51.4801C23.1783 51.8226 22.0274 51.7455 21.0108 51.1204C21.1284 50.3669 21.2461 49.6476 21.4141 48.9455C21.5317 48.4659 21.6745 47.9864 21.8593 47.4983C21.5401 47.9265 21.2629 48.3204 20.9772 48.7143C20.532 49.3222 20.1119 49.9131 19.6163 50.5981C18.919 50.4525 17.9277 49.9216 17.6168 49.2195C17.2808 48.4659 17.8185 47.9864 18.3561 47.4298C20.0027 45.7258 21.3301 43.7135 22.2626 41.5043C23.1531 41.0076 24.3796 41.4358 25.0685 42.1979C25.7658 42.9514 26.0598 44.0047 26.1606 45.0408C26.3791 47.3014 25.623 49.6219 24.3292 51.4715L24.3124 51.4801Z" fill="#DEA37A"/>
<path d="M20.9689 48.7146C20.5152 48.4492 20.0196 48.2436 19.5407 48.5605C19.3979 48.6547 18.6334 49.6223 18.8686 49.7678C18.4738 49.5366 18.373 48.9801 18.5158 48.5348C18.6586 48.0981 18.9779 47.747 19.2719 47.3959C19.6835 46.9164 20.07 46.4197 20.4396 45.906C20.7253 45.5035 20.8261 45.0925 21.0529 44.6643C21.4225 43.9793 21.8594 42.8319 22.5231 42.3952C23.4136 41.8129 24.7577 42.6007 25.2282 43.397C25.749 44.279 25.7406 45.3922 25.4298 46.3769C25.1274 47.3445 24.5561 48.218 24.0016 49.0657C23.8 49.3654 23.5732 49.6737 23.2287 49.7422C22.9431 49.785 22.6743 49.648 22.4223 49.5024C22.0778 49.314 21.7418 49.1342 21.3973 48.9372C21.5149 48.4577 21.6578 47.9782 21.8426 47.4901C21.5233 47.9183 21.2461 48.3121 20.9605 48.706L20.9689 48.7146Z" fill="#C97A4D"/>
<path d="M14.2816 36.2811C16.2055 36.9319 18.2385 37.3172 20.1203 36.2811C22.733 34.834 23.6655 31.4259 23.3547 28.6087C23.2119 27.3072 22.817 25.9713 21.8677 25.0894C20.9268 24.2159 19.5995 23.9334 18.3309 23.8734C15.9114 23.7621 13.3659 24.4129 11.5849 26.0912C9.74511 27.8209 9.50988 29.9788 9.6611 32.3764C9.80392 34.6199 12.4586 35.6731 14.2816 36.2897V36.2811Z" fill="#DEA37A"/>
<path d="M31.26 36.7094C31.1844 38.5505 31.5876 40.5285 32.8814 41.8129C33.8895 42.8234 35.3009 43.2858 36.6534 43.7139C38.5268 44.3048 40.9883 45.0069 42.6853 43.4998C43.5086 42.772 43.895 41.6588 44.1135 40.5713C44.5755 38.3021 44.4327 35.8703 43.4582 33.7724C42.4837 31.6744 40.6439 29.9619 38.4344 29.4224C36.771 29.0114 35.0152 29.3625 33.5787 30.2958C31.6044 31.5803 31.3608 34.5345 31.2684 36.7009L31.26 36.7094Z" fill="#DEA37A"/>
<path d="M33.7887 38.5245C34.0995 37.7025 34.402 36.8804 34.7128 36.0584C35.2084 38.8328 37.5103 41.179 40.2322 41.6928C39.8542 42.3521 39.1401 42.806 38.384 42.8659C39.5517 43.6965 41.2823 43.3026 42.2821 42.2665C43.2818 41.2304 43.6682 39.7147 43.7102 38.259C43.7774 36.2296 43.2314 34.1231 41.9208 32.5818C40.5599 30.9891 38.4092 30.2013 36.3594 30.3812C35.5781 30.4497 34.4944 30.5867 33.9903 31.2803C33.4022 32.0766 33.1754 33.4124 33.0914 34.38C32.9654 35.7929 33.1922 37.2401 33.7887 38.5245Z" fill="#C97A4D"/>
<path d="M11.4422 32.5906C11.6774 31.9141 12.0218 31.2805 12.4671 30.7324C12.3411 31.4089 12.4419 32.1196 12.7359 32.7362L13.4164 32.0682C14.895 33.9264 17.7849 34.3974 19.7591 33.1129C21.7334 31.8199 22.5147 28.9428 21.4729 26.8021C21.7502 27.0247 22.0358 27.2473 22.313 27.4614C22.3214 26.6736 21.8342 25.9458 21.1873 25.5262C19.3139 24.3017 15.9787 24.5671 14.0297 25.4063C11.2238 26.6051 10.0056 29.8162 11.4506 32.5991L11.4422 32.5906Z" fill="#C97A4D"/>
<path d="M21.3217 21.0734C22.4474 21.1505 23.6571 21.3218 24.4804 22.1096C25.3541 22.9487 25.5641 24.2674 25.6062 25.4919C25.6482 26.7164 25.5557 27.9837 26.001 29.114C26.3874 27.3501 26.5387 25.5262 26.4378 23.7194C26.3958 22.923 26.2698 22.0582 25.7154 21.4845C25.2197 20.9707 24.4804 20.808 23.7831 20.6967C22.0777 20.4227 20.3387 20.3285 18.6165 20.4227C17.8016 20.4655 14.2564 20.4912 14.0548 21.3475C16.4995 21.2533 18.8602 20.9022 21.3217 21.0734Z" fill="#DEA37A"/>
<path d="M39.9803 26.9133C39.0142 26.2282 38.0312 25.5432 36.9475 25.0722C35.8638 24.6013 34.654 24.3615 33.4947 24.6098C31.3105 25.0808 29.8487 27.1188 28.6053 29.0026C28.807 27.1701 29.8655 25.4661 31.4029 24.4899C32.9403 23.5223 34.9229 23.3168 36.6199 23.959C38.0984 24.5156 38.8629 25.7744 39.9803 26.9133Z" fill="#DEA37A"/>
<path d="M53.3798 23.274C52.9177 23.822 52.6237 24.4814 52.3465 25.1407C49.9858 30.7494 48.3728 36.7777 48.44 42.8745C49.6414 37.8652 51.1451 32.9244 52.9261 28.1035C53.2538 27.2215 53.6318 26.2882 54.4047 25.7744C55.5304 25.0208 57.1098 25.4747 58.0759 26.4252C59.042 27.3757 59.5293 28.7029 59.9914 29.9873C59.3949 28.3261 59.4117 26.6992 58.4624 25.1236C57.4291 23.4025 55.1608 21.1504 53.3714 23.2655L53.3798 23.274Z" fill="#DEA37A"/>
<path d="M26.8075 5.45437C26.5807 5.58282 26.295 5.52288 26.0598 5.42868C24.7913 4.93203 24.1864 3.75891 24.052 2.44879C24.0184 2.10627 24.0352 1.75519 24.1276 1.43836C24.1948 1.41267 24.2536 1.39555 24.3208 1.3613C24.6316 1.24142 24.9509 1.1301 25.2617 1.02734C25.1189 1.44693 24.9593 1.84938 24.8921 2.29466C24.7913 2.93687 24.8669 3.63047 25.2281 4.15281C25.5894 4.69227 26.2782 5.00054 26.8915 4.81215C27.1099 4.9406 27.0343 5.33449 26.8075 5.45437Z" fill="#FFF8E8"/>
<path d="M27.9164 5.04359C28.0424 5.27478 28.2357 5.45461 28.4205 5.64299C29.4874 6.73904 30.1931 8.2033 30.4031 9.73607C30.6047 11.2688 30.3107 12.8701 29.563 14.2145C28.7901 15.6188 27.53 16.809 27.2444 18.3932C27.0679 17.7681 27.2528 17.0916 27.5636 16.5179C27.8744 15.9442 28.3029 15.4561 28.6557 14.9166C29.521 13.5894 29.9159 11.9539 29.7646 10.3697C29.6134 8.78558 28.9077 7.26138 27.8072 6.13108C27.5888 5.90844 27.3536 5.69437 27.2024 5.42035C27.0511 5.14634 26.9923 4.79526 27.1603 4.52125C27.2612 4.35855 27.572 4.15304 27.7568 4.29861C27.8828 4.40137 27.8408 4.87233 27.9332 5.03502L27.9164 5.04359Z" fill="#FFF8E8"/>
<path d="M35.4186 10.3099C35.1413 8.58873 34.2172 6.9789 32.8815 5.88285C31.5373 4.80392 29.8067 4.2302 28.0845 4.3244C27.8997 4.34152 27.7149 4.35865 27.5301 4.36721C27.2696 4.80392 27.4796 5.37763 27.7989 5.74584C28.1349 6.12261 28.5802 6.37093 28.9162 6.7477C29.8487 7.741 29.8487 9.27376 29.7899 10.6438C29.7227 11.9968 29.6555 13.4097 28.975 14.5656C28.4122 15.5333 27.4208 16.3382 27.2024 17.4171C27.2024 17.066 27.0764 16.7149 26.858 16.4495C27.7653 15.773 28.3365 14.7198 28.639 13.6152C28.9498 12.5105 29.0002 11.3546 29.059 10.2157C29.0926 9.41077 29.1346 8.54591 28.7314 7.85232C27.8409 6.25105 25.6062 6.35381 24.3713 5.14644C23.5648 4.35865 23.1363 3.15984 22.7583 1.98672C23.2708 1.75552 23.7916 1.53288 24.3209 1.33594C24.01 2.18367 23.968 3.1684 24.3965 3.96475C24.8417 4.79536 25.8835 5.32626 26.7488 4.96661C26.5135 4.64122 26.648 4.15314 26.9504 3.88769C27.2528 3.6308 27.6561 3.53661 28.0509 3.50236C29.9159 3.30541 31.8398 3.95619 33.2175 5.23207C34.6037 6.49938 35.427 8.39178 35.427 10.2928L35.4186 10.3099Z" fill="#DEA37A"/>
<path d="M11.6857 15.3876C11.2152 16.4066 10.77 17.4856 10.7616 18.6159C10.7616 19.0611 10.8456 19.5578 11.19 19.8232C11.4925 20.063 11.9041 20.063 12.2906 20.0544C13.8784 20.0116 15.4661 19.926 17.0455 19.7975C17.4656 19.7633 17.894 19.7205 18.2721 19.5321C18.7761 19.2752 19.1206 18.7871 19.3978 18.2819C20.6579 16.0127 20.952 13.3068 22.0693 10.952C22.5734 9.89025 23.2538 8.84557 23.2622 7.66389C23.2622 6.60208 22.7246 5.63447 22.1365 4.75249C21.9685 4.49561 21.7669 4.22159 21.4728 4.1274C21.1116 4.00752 20.7252 4.1959 20.3891 4.39285C18.7341 5.34334 16.9867 6.49933 15.693 7.92934C15.2729 8.38317 15.1217 8.92264 14.8529 9.4621C14.3992 10.3783 13.828 11.2432 13.3407 12.1337C12.7526 13.1955 12.1982 14.2745 11.6857 15.3791V15.3876Z" fill="#FFF8E8"/>
<path d="M9.29147 62.2609C9.19066 62.475 9.08984 62.6977 9.08984 62.9289C9.09824 63.4341 9.5687 63.7851 9.98035 64.0506C10.35 61.6701 10.9465 59.3324 11.7362 57.0547C10.854 58.7501 10.1064 60.5312 9.29147 62.2609Z" fill="#DEA37A"/>
<path d="M13.3491 66.5594C13.8784 66.7906 14.4412 66.9362 15.0125 66.979C14.7857 66.9619 16.7263 59.9146 16.7851 59.3237C16.1298 60.0601 15.777 61.2161 15.3653 62.1067C14.6933 63.5881 14.0128 65.0695 13.3407 66.5508L13.3491 66.5594Z" fill="#DEA37A"/>
<path d="M21.5317 67.878C21.3721 68.0664 21.2125 68.2633 21.0529 68.4603C21.5065 68.6059 22.607 69.0768 23.0691 68.9056C23.5647 68.7257 23.5479 67.8695 23.6572 67.3814C23.9848 65.9428 24.3544 64.5128 24.7157 63.0742C24.4973 63.9733 23.5311 65.1293 23.0355 65.9171C22.5902 66.6278 22.061 67.2529 21.5317 67.8866V67.878Z" fill="#DEA37A"/>
<path d="M11.9462 58.8187C11.879 59.1013 11.8874 59.4781 12.1478 59.598C12.3326 59.6836 12.5426 59.5808 12.7106 59.4781C13.6516 58.9044 14.4328 58.0395 14.9117 57.0376C15.0377 56.7722 15.1469 56.4639 15.0461 56.1814C14.7353 55.3251 13.6348 55.856 13.2315 56.3012C12.6266 56.9691 12.1478 57.9453 11.9462 58.8187Z" fill="#FFF8E8"/>
<path d="M8.76222 57.7653C8.77902 57.9537 8.88823 58.202 9.06465 58.1592C9.16546 58.1335 9.22427 58.0222 9.26627 57.928C9.67792 56.9518 10.0056 55.9328 10.2492 54.8967C10.2996 54.6655 10.2996 54.3401 10.0728 54.2887C9.96356 54.263 9.85434 54.3315 9.76193 54.4C8.77902 55.1279 8.6446 56.6264 8.76222 57.7653Z" fill="#FFF8E8"/>
<path d="M17.5244 61.7298C17.5244 61.8497 17.5244 61.9782 17.6084 62.0638C17.7176 62.1751 17.9025 62.1494 18.0537 62.0981C19.7507 61.5843 21.2124 60.3084 21.9853 58.6815C22.0693 58.5102 22.1449 58.2961 22.0525 58.1249C21.9433 57.9194 21.6577 57.8937 21.4309 57.9194C19.4062 58.1163 17.6084 59.5549 17.5244 61.7213V61.7298Z" fill="#FFF8E8"/>
<path d="M24.8837 64.9238C24.8165 65.0095 24.7493 65.1294 24.8081 65.2235C24.8753 65.3177 25.0097 65.2835 25.1105 65.2407C26.2194 64.7954 27.2864 64.2303 28.2777 63.5538C28.3365 63.511 28.3953 63.4682 28.4289 63.4082C28.5213 63.2198 28.3197 63.0229 28.1349 62.9458C26.5891 62.2779 25.6734 63.9049 24.8837 64.9238Z" fill="#FFF8E8"/>
<path d="M35.7125 52.7389C37.2499 54.4686 40.0894 54.1774 41.8789 55.6331C40.9127 53.3982 41.8285 50.5553 40.5095 48.5174C39.7786 47.3956 38.5101 46.762 37.2415 46.3766C35.9898 45.9913 34.6708 45.8029 33.4695 45.2549C33.8811 47.3614 34.276 51.1376 35.7041 52.7474L35.7125 52.7389Z" fill="url(#paint3_radial_3057_12154)"/>
<path d="M43.2902 2.28613C48.314 4.00727 52.8421 7.2098 56.1773 11.4142C55.0348 9.96706 52.5733 8.83676 51.0023 7.94621C49.1289 6.88441 47.1714 5.96818 45.1552 5.19752C41.1311 3.66476 36.8886 2.73996 32.5957 2.48307C30.9072 2.38032 28.6053 2.89409 27.0343 2.39744C28.1516 1.30139 30.8063 1.03594 32.2933 0.890369C35.9561 0.522164 39.8122 1.09588 43.2902 2.27756V2.28613Z" fill="#FFF8E8"/>
</g>
<defs>
<radialGradient id="paint0_radial_3057_12154" cx="0" cy="0" r="1" gradientUnits="userSpaceOnUse" gradientTransform="translate(26.1018 17.2542) scale(61.3943 62.5778)">
<stop stop-color="#FEEEC6"/>
<stop offset="0.41" stop-color="#F6D8B1"/>
<stop offset="0.94" stop-color="#EAB692"/>
</radialGradient>
<radialGradient id="paint1_radial_3057_12154" cx="0" cy="0" r="1" gradientUnits="userSpaceOnUse" gradientTransform="translate(36.687 14.343) scale(33.8055 34.4572)">
<stop stop-color="#FEEEC6"/>
<stop offset="0.41" stop-color="#F6D8B1"/>
<stop offset="0.94" stop-color="#EAB692"/>
</radialGradient>
<radialGradient id="paint2_radial_3057_12154" cx="0" cy="0" r="1" gradientUnits="userSpaceOnUse" gradientTransform="translate(13.7019 57.654) scale(16.4155 16.7319)">
<stop stop-color="#FEEEC6"/>
<stop offset="0.41" stop-color="#F6D8B1"/>
<stop offset="0.94" stop-color="#EAB692"/>
</radialGradient>
<radialGradient id="paint3_radial_3057_12154" cx="0" cy="0" r="1" gradientUnits="userSpaceOnUse" gradientTransform="translate(34.528 41.119) scale(30.1343 30.7152)">
<stop stop-color="#FEEEC6"/>
<stop offset="0.41" stop-color="#F6D8B1"/>
<stop offset="0.94" stop-color="#EAB692"/>
</radialGradient>
<clipPath id="clip0_3057_12154">
<rect width="65.8636" height="69" fill="white"/>
</clipPath>
</defs>
</svg>
