<svg width="23" height="23" viewBox="0 0 23 23" fill="none" xmlns="http://www.w3.org/2000/svg">
<path d="M17.2203 11.5693L17.2665 11.5L17.2203 11.4307L10.1311 0.796874L14.8166 0.796875L21.9521 11.5L14.8166 22.2031L10.1311 22.2031L17.2203 11.5693ZM11.9719 11.5699L12.0191 11.5L11.9719 11.4301L7.32576 4.54687L11.2562 4.54687L15.9495 11.5L11.2562 18.4531L7.32576 18.4531L11.9719 11.5699ZM7.75155 11.5693L7.79778 11.5L7.75155 11.4307L5.16236 7.54687L8.03111 7.54687L10.6995 11.5L8.03111 15.4531L5.16236 15.4531L7.75155 11.5693ZM3.7203 11.5693L3.76653 11.5L3.7203 11.4307L1.13111 7.54687L3.8479 7.54687L6.48331 11.5L3.8479 15.4531L1.13111 15.4531L3.7203 11.5693Z" fill="#7C8D03" stroke="url(#paint0_linear_3042_16727)" stroke-width="0.25"/>
<defs>
<linearGradient id="paint0_linear_3042_16727" x1="22.1023" y1="11.5" x2="0.897546" y2="11.5" gradientUnits="userSpaceOnUse">
<stop offset="0.495" stop-color="#FED083"/>
<stop offset="1" stop-color="#FFAE27"/>
</linearGradient>
</defs>
</svg>
