<svg width="28" height="28" viewBox="0 0 28 28" fill="none" xmlns="http://www.w3.org/2000/svg">
<path d="M14 0.666504C6.64002 0.666504 0.666687 6.63984 0.666687 13.9998C0.666687 21.3598 6.64002 27.3332 14 27.3332C21.36 27.3332 27.3334 21.3598 27.3334 13.9998C27.3334 6.63984 21.36 0.666504 14 0.666504ZM20.1867 9.73317C19.9867 11.8398 19.12 16.9598 18.68 19.3198C18.4934 20.3198 18.12 20.6532 17.7734 20.6932C17 20.7598 16.4134 20.1865 15.6667 19.6932C14.4934 18.9198 13.8267 18.4398 12.6934 17.6932C11.3734 16.8265 12.2267 16.3465 12.9867 15.5732C13.1867 15.3732 16.6 12.2665 16.6667 11.9865C16.6759 11.9441 16.6747 11.9001 16.6631 11.8582C16.6515 11.8164 16.6298 11.7781 16.6 11.7465C16.52 11.6798 16.4134 11.7065 16.32 11.7198C16.2 11.7465 14.3334 12.9865 10.6934 15.4398C10.16 15.7998 9.68002 15.9865 9.25335 15.9732C8.77335 15.9598 7.86669 15.7065 7.18669 15.4798C6.34669 15.2132 5.69335 15.0665 5.74669 14.5998C5.77335 14.3598 6.10669 14.1198 6.73335 13.8665C10.6267 12.1732 13.2134 11.0532 14.5067 10.5198C18.2134 8.97317 18.9734 8.7065 19.48 8.7065C19.5867 8.7065 19.84 8.73317 20 8.8665C20.1334 8.97317 20.1734 9.11984 20.1867 9.2265C20.1734 9.3065 20.2 9.5465 20.1867 9.73317Z" fill="url(#paint0_linear_3042_16689)"/>
<defs>
<linearGradient id="paint0_linear_3042_16689" x1="14" y1="0.666504" x2="14" y2="27.3332" gradientUnits="userSpaceOnUse">
<stop offset="0.495" stop-color="#FED083"/>
<stop offset="1" stop-color="#FFAE27"/>
</linearGradient>
</defs>
</svg>
