<svg width="24" height="25" viewBox="0 0 24 25" fill="none" xmlns="http://www.w3.org/2000/svg">
<path d="M2 9.971C2 7.25863 3.61644 4.80724 6.1095 3.73878C7.94271 2.95312 10.0289 3.01443 11.8128 3.90638L12.0001 4.00004C13.9027 4.95135 16.1276 5.01677 18.0829 4.17891L21.303 2.799C21.3791 2.76638 21.4621 2.75317 21.5445 2.76054C21.627 2.76792 21.7063 2.79565 21.7754 2.84124C21.8445 2.88684 21.9012 2.94888 21.9404 3.0218C21.9796 3.09471 22.0001 3.17622 22 3.259V15.029C22 17.7414 20.3836 20.1928 17.8905 21.2612C16.0573 22.0469 13.9711 21.9856 12.1872 21.0936L11.9999 21C10.0973 20.0487 7.87235 19.9832 5.91712 20.8211L2.697 22.201C2.62091 22.2336 2.53792 22.2468 2.45547 22.2395C2.37301 22.2321 2.29368 22.2044 2.22459 22.1588C2.1555 22.1132 2.09881 22.0511 2.05961 21.9782C2.02041 21.9053 1.99993 21.8238 2 21.741V9.971ZM7 11.5C6.44772 11.5 6 11.9477 6 12.5C6 13.0523 6.44772 13.5 7 13.5C7.55228 13.5 8 13.0523 8 12.5C8 11.9477 7.55228 11.5 7 11.5ZM11 11.5C10.4477 11.5 10 11.9477 10 12.5C10 13.0523 10.4477 13.5 11 13.5C11.5523 13.5 12 13.0523 12 12.5C12 11.9477 11.5523 11.5 11 11.5ZM16.6189 10.8211C16.2771 11.1629 15.723 11.1628 15.3814 10.8209L15.293 10.7324C15.0003 10.4395 14.5255 10.4393 14.2325 10.732C13.9395 11.0247 13.9393 11.4995 14.2321 11.7925L14.3207 11.8812C14.6622 12.223 14.6621 12.7769 14.3205 13.1185L14.2321 13.2069C13.9393 13.4997 13.9392 13.9744 14.2319 14.2674C14.5246 14.5604 14.9996 14.5606 15.2926 14.2678L15.3812 14.1793C15.723 13.8378 16.2769 13.8379 16.6185 14.1795L16.7069 14.2679C16.9997 14.5607 17.4744 14.5608 17.7674 14.2681C18.0604 13.9754 18.0606 13.5004 17.7678 13.2074L17.6793 13.1188C17.3378 12.777 17.3379 12.2231 17.6795 11.8815L17.768 11.793C18.0608 11.5002 18.0609 11.0256 17.7683 10.7327C17.4754 10.4397 17.0004 10.4396 16.7075 10.7325L16.6189 10.8211Z" fill="#582B02"/>
</svg>
