<svg width="36" height="35" viewBox="0 0 36 35" fill="none" xmlns="http://www.w3.org/2000/svg">
<path d="M26.1628 0.676386C26.5457 0.293633 27.0649 0.0786133 27.6063 0.0786133C28.1476 0.0786133 28.6668 0.293633 29.0497 0.676386L31.9285 3.55514L31.9366 3.5633L31.9468 3.57147L34.8256 6.45022C35.2084 6.83332 35.4234 7.35281 35.4232 7.8944C35.423 8.43599 35.2077 8.95533 34.8246 9.33816C34.4415 9.72099 33.922 9.93595 33.3804 9.93576C32.8388 9.93557 32.3195 9.72023 31.9366 9.33714L30.4932 7.89368L20.3869 17.9999L23.2738 20.8868C23.6532 21.266 23.9541 21.7163 24.1594 22.2118C24.3647 22.7073 24.4704 23.2384 24.4704 23.7748C24.4704 24.3112 24.3647 24.8423 24.1594 25.3378C23.9541 25.8333 23.6532 26.2835 23.2738 26.6627L18.1819 31.7546C16.8414 33.0953 15.1539 34.0362 13.3087 34.4718C11.4634 34.9074 9.53336 34.8206 7.73472 34.221L5.79718 33.5758C4.8951 33.2749 4.07548 32.768 3.40323 32.0954C2.73099 31.4228 2.22458 30.603 1.92414 29.7007L1.27897 27.7652C0.679359 25.9666 0.592493 24.0365 1.02811 22.1913C1.46372 20.346 2.4046 18.6586 3.7453 17.318L8.83722 12.2241C9.21641 11.8447 9.66663 11.5438 10.1622 11.3385C10.6577 11.1332 11.1888 11.0275 11.7252 11.0275C12.2615 11.0275 12.7926 11.1332 13.2882 11.3385C13.7837 11.5438 14.2339 11.8447 14.6131 12.2241L17.5 15.113L27.6063 5.00676L26.1628 3.5633C25.78 3.18043 25.565 2.66122 25.565 2.11984C25.565 1.57847 25.78 1.05926 26.1628 0.676386Z" fill="#582B02"/>
</svg>
