<svg width="25" height="25" viewBox="0 0 25 25" fill="none" xmlns="http://www.w3.org/2000/svg">
<g clip-path="url(#clip0_3042_18629)">
<path d="M20.0267 3.79986H15.2267C15.0348 3.22958 14.6687 2.73392 14.1801 2.38279C13.6915 2.03166 13.105 1.84277 12.5033 1.84277C11.9016 1.84277 11.3151 2.03166 10.8265 2.38279C10.3379 2.73392 9.97186 3.22958 9.78 3.79986H5.16667C5.0034 3.77625 4.83699 3.78753 4.6784 3.83295C4.51981 3.87838 4.37267 3.95692 4.24666 4.06339C4.12066 4.16986 4.01867 4.30185 3.94742 4.45063C3.87617 4.59941 3.83729 4.76162 3.83333 4.92653V22.0065C3.8342 22.1554 3.86438 22.3026 3.92215 22.4397C3.97991 22.5769 4.06413 22.7013 4.16999 22.806C4.27585 22.9106 4.40128 22.9933 4.53911 23.0495C4.67695 23.1056 4.8245 23.1341 4.97333 23.1332H20.0267C20.1755 23.1341 20.323 23.1056 20.4609 23.0495C20.5987 22.9933 20.7242 22.9106 20.83 22.806C20.9359 22.7013 21.0201 22.5769 21.0779 22.4397C21.1356 22.3026 21.1658 22.1554 21.1667 22.0065V4.92653C21.1658 4.7777 21.1356 4.6305 21.0779 4.49333C21.0201 4.35616 20.9359 4.23171 20.83 4.12709C20.7242 4.02247 20.5987 3.93972 20.4609 3.88358C20.323 3.82743 20.1755 3.79899 20.0267 3.79986ZM8.02667 5.79986C8.02667 5.62305 8.0969 5.45348 8.22193 5.32846C8.34695 5.20344 8.51652 5.1332 8.69333 5.1332H10.9867V4.7132C10.9867 4.30388 11.1493 3.91133 11.4387 3.6219C11.7281 3.33247 12.1207 3.16986 12.53 3.16986C12.9393 3.16986 13.3319 3.33247 13.6213 3.6219C13.9107 3.91133 14.0733 4.30388 14.0733 4.7132V5.16653H16.3667C16.5435 5.16653 16.713 5.23677 16.8381 5.36179C16.9631 5.48682 17.0333 5.65639 17.0333 5.8332V7.0332H8L8.02667 5.79986ZM17.7067 11.9532L11.6267 18.0332L8.13333 14.5399C7.95652 14.3631 7.85719 14.1232 7.85719 13.8732C7.85719 13.6231 7.95652 13.3833 8.13333 13.2065C8.31014 13.0297 8.54995 12.9304 8.8 12.9304C9.05005 12.9304 9.28985 13.0297 9.46667 13.2065L11.64 15.3799L16.4 10.6199C16.5768 10.4431 16.8166 10.3437 17.0667 10.3437C17.3167 10.3437 17.5565 10.4431 17.7333 10.6199C17.9101 10.7967 18.0095 11.0365 18.0095 11.2865C18.0095 11.5366 17.9101 11.7764 17.7333 11.9532H17.7067Z" fill="#582B02"/>
</g>
<defs>
<clipPath id="clip0_3042_18629">
<rect width="24" height="24" fill="white" transform="translate(0.5 0.5)"/>
</clipPath>
</defs>
</svg>
