<svg width="24" height="25" viewBox="0 0 24 25" fill="none" xmlns="http://www.w3.org/2000/svg">
<path d="M9 6C9 5.20435 9.31607 4.44129 9.87868 3.87868C10.4413 3.31607 11.2044 3 12 3C12.7956 3 13.5587 3.31607 14.1213 3.87868C14.6839 4.44129 15 5.20435 15 6C15 6.79565 14.6839 7.55871 14.1213 8.12132C13.5587 8.68393 12.7956 9 12 9C11.2044 9 10.4413 8.68393 9.87868 8.12132C9.31607 7.55871 9 6.79565 9 6ZM18.5 4C17.837 4 17.2011 4.26339 16.7322 4.73223C16.2634 5.20107 16 5.83696 16 6.5C16 7.16304 16.2634 7.79893 16.7322 8.26777C17.2011 8.73661 17.837 9 18.5 9C19.163 9 19.7989 8.73661 20.2678 8.26777C20.7366 7.79893 21 7.16304 21 6.5C21 5.83696 20.7366 5.20107 20.2678 4.73223C19.7989 4.26339 19.163 4 18.5 4ZM5.5 4C4.83696 4 4.20107 4.26339 3.73223 4.73223C3.26339 5.20107 3 5.83696 3 6.5C3 7.16304 3.26339 7.79893 3.73223 8.26777C4.20107 8.73661 4.83696 9 5.5 9C6.16304 9 6.79893 8.73661 7.26777 8.26777C7.73661 7.79893 8 7.16304 8 6.5C8 5.83696 7.73661 5.20107 7.26777 4.73223C6.79893 4.26339 6.16304 4 5.5 4ZM9.625 10C9.06141 10 8.52091 10.2239 8.1224 10.6224C7.72388 11.0209 7.5 11.5614 7.5 12.125V17.5C7.5 18.6935 7.97411 19.8381 8.81802 20.682C9.66193 21.5259 10.8065 22 12 22C13.1935 22 14.3381 21.5259 15.182 20.682C16.0259 19.8381 16.5 18.6935 16.5 17.5V12.125C16.5 11.5614 16.2761 11.0209 15.8776 10.6224C15.4791 10.2239 14.9386 10 14.375 10H9.625ZM6.5 12.125C6.5 11.325 6.801 10.5945 7.296 10.0415C7.15737 10.0139 7.01636 9.99996 6.875 10H4.125C3.56142 10 3.02091 10.2239 2.6224 10.6224C2.22388 11.0209 2 11.5614 2 12.125V17C1.99983 17.6044 2.1562 18.1986 2.45387 18.7246C2.75153 19.2507 3.18036 19.6907 3.69858 20.0018C4.2168 20.3129 4.80675 20.4845 5.41098 20.4998C6.01522 20.5152 6.61313 20.3738 7.1465 20.0895C6.72069 19.2929 6.49859 18.4033 6.5 17.5V12.125ZM17.5 17.5C17.5 18.436 17.266 19.3175 16.8535 20.0895C17.3869 20.3738 17.9848 20.5152 18.589 20.4998C19.1932 20.4845 19.7832 20.3129 20.3014 20.0018C20.8196 19.6907 21.2485 19.2507 21.5461 18.7246C21.8438 18.1986 22.0002 17.6044 22 17V12.125C22 11.5614 21.7761 11.0209 21.3776 10.6224C20.9791 10.2239 20.4386 10 19.875 10H17.125C16.9807 10.0003 16.8403 10.0142 16.704 10.0415C17.2174 10.6139 17.5009 11.3561 17.5 12.125V17.5Z" fill="#582B02"/>
</svg>
