<svg width="14" height="31" viewBox="0 0 14 31" fill="none" xmlns="http://www.w3.org/2000/svg">
<path d="M2.375 5.47901C2.375 4.25238 2.86227 3.07599 3.72963 2.20864C4.59698 1.34128 5.77337 0.854004 7 0.854004C8.22662 0.854004 9.40301 1.34128 10.2704 2.20864C11.1377 3.07599 11.625 4.25238 11.625 5.47901C11.625 6.70563 11.1377 7.88202 10.2704 8.74938C9.40301 9.61673 8.22662 10.104 7 10.104C5.77337 10.104 4.59698 9.61673 3.72963 8.74938C2.86227 7.88202 2.375 6.70563 2.375 5.47901ZM3.33854 11.6457C2.46968 11.6457 1.63641 11.9908 1.02203 12.6052C0.407654 13.2196 0.0625 14.0529 0.0625 14.9217V23.2082C0.0625 25.0481 0.793414 26.8127 2.09445 28.1137C3.39548 29.4148 5.16006 30.1457 7 30.1457C8.83994 30.1457 10.6045 29.4148 11.9055 28.1137C13.2066 26.8127 13.9375 25.0481 13.9375 23.2082V14.9217C13.9375 14.0529 13.5923 13.2196 12.978 12.6052C12.3636 11.9908 11.5303 11.6457 10.6615 11.6457H3.33854Z" fill="white"/>
</svg>
