<svg width="52" height="50" viewBox="0 0 52 50" fill="none" xmlns="http://www.w3.org/2000/svg">
<path d="M18.375 8.47901C18.375 6.45673 19.1783 4.51728 20.6083 3.08732C22.0383 1.65735 23.9777 0.854004 26 0.854004C28.0223 0.854004 29.9617 1.65735 31.3917 3.08732C32.8217 4.51728 33.625 6.45673 33.625 8.47901C33.625 10.5013 32.8217 12.4407 31.3917 13.8707C29.9617 15.3007 28.0223 16.104 26 16.104C23.9777 16.104 22.0383 15.3007 20.6083 13.8707C19.1783 12.4407 18.375 10.5013 18.375 8.47901ZM42.5208 3.39567C40.8356 3.39567 39.2194 4.06513 38.0278 5.25676C36.8361 6.4484 36.1667 8.06461 36.1667 9.74984C36.1667 11.4351 36.8361 13.0513 38.0278 14.2429C39.2194 15.4346 40.8356 16.104 42.5208 16.104C44.2061 16.104 45.8223 15.4346 47.0139 14.2429C48.2055 13.0513 48.875 11.4351 48.875 9.74984C48.875 8.06461 48.2055 6.4484 47.0139 5.25676C45.8223 4.06513 44.2061 3.39567 42.5208 3.39567ZM9.47917 3.39567C7.79394 3.39567 6.17774 4.06513 4.9861 5.25676C3.79446 6.4484 3.12501 8.06461 3.12501 9.74984C3.12501 11.4351 3.79446 13.0513 4.9861 14.2429C6.17774 15.4346 7.79394 16.104 9.47917 16.104C11.1644 16.104 12.7806 15.4346 13.9722 14.2429C15.1639 13.0513 15.8333 11.4351 15.8333 9.74984C15.8333 8.06461 15.1639 6.4484 13.9722 5.25676C12.7806 4.06513 11.1644 3.39567 9.47917 3.39567ZM19.9635 18.6457C18.5311 18.6457 17.1573 19.2147 16.1444 20.2276C15.1315 21.2405 14.5625 22.6143 14.5625 24.0467V37.7082C14.5625 40.7416 15.7675 43.6508 17.9125 45.7957C20.0574 47.9407 22.9666 49.1457 26 49.1457C29.0334 49.1457 31.9426 47.9407 34.0875 45.7957C36.2325 43.6508 37.4375 40.7416 37.4375 37.7082V24.0467C37.4375 22.6143 36.8685 21.2405 35.8556 20.2276C34.8427 19.2147 33.4689 18.6457 32.0365 18.6457H19.9635ZM12.0208 24.0467C12.0208 22.0134 12.7859 20.1567 14.044 18.7512C13.6917 18.6809 13.3332 18.6456 12.974 18.6457H5.98438C4.55194 18.6457 3.17816 19.2147 2.16527 20.2276C1.15238 21.2405 0.583344 22.6143 0.583344 24.0467V36.4373C0.582919 37.9736 0.980345 39.4838 1.73692 40.8208C2.49349 42.1579 3.58342 43.2762 4.90056 44.0669C6.21771 44.8576 7.71717 45.2937 9.25292 45.3328C10.7887 45.3718 12.3084 45.0125 13.664 44.2898C12.5818 42.2651 12.0173 40.004 12.0208 37.7082V24.0467ZM39.9792 37.7082C39.9792 40.0872 39.3844 42.3277 38.336 44.2898C39.6916 45.0125 41.2113 45.3718 42.7471 45.3328C44.2828 45.2937 45.7823 44.8576 47.0994 44.0669C48.4166 43.2762 49.5065 42.1579 50.2631 40.8208C51.0197 39.4838 51.4171 37.9736 51.4167 36.4373V24.0467C51.4167 22.6143 50.8476 21.2405 49.8347 20.2276C48.8218 19.2147 47.4481 18.6457 46.0156 18.6457H39.026C38.6592 18.6465 38.3025 18.6817 37.956 18.7512C39.2609 20.2061 39.9815 22.0923 39.9792 24.0467V37.7082Z" fill="#582B02"/>
</svg>
