<svg width="24" height="25" viewBox="0 0 24 25" fill="none" xmlns="http://www.w3.org/2000/svg">
<path fill-rule="evenodd" clip-rule="evenodd" d="M6 3.5C6 2.70435 6.31607 1.94129 6.87868 1.37868C7.44129 0.816071 8.20435 0.5 9 0.5L21 0.5C21.7956 0.5 22.5587 0.816071 23.1213 1.37868C23.6839 1.94129 24 2.70435 24 3.5V15.5C24 16.2956 23.6839 17.0587 23.1213 17.6213C22.5587 18.1839 21.7956 18.5 21 18.5H9C8.20435 18.5 7.44129 18.1839 6.87868 17.6213C6.31607 17.0587 6 16.2956 6 15.5V3.5ZM9 2C8.60218 2 8.22064 2.15804 7.93934 2.43934C7.65804 2.72064 7.5 3.10218 7.5 3.5V15.5C7.5 15.8978 7.65804 16.2794 7.93934 16.5607C8.22064 16.842 8.60218 17 9 17H21C21.3978 17 21.7794 16.842 22.0607 16.5607C22.342 16.2794 22.5 15.8978 22.5 15.5V3.5C22.5 3.10218 22.342 2.72064 22.0607 2.43934C21.7794 2.15804 21.3978 2 21 2H9ZM3 8C2.60218 8 2.22064 8.15804 1.93934 8.43934C1.65804 8.72064 1.5 9.10218 1.5 9.5V21.5C1.5 21.8978 1.65804 22.2794 1.93934 22.5607C2.22064 22.842 2.60218 23 3 23H15C15.3978 23 15.7794 22.842 16.0607 22.5607C16.342 22.2794 16.5 21.8978 16.5 21.5V20H18V21.5C18 22.2956 17.6839 23.0587 17.1213 23.6213C16.5587 24.1839 15.7956 24.5 15 24.5H3C2.20435 24.5 1.44129 24.1839 0.87868 23.6213C0.316071 23.0587 0 22.2956 0 21.5V9.5C0 8.70435 0.316071 7.94129 0.87868 7.37868C1.44129 6.81607 2.20435 6.5 3 6.5H4.5V8H3Z" fill="#FF7B06"/>
</svg>
