<svg width="176" height="276" viewBox="0 0 176 276" fill="none" xmlns="http://www.w3.org/2000/svg">
<g clip-path="url(#clip0_3556_17294)">
<path d="M123.119 89.7173L47.5639 181.496C46.4056 182.899 46.588 184.991 47.9652 186.172C49.3424 187.352 51.3945 187.166 52.5528 185.763L128.108 93.9841L123.119 89.7173Z" fill="#BD8435"/>
<path d="M128.318 94.1607L52.7626 185.939C51.5131 187.454 49.2877 187.659 47.7919 186.385C46.3053 185.112 46.1046 182.844 47.3541 181.319L122.909 89.5406C123.009 89.4198 123.174 89.4105 123.292 89.5035L128.281 93.7703C128.4 93.8725 128.409 94.0399 128.318 94.1607ZM47.7737 181.672C46.7157 182.955 46.8799 184.879 48.1385 185.958C49.3971 187.036 51.2851 186.869 52.3431 185.586L127.725 94.0213L123.155 90.1077L47.7737 181.672Z" fill="#8B580E"/>
<g style="mix-blend-mode:screen">
<path d="M61.7191 167.022C62.4396 165.618 62.8409 164.094 63.2422 162.569C63.2696 162.467 63.0415 162.486 63.0142 162.569C62.4943 164.224 61.9197 165.814 61.0898 167.338C60.2142 168.937 59.6122 170.545 58.0708 171.624C56.7939 172.516 55.5353 173.613 54.1307 174.292C52.9907 174.849 52.0968 175.723 51.3398 176.746C51.2669 176.839 51.4858 176.848 51.5405 176.801C52.2063 176.076 52.8265 175.398 53.6656 174.868C54.2767 174.477 54.9607 174.189 55.59 173.799C56.9216 172.972 58.3718 172.098 59.4936 170.991C60.5699 169.932 61.0533 168.342 61.7282 167.022H61.7191Z" fill="#BD8435"/>
</g>
<g style="mix-blend-mode:screen">
<path d="M63.1966 167.152C64.4187 164.837 65.3764 162.495 65.8416 159.892C65.8689 159.743 65.5588 159.78 65.5314 159.892C64.9751 162.439 63.9627 164.81 62.6767 167.059C61.3269 169.42 59.8311 172.005 57.8884 173.901C56.0643 175.686 53.8389 176.931 51.7867 178.4C49.8623 179.776 48.5124 181.747 46.6792 183.206C46.5424 183.308 46.8069 183.373 46.889 183.318C48.932 181.886 50.3548 179.748 52.4434 178.317C54.5959 176.848 56.8122 175.574 58.7001 173.734C60.5151 171.958 62.0018 169.365 63.1966 167.124V167.152Z" fill="#BD8435"/>
</g>
<g style="mix-blend-mode:screen">
<path d="M64.1451 168.714C64.4552 166.948 65.9419 165.163 66.7719 163.61C67.6201 162.021 68.4957 160.45 69.1797 158.777C69.9641 156.88 70.712 155.068 71.7791 153.32C72.7732 151.693 73.7309 150.038 74.7524 148.43C74.8436 148.291 74.5426 148.3 74.4697 148.384C73.4025 149.722 72.5087 151.377 71.6149 152.846C70.6937 154.342 69.9002 155.83 69.2435 157.466C68.4592 159.418 67.5471 161.24 66.5712 163.099C65.6956 164.754 64.6012 166.325 63.8077 168.017C63.5523 168.565 63.452 169.188 63.2696 169.764C62.9595 170.731 62.1842 171.67 61.5823 172.46C60.2233 174.208 58.5907 175.779 56.9946 177.303C55.3894 178.828 53.6929 180.12 51.8597 181.347C50.3548 182.36 48.9046 183.467 47.7828 184.926C47.6916 185.038 47.9652 185.056 48.0291 184.991C50.8291 182.063 54.5229 180.259 57.478 177.489C58.8826 176.179 60.3145 174.793 61.5367 173.306C62.6494 171.958 63.835 170.508 64.1451 168.723V168.714Z" fill="#BD8435"/>
</g>
<g style="mix-blend-mode:screen">
<path d="M69.5901 161.268C70.4566 160.161 71.2044 158.888 71.9797 157.717C73.6944 155.123 75.3999 152.529 77.1328 149.936C78.6469 147.677 80.1974 145.381 81.5016 142.983C82.2039 141.69 82.8423 140.361 83.5993 139.088C84.1466 138.167 84.7394 137.312 85.086 136.28C85.1225 136.159 84.8488 136.187 84.8124 136.28C83.9915 138.446 82.514 140.435 81.4378 142.49C80.2612 144.749 78.8293 146.896 77.4338 149.025C76.0292 151.182 74.5426 153.292 73.1471 155.448C72.381 156.638 71.5966 157.81 70.7758 158.962C70.6481 159.148 70.2833 159.771 69.9002 160.338C70.2377 159.548 70.493 158.683 70.8944 158.005C71.8247 156.452 72.5269 154.733 73.439 153.162C74.2963 151.674 75.0351 150.103 75.8833 148.616C76.3302 147.826 76.6312 147.063 77.1876 146.329C77.4885 145.929 77.7895 145.446 77.9172 144.963C77.9446 144.851 77.6983 144.879 77.671 144.963C77.297 146.162 76.1661 147.026 75.6735 148.188C74.953 149.871 73.8768 151.507 72.9647 153.087C72.1348 154.528 71.3413 155.988 70.5934 157.475C70.2924 158.07 69.9458 158.618 69.6813 159.232C69.3712 159.948 69.1341 160.886 68.6781 161.509C68.5504 161.677 68.8513 161.732 68.9517 161.705C69.28 161.639 69.3895 161.5 69.5901 161.24V161.268Z" fill="#BD8435"/>
</g>
<g style="mix-blend-mode:screen">
<path d="M74.7159 156.574C75.628 155.505 76.2938 154.277 77.0508 153.097C78.0176 151.6 79.0573 150.159 80.0332 148.672C81.8208 145.958 83.645 143.345 85.1681 140.464C86.6091 137.749 87.9681 134.961 89.3271 132.2C89.3909 132.07 89.1355 132.079 89.0899 132.163C86.2078 137.675 83.2254 143.02 79.7322 148.151C78.8384 149.471 77.9628 150.792 77.0781 152.121C76.1205 153.562 75.3179 155.105 74.2416 156.453C72.1713 159.018 70.1009 161.649 68.596 164.615C68.5413 164.717 68.751 164.707 68.7966 164.642C70.6299 161.835 72.5452 159.111 74.725 156.574H74.7159Z" fill="#BD8435"/>
</g>
<g style="mix-blend-mode:screen">
<path d="M87.4482 139.711C88.3968 137.926 89.4456 136.169 90.4398 134.421C91.3062 132.887 92.0268 131.158 92.7382 129.541C93.5773 127.635 94.4802 125.776 95.4105 123.907C95.447 123.833 95.2919 123.833 95.2646 123.889C91.4886 130.666 88.1505 137.693 84.712 144.647C84.6664 144.74 84.8489 144.73 84.8853 144.675C85.8521 143.085 86.5818 141.365 87.4573 139.72L87.4482 139.711Z" fill="#BD8435"/>
</g>
<g style="mix-blend-mode:screen">
<path d="M97.5812 123.666C98.8581 121.267 100.482 119.036 101.248 116.396C101.275 116.303 101.065 116.322 101.038 116.396C100.089 118.999 98.3474 121.175 97.0066 123.573C95.5838 126.12 94.1975 128.667 92.9753 131.326C92.9115 131.456 93.1669 131.447 93.2125 131.363C94.7538 128.853 96.1949 126.269 97.5903 123.666H97.5812Z" fill="#BD8435"/>
</g>
<g style="mix-blend-mode:screen">
<path d="M96.3682 128.546C97.2711 127.171 98.2926 125.823 99.3233 124.54C101.394 121.946 103.555 119.455 105.699 116.917C107.869 114.342 109.329 111.312 111.18 108.514C113.123 105.586 115.43 102.983 117.61 100.24C117.701 100.129 117.418 100.101 117.355 100.175C115.138 102.741 112.785 105.176 110.843 107.965C108.918 110.726 107.431 113.785 105.334 116.425C104.257 117.782 103.054 119.027 101.959 120.366C100.974 121.556 100.108 122.848 99.15 124.066C97.1343 126.613 95.6203 129.383 93.9147 132.125C93.8509 132.237 94.0789 132.228 94.1336 132.163C94.9545 131.001 95.5929 129.727 96.3773 128.546H96.3682Z" fill="#BD8435"/>
</g>
<g style="mix-blend-mode:screen">
<path d="M100.728 125.237C101.968 123.48 103.218 121.751 104.431 119.975C105.197 118.851 106.264 117.986 107.14 116.964C107.796 116.201 108.353 115.346 108.973 114.547C109.037 114.472 108.845 114.463 108.8 114.519C108.043 115.42 107.34 116.35 106.538 117.215C105.817 117.995 104.969 118.646 104.303 119.492C102.953 121.184 101.877 123.08 100.555 124.791C99.3141 126.399 98.4203 128.258 97.1617 129.857C95.7115 131.707 94.389 133.622 93.0574 135.555C92.9844 135.667 93.2307 135.667 93.2854 135.593C95.7936 132.153 98.2835 128.723 100.737 125.246L100.728 125.237Z" fill="#BD8435"/>
</g>
<g style="mix-blend-mode:screen">
<path d="M109.721 108.42C111.162 106.673 112.202 104.646 113.132 102.592C113.168 102.508 113.013 102.518 112.986 102.573C111.928 104.618 110.742 106.58 109.301 108.365C107.815 110.205 106.255 111.953 104.896 113.896C104.841 113.979 105.024 113.979 105.069 113.924C106.556 112.037 108.198 110.289 109.73 108.439L109.721 108.42Z" fill="#BD8435"/>
</g>
<g style="mix-blend-mode:screen">
<path d="M116.862 105.214C116.926 105.093 116.68 105.093 116.625 105.176C116.278 105.781 115.841 106.311 115.403 106.85C115.312 106.961 115.585 106.989 115.649 106.915C116.105 106.385 116.525 105.827 116.853 105.214H116.862Z" fill="#BD8435"/>
</g>
<g style="mix-blend-mode:multiply">
<path d="M123.119 89.7173L114.628 100.026C114.938 101.17 115.822 102.155 115.795 103.419C115.768 104.842 115.184 106.097 114.29 107.184C111.618 110.438 108.672 113.478 105.872 116.62C102.899 119.966 100.153 123.48 97.3532 126.975C91.7075 134.04 85.8886 140.956 80.0332 147.835C74.1595 154.733 68.2494 161.603 62.4578 168.574C59.5848 172.033 56.8304 175.574 54.0578 179.116C52.1789 181.514 49.917 183.773 48.0838 186.274C49.461 187.343 51.4219 187.129 52.5437 185.772L128.099 93.9934L123.11 89.7266L123.119 89.7173Z" fill="#BD8435"/>
</g>
<g style="mix-blend-mode:screen">
<path d="M58.4174 170.136C61.5002 166.641 64.5008 163.108 67.3829 159.436C69.8729 156.266 72.4084 153.124 75.3817 150.419C82.6143 141.607 89.9564 132.906 97.417 124.279C104.932 115.597 111.226 105.957 117.619 96.4102L47.573 181.496C47.0805 182.091 46.8343 182.806 46.816 183.522C50.3639 178.809 54.4955 174.579 58.4265 170.136H58.4174Z" fill="#BD8435"/>
</g>
<path d="M167.308 72.1762L137.101 46.3428C136.07 45.4597 135.933 43.8887 136.8 42.8383C137.666 41.7879 139.208 41.6484 140.238 42.5315L170.446 68.3648C171.476 69.248 171.613 70.819 170.747 71.8694C169.88 72.9198 168.339 73.0593 167.308 72.1762Z" fill="#BD8435"/>
<path d="M170.947 72.046C169.99 73.2173 168.275 73.366 167.126 72.3899L136.918 46.5566C135.769 45.5806 135.623 43.8329 136.581 42.6616C137.538 41.4904 139.253 41.3416 140.402 42.3177L170.61 68.151C171.759 69.1271 171.905 70.8747 170.947 72.046ZM137 43.0149C136.234 43.9538 136.353 45.3482 137.265 46.129L167.472 71.9623C168.393 72.7432 169.762 72.6223 170.528 71.6927C171.294 70.7632 171.175 69.3595 170.263 68.5786L140.056 42.7453C139.135 41.9644 137.767 42.0853 137 43.0149Z" fill="#8B2D08"/>
<g style="mix-blend-mode:screen">
<path d="M171.303 70.3726C171.33 69.629 171.048 68.876 170.446 68.3647L140.238 42.5314C139.636 42.0201 138.861 41.8621 138.15 42.0201L171.303 70.3726Z" fill="#BD8435"/>
</g>
<g style="mix-blend-mode:multiply">
<path d="M170.446 68.3551L170.172 68.1134C164.244 68.0483 158.461 63.4283 154.165 59.9051C150.918 57.2465 147.772 54.3555 145.227 50.9718C143.585 48.7872 141.688 46.1937 141.251 43.377L140.238 42.5125C139.208 41.6294 137.666 41.7688 136.8 42.8192C135.933 43.8697 136.07 45.4407 137.101 46.3238L167.308 72.1571C168.339 73.0402 169.88 72.9008 170.747 71.8504C171.613 70.7999 171.476 69.2289 170.446 68.3458V68.3551Z" fill="#BD8435"/>
</g>
<path d="M175.334 68.9966C176.064 67.8439 175.745 66.3008 174.605 65.5571C173.474 64.8134 171.96 65.1388 171.23 66.3008C167.773 71.7575 151.201 91.4648 137.438 92.7941C133.307 93.1938 129.877 91.8738 126.968 88.7597C120.155 81.4717 124.441 69.2569 129.248 60.2956C134.757 50.0143 142.217 41.5179 142.29 41.4342C143.193 40.4117 143.111 38.8407 142.108 37.9204C141.114 37.0001 139.563 37.0837 138.66 38.1063C137.402 39.5286 109.237 71.776 121.687 90.0146L115.038 98.0928C115.038 98.0928 116.935 101.523 121.55 103.661L128.008 95.8153C130.953 97.442 134.264 98.0928 137.894 97.7488C154.795 96.1313 172.534 73.4121 175.334 69.0059V68.9966Z" fill="url(#paint0_linear_3556_17294)"/>
<path d="M171.403 74.6858C165.995 81.258 151.913 96.6799 137.931 98.0185C134.346 98.3625 131.036 97.7397 128.09 96.1593L121.769 103.828C121.687 103.921 121.559 103.959 121.45 103.903C116.807 101.746 114.892 98.3625 114.81 98.2137C114.755 98.1115 114.764 97.9906 114.837 97.8977L121.359 89.9776C110.651 73.8957 130.543 47.4767 136.909 39.7425C137.757 38.7107 138.314 38.0692 138.469 37.9019C138.952 37.3535 139.618 37.0281 140.348 36.9909C141.068 36.9537 141.761 37.2047 142.299 37.6974C143.394 38.7014 143.503 40.3839 142.564 41.5273L142.5 41.6017C142.455 41.6575 142.008 42.1687 141.278 43.0518C139.135 45.6454 133.708 52.543 129.494 60.4073C124.733 69.2849 120.465 81.3789 127.168 88.546C130.014 91.5951 133.37 92.8872 137.42 92.4968C147.225 91.5579 159.318 80.7839 167.363 71.0139C168.904 69.1362 170.236 67.3606 171.011 66.1336C171.832 64.8414 173.519 64.4975 174.76 65.3155C175.371 65.7153 175.79 66.3288 175.936 67.0539C176.091 67.779 175.954 68.5226 175.562 69.1455C174.924 70.1587 173.492 72.1387 171.403 74.6765V74.6858ZM121.477 103.317L127.807 95.6295C127.889 95.5272 128.026 95.4993 128.144 95.5644C131.045 97.1633 134.319 97.8047 137.876 97.4608C142.464 97.0239 154.886 93.8819 170.984 74.3233C173.063 71.8041 174.477 69.8426 175.106 68.848C175.425 68.346 175.526 67.7604 175.407 67.1747C175.289 66.5984 174.951 66.1057 174.468 65.7896C173.474 65.1296 172.124 65.4085 171.467 66.4496C170.683 67.6953 169.333 69.4894 167.773 71.3858C159.665 81.2394 147.443 92.1063 137.466 93.0638C133.243 93.4728 129.74 92.1249 126.776 88.9457C119.845 81.5369 124.168 69.2012 129.011 60.1563C133.252 52.2455 138.706 45.32 140.858 42.7079C141.588 41.8155 142.044 41.3042 142.09 41.2484L142.144 41.1834C142.901 40.2631 142.81 38.9245 141.935 38.1157C141.506 37.716 140.95 37.5208 140.375 37.5487C139.791 37.5766 139.262 37.8368 138.87 38.2738C138.715 38.4411 138.159 39.0825 137.32 40.105C134.611 43.3958 127.825 52.0968 123.301 61.8203C117.783 73.6819 117.318 83.1079 121.915 89.8474C121.988 89.9497 121.979 90.0891 121.897 90.1821L115.375 98.1115C115.804 98.7901 117.692 101.504 121.477 103.317Z" fill="#444444"/>
<g style="mix-blend-mode:screen">
<path d="M115.649 98.9759C116.215 98.1858 116.78 97.3863 117.364 96.6055C118.476 95.1181 119.717 93.324 121.277 92.2829C122.052 91.7623 122.845 91.5764 123.657 92.1434C124.168 92.506 124.66 92.8685 125.153 93.2125C123.329 91.0558 121.842 88.6296 120.976 85.8966C119.462 81.1185 119.817 76.0987 121.158 71.3206C122.964 64.8971 126.047 59.1244 129.558 53.519C133.115 47.8577 137.073 42.4661 141.579 37.5486C140.621 37.0466 139.417 37.2325 138.66 38.0878C137.402 39.51 109.237 71.7575 121.687 89.9961L115.038 98.0742C115.038 98.0742 115.23 98.4275 115.64 98.9666L115.649 98.9759Z" fill="url(#paint1_linear_3556_17294)"/>
</g>
<g style="mix-blend-mode:screen">
<path d="M132.495 92.3389C134.903 93.2221 137.648 93.4359 140.038 93.2407C145.026 92.8316 149.432 90.1637 153.344 87.1518C161.325 81.0072 168.457 73.7285 174.03 65.2879C172.999 64.9439 171.841 65.3251 171.23 66.2918C167.773 71.7485 151.201 91.4558 137.438 92.7851C135.669 92.9525 134.027 92.8037 132.495 92.3389Z" fill="url(#paint2_linear_3556_17294)"/>
</g>
<g style="mix-blend-mode:multiply">
<path d="M140.95 38.4599C141.314 39.4731 140.913 40.6351 140.348 41.4996C139.417 42.9405 138.241 44.2419 137.192 45.5805C133.79 49.9403 130.47 54.4024 127.834 59.3013C124.377 65.6969 121.559 73.6728 123.502 80.6447C122.909 74.0818 125.955 66.422 129.248 60.2867C134.757 50.0054 142.217 41.5089 142.29 41.4253C143.193 40.4027 143.111 38.8317 142.108 37.9114C141.305 37.1678 140.147 37.0934 139.253 37.614C139.864 37.5954 140.712 37.7999 140.94 38.4506L140.95 38.4599Z" fill="url(#paint3_linear_3556_17294)"/>
</g>
<g style="mix-blend-mode:multiply">
<path d="M175.334 68.9966C176.064 67.8439 175.745 66.3007 174.605 65.5571C173.474 64.8134 171.96 65.1388 171.23 66.3007C170.892 66.8399 170.418 67.5185 169.835 68.3087C170.291 68.0019 170.783 67.7974 171.294 67.8718C172.069 67.9926 172.069 69.229 171.878 69.7774C171.458 71.0324 170.601 72.1107 169.771 73.1053C168.804 74.258 167.864 75.4572 166.861 76.5727C164.234 79.5009 161.416 82.3176 158.461 84.9018C153.235 89.4754 146.896 94.142 139.919 95.2296C134.62 96.0662 129.038 94.8578 124.824 91.3625C122.015 89.0385 120.027 86.0267 118.814 82.6801C119.243 85.283 120.155 87.7557 121.696 90.0146L115.047 98.0927C115.047 98.0927 116.944 101.523 121.559 103.661L128.017 95.8152C130.963 97.442 134.273 98.0927 137.903 97.7488C154.804 96.1313 172.543 73.4121 175.343 69.0059L175.334 68.9966Z" fill="url(#paint4_linear_3556_17294)"/>
</g>
<g style="mix-blend-mode:multiply">
<path d="M175.334 68.9966C176.064 67.8439 175.745 66.3007 174.605 65.5571C173.474 64.8134 171.96 65.1388 171.23 66.3007C170.892 66.8399 170.418 67.5185 169.834 68.3087C170.291 68.0019 170.783 67.7974 171.294 67.8718C172.069 67.9926 172.069 69.229 171.878 69.7774C171.458 71.0324 170.601 72.1107 169.771 73.1053C168.804 74.258 167.864 75.4572 166.861 76.5727C164.234 79.5009 161.416 82.3176 158.461 84.9018C153.235 89.4754 146.896 94.142 139.919 95.2296C134.62 96.0662 129.038 94.8578 124.824 91.3625C123.557 90.3121 122.471 89.1222 121.532 87.8301C121.942 88.5551 122.426 89.243 122.955 89.8938C123.83 90.9721 125.226 92.069 125.718 93.4076C126.056 94.3279 125.691 95.1366 125.171 95.9175C124.186 97.377 123.283 99.0409 122.061 100.305C120.638 101.774 119.015 101.755 117.391 100.882C118.413 101.82 119.781 102.843 121.568 103.661L128.026 95.8152C130.972 97.442 134.282 98.0927 137.912 97.7488C154.813 96.1313 172.552 73.4121 175.352 69.0059L175.334 68.9966Z" fill="url(#paint5_linear_3556_17294)"/>
</g>
<path d="M135.888 42.9959C135.532 43.4235 134.903 43.4793 134.483 43.1167C134.064 42.7542 134.009 42.1221 134.365 41.6852L135.386 40.4395C135.742 40.0119 136.371 39.9561 136.791 40.3187C137.21 40.6812 137.265 41.3226 136.909 41.7502L135.888 42.9959Z" fill="#BD8435"/>
<path d="M137.119 41.9268L136.097 43.1725C135.651 43.721 134.848 43.786 134.31 43.3305C133.772 42.875 133.708 42.057 134.155 41.5085L135.176 40.2629C135.623 39.7144 136.426 39.6493 136.964 40.1048C137.502 40.5603 137.566 41.3784 137.119 41.9268ZM134.565 41.8711C134.31 42.1871 134.346 42.6519 134.656 42.9122C134.966 43.1725 135.423 43.1353 135.678 42.8192L136.699 41.5736C136.955 41.2668 136.918 40.7927 136.608 40.5325C136.298 40.2722 135.842 40.3094 135.587 40.6254L134.565 41.8711Z" fill="#8B2D08"/>
<path d="M172.589 74.3885C172.233 74.8161 171.604 74.8719 171.184 74.5093C170.765 74.1468 170.71 73.5147 171.066 73.0778L172.087 71.8321C172.443 71.4045 173.063 71.3487 173.492 71.7113C173.911 72.0738 173.966 72.7059 173.61 73.1428L172.589 74.3885Z" fill="#BD8435"/>
<path d="M173.82 73.3194L172.799 74.5651C172.352 75.1135 171.549 75.1786 171.011 74.7231C170.473 74.2676 170.409 73.4496 170.856 72.9011L171.878 71.6555C172.324 71.107 173.127 71.0419 173.665 71.4974C174.203 71.9529 174.267 72.771 173.82 73.3194ZM171.276 73.2636C171.02 73.5797 171.057 74.0445 171.367 74.3048C171.677 74.5651 172.133 74.5279 172.388 74.2118L173.41 72.9662C173.665 72.6594 173.629 72.1853 173.319 71.925C173.009 71.6647 172.552 71.7019 172.297 72.018L171.276 73.2636Z" fill="#8B2D08"/>
<path d="M122.718 98.4834C122.015 99.3293 120.775 99.4409 119.945 98.7344C119.115 98.0186 119.005 96.7544 119.699 95.9084C120.401 95.0625 121.641 94.951 122.471 95.6575C123.301 96.3732 123.411 97.6375 122.718 98.4834Z" fill="#4B4B4B"/>
<path d="M122.927 98.6599C122.134 99.6267 120.72 99.7475 119.772 98.9388C118.823 98.13 118.704 96.6891 119.498 95.7224C120.291 94.7556 121.705 94.6348 122.654 95.4435C123.602 96.2522 123.721 97.6931 122.927 98.6599ZM119.918 96.0849C119.316 96.8193 119.407 97.9069 120.127 98.5204C120.839 99.134 121.915 99.041 122.517 98.3066C123.119 97.5723 123.028 96.4846 122.307 95.8711C121.587 95.2576 120.519 95.3505 119.918 96.0849Z" fill="#1F1F1F"/>
<path d="M121.678 96.8751C121.422 97.1819 120.976 97.219 120.675 96.968C120.374 96.7171 120.337 96.2523 120.583 95.9455C120.839 95.6387 121.286 95.6015 121.587 95.8525C121.888 96.1035 121.924 96.5683 121.678 96.8751Z" fill="url(#paint6_linear_3556_17294)"/>
<path d="M71.8338 202.792C66.9817 198.944 62.1569 193.459 59.3568 190.066L54.8877 184.777L60.0682 178.493C59.5666 177.099 57.2773 175.016 57.2773 175.016C54.8057 173.008 52.8447 172.925 52.8447 172.925L47.9379 178.893L42.2557 175.444C38.4889 173.222 32.3508 169.337 27.7905 165.135C27.7905 165.135 1.4867 191.833 0.428716 202.876C-0.620152 213.92 3.73037 231.229 3.73037 231.229C3.73037 231.229 4.32321 233.525 5.63657 235.337C5.88283 235.737 6.20205 236.09 6.56687 236.397C6.57599 236.406 6.59423 236.425 6.60335 236.434C6.62159 236.444 6.63072 236.462 6.64896 236.472C7.00466 236.788 7.40597 237.048 7.83463 237.225C9.8138 238.228 12.1396 238.424 12.1396 238.424C12.1396 238.424 29.6237 239.79 40.1124 236.815C50.6011 233.841 71.8247 202.802 71.8247 202.802L71.8338 202.792Z" fill="url(#paint7_linear_3556_17294)"/>
<path d="M59.3842 219.767C50.9294 230.039 44.472 235.858 40.1945 237.076C29.7788 240.032 12.3037 238.712 12.1304 238.693C12.0301 238.693 9.73171 238.479 7.72518 237.466C7.30563 237.299 6.87696 237.029 6.47566 236.676L6.59422 236.416L6.42093 236.63C6.42093 236.63 6.38445 236.592 6.37533 236.592C5.98314 236.267 5.64568 235.886 5.39943 235.477C4.08606 233.664 3.4841 231.387 3.45674 231.294C3.41114 231.117 -0.9029 213.808 0.145967 202.839C0.574635 198.34 5.08021 190.847 13.535 180.575C20.421 172.209 27.5077 165.005 27.5807 164.93C27.681 164.828 27.8452 164.819 27.9546 164.93C32.6061 169.216 38.9814 173.213 42.3743 175.202L47.8649 178.53L52.6258 172.748C52.6806 172.683 52.7626 172.646 52.8447 172.646C52.9268 172.646 54.9151 172.757 57.4324 174.793C57.5418 174.886 59.7855 176.95 60.3054 178.391C60.3419 178.484 60.3236 178.586 60.2598 178.66L55.2343 184.768L59.5575 189.871C62.0748 192.93 67.0455 198.637 71.9888 202.56C72.0983 202.653 72.1256 202.82 72.0436 202.932C71.9888 203.016 66.252 211.382 59.3659 219.748L59.3842 219.767ZM13.9728 180.929C5.70953 190.968 1.12187 198.563 0.702323 202.895C-0.328303 213.762 3.95837 230.987 3.99486 231.154C3.99486 231.173 4.59681 233.423 5.85546 235.17C6.08347 235.542 6.38445 235.877 6.74015 236.183L6.78576 236.221L6.83136 236.258C7.18706 236.565 7.56101 236.806 7.94407 236.964C9.86852 237.94 12.1487 238.145 12.1669 238.145C12.3402 238.154 29.724 239.474 40.0485 236.546C44.1528 235.384 50.7014 229.453 58.9646 219.414C65.2214 211.81 70.5295 204.215 71.469 202.848C66.5439 198.898 61.6552 193.274 59.1562 190.243L54.6871 184.963C54.5959 184.861 54.5959 184.712 54.6871 184.6L59.7581 178.437C59.1835 177.127 57.1223 175.23 57.104 175.212C55.0975 173.585 53.4376 173.269 52.9724 173.204L48.1567 179.051C48.0747 179.153 47.9287 179.181 47.8102 179.107L42.128 175.658C38.7717 173.678 32.4785 169.746 27.8087 165.488C26.6595 166.669 20.2295 173.315 13.9728 180.91V180.929Z" fill="#444444"/>
<g style="mix-blend-mode:multiply">
<path d="M71.8338 202.793C66.9816 198.944 62.1568 193.459 59.3568 190.066L54.8877 184.777L60.0682 178.493C59.5666 177.099 57.2773 175.016 57.2773 175.016C55.1613 173.297 53.4193 172.99 52.9724 172.934C54.8968 173.566 58.0343 175.128 56.1555 177.015C56.0369 177.127 55.9092 177.136 55.7724 177.052C54.3405 176.095 52.3157 176.076 51.2577 177.638C50.2089 179.19 50.9294 180.771 52.4434 181.616C52.6076 181.709 52.6441 181.895 52.5346 182.044C49.9079 185.846 46.6427 189.007 43.6055 192.455C41.0427 195.365 38.726 198.581 35.4973 200.775C35.2967 200.915 35.0504 200.738 35.0778 200.506C35.4244 197.159 37.5677 194.203 39.3371 191.461C41.2251 188.542 42.9945 185.539 45.0192 182.723C41.2889 186.395 38.8172 191.377 35.5065 195.393C33.2719 198.117 31.0283 200.84 28.9305 203.676C27.8269 205.172 26.6413 206.669 25.7292 208.305C25.0087 209.597 23.595 213.064 26.5227 212.442C28.5201 212.014 30.2895 210.768 32.0042 209.69C33.7188 208.621 35.4153 207.487 37.1482 206.437C38.5983 205.563 40.2036 204.642 41.9365 204.782C42.1189 204.8 42.1919 205.014 42.1371 205.172C40.8511 208.63 38.1058 211.252 35.7801 213.994C32.9162 217.368 29.9247 220.659 26.7507 223.727C23.0751 227.297 18.1865 231.47 12.8418 231.712C6.6398 231.991 4.7792 225.67 3.67561 220.557C2.17983 213.65 1.59612 205.907 4.02219 199.149C5.24435 195.746 7.05935 192.669 8.98379 189.639C11.3551 185.893 13.8815 182.258 16.5721 178.744C20.1474 174.068 23.9598 169.578 27.909 165.228C27.8634 165.191 27.8269 165.153 27.7813 165.116C27.7813 165.116 1.47755 191.814 0.41956 202.858C-0.629307 213.901 3.72121 231.21 3.72121 231.21C3.72121 231.21 4.31405 233.506 5.62742 235.319C5.87367 235.719 6.19289 236.072 6.55772 236.379C6.56684 236.388 6.58508 236.406 6.5942 236.416C6.61244 236.425 6.62156 236.444 6.6398 236.453C6.9955 236.769 7.39681 237.029 7.82548 237.206C9.80465 238.21 12.1304 238.405 12.1304 238.405C12.1304 238.405 29.6146 239.772 40.1032 236.797C50.5919 233.822 71.8155 202.783 71.8155 202.783L71.8338 202.793Z" fill="url(#paint8_linear_3556_17294)"/>
</g>
<g style="mix-blend-mode:multiply">
<path d="M71.8338 202.793C66.9816 198.944 62.1568 193.46 59.3568 190.067L54.8877 184.777L60.0682 178.493C59.9861 178.27 59.8493 178.019 59.6943 177.768C56.119 181.607 52.8812 185.763 49.3242 189.62C48.2571 190.773 47.1808 191.907 46.0955 193.032C47.5365 191.842 49.0141 190.643 50.601 189.685C51.3581 189.23 52.1059 188.877 52.9998 189.1C54.377 189.434 55.6265 190.801 56.6206 191.712C58.1529 193.125 59.4936 194.687 60.9438 196.193C62.777 198.108 65.5041 200.385 64.8018 203.406C64.1086 206.399 61.7099 208.835 59.8128 211.094C56.9125 214.543 53.8297 217.815 50.674 221.022C45.375 226.404 39.9573 231.731 32.9253 234.678C26.1031 237.541 19.0985 238.015 11.8203 237.727C10.7258 237.68 9.63136 237.624 8.52777 237.522C10.3245 238.257 12.1486 238.415 12.1486 238.415C12.1486 238.415 29.6328 239.781 40.1215 236.806C50.6102 233.832 71.8338 202.793 71.8338 202.793Z" fill="url(#paint9_linear_3556_17294)"/>
</g>
<path d="M55.2161 180.139C54.5138 180.985 53.2734 181.096 52.4434 180.39C51.6134 179.674 51.504 178.41 52.1972 177.564C52.8994 176.718 54.1398 176.606 54.9698 177.313C55.7998 178.029 55.9092 179.293 55.2161 180.139Z" fill="#4B4B4B"/>
<path d="M55.4258 180.315C54.6323 181.282 53.2186 181.403 52.2701 180.594C51.3216 179.785 51.203 178.344 51.9965 177.378C52.79 176.411 54.2037 176.29 55.1522 177.099C56.1008 177.908 56.2193 179.348 55.4258 180.315ZM52.416 177.74C51.8141 178.475 51.9053 179.562 52.6258 180.176C53.3372 180.789 54.4134 180.696 55.0154 179.962C55.6174 179.228 55.5262 178.14 54.8056 177.526C54.0851 176.913 53.018 177.006 52.416 177.74Z" fill="#1F1F1F"/>
<path d="M54.1763 178.53C53.9209 178.837 53.474 178.874 53.173 178.623C52.8721 178.363 52.8356 177.908 53.0818 177.601C53.3281 177.294 53.7841 177.257 54.0851 177.508C54.3861 177.768 54.4226 178.224 54.1763 178.53Z" fill="url(#paint10_linear_3556_17294)"/>
<g style="mix-blend-mode:multiply">
<path d="M46.6245 180.408C46.6245 180.408 31.5664 200.385 26.8237 209.495C26.8237 209.495 25.6471 212.284 27.453 211.838C29.2589 211.391 49.0414 190.597 53.2734 186.097C53.2734 186.097 30.6361 208.426 29.8973 207.617C29.1494 206.799 46.6245 180.417 46.6245 180.417V180.408Z" fill="url(#paint11_linear_3556_17294)"/>
</g>
<g style="mix-blend-mode:screen">
<path d="M27.7357 167.217C27.7357 167.217 12.5135 185.103 7.54275 195.393C2.57203 205.693 5.13492 219.832 5.13492 219.832C5.13492 219.832 5.4359 202.04 9.34863 195.997C13.2614 189.955 29.0126 169.96 29.0126 169.96L44.545 178.623L27.7357 167.208V167.217Z" fill="url(#paint12_linear_3556_17294)"/>
</g>
<g style="mix-blend-mode:screen">
<path d="M52.9633 173.501C52.9633 173.501 40.012 189.49 36.3912 196.992C36.3912 196.992 49.7346 180.175 52.9633 173.501Z" fill="url(#paint13_linear_3556_17294)"/>
</g>
<path d="M52.8614 89.7173L128.416 181.496C129.575 182.899 129.392 184.991 128.015 186.172C126.638 187.352 124.586 187.166 123.427 185.763L47.8725 93.9841L52.8614 89.7173Z" fill="#BD8435"/>
<path d="M47.6627 94.1607L123.218 185.939C124.467 187.454 126.693 187.659 128.188 186.385C129.675 185.112 129.876 182.844 128.626 181.319L53.0712 89.5406C52.9709 89.4198 52.8067 89.4105 52.6881 89.5035L47.6992 93.7703C47.5806 93.8725 47.5715 94.0399 47.6627 94.1607ZM128.207 181.672C129.265 182.955 129.1 184.879 127.842 185.958C126.583 187.036 124.695 186.869 123.637 185.586L48.2555 94.0213L52.825 90.1077L128.207 181.672Z" fill="#8B580E"/>
<g style="mix-blend-mode:screen">
<path d="M114.261 167.022C113.541 165.618 113.139 164.094 112.738 162.569C112.711 162.467 112.939 162.486 112.966 162.569C113.486 164.224 114.061 165.814 114.891 167.338C115.766 168.937 116.368 170.545 117.909 171.624C119.186 172.516 120.445 173.613 121.85 174.292C122.99 174.849 123.883 175.723 124.64 176.746C124.713 176.839 124.495 176.848 124.44 176.801C123.774 176.076 123.154 175.398 122.315 174.868C121.704 174.477 121.02 174.189 120.39 173.799C119.059 172.972 117.609 172.098 116.487 170.991C115.41 169.932 114.927 168.342 114.252 167.022H114.261Z" fill="#BD8435"/>
</g>
<g style="mix-blend-mode:screen">
<path d="M112.784 167.152C111.562 164.837 110.604 162.495 110.139 159.892C110.111 159.743 110.421 159.78 110.449 159.892C111.005 162.439 112.018 164.81 113.304 167.059C114.653 169.42 116.149 172.005 118.092 173.901C119.916 175.686 122.141 176.931 124.194 178.4C126.118 179.776 127.468 181.747 129.301 183.206C129.438 183.308 129.173 183.373 129.091 183.318C127.048 181.886 125.625 179.748 123.537 178.317C121.384 176.848 119.168 175.574 117.28 173.734C115.465 171.958 113.978 169.365 112.784 167.124V167.152Z" fill="#BD8435"/>
</g>
<g style="mix-blend-mode:screen">
<path d="M111.835 168.714C111.525 166.948 110.038 165.163 109.208 163.61C108.36 162.021 107.485 160.45 106.801 158.777C106.016 156.88 105.268 155.068 104.201 153.32C103.207 151.693 102.249 150.038 101.228 148.43C101.137 148.291 101.438 148.3 101.511 148.384C102.578 149.722 103.472 151.377 104.365 152.846C105.287 154.342 106.08 155.83 106.737 157.466C107.521 159.418 108.433 161.24 109.409 163.099C110.285 164.754 111.379 166.325 112.173 168.017C112.428 168.565 112.528 169.188 112.711 169.764C113.021 170.731 113.796 171.67 114.398 172.46C115.757 174.208 117.39 175.779 118.986 177.303C120.591 178.828 122.287 180.12 124.121 181.347C125.626 182.36 127.076 183.467 128.198 184.926C128.289 185.038 128.015 185.056 127.951 184.991C125.151 182.063 121.457 180.259 118.502 177.489C117.098 176.179 115.666 174.793 114.444 173.306C113.331 171.958 112.145 170.508 111.835 168.723V168.714Z" fill="#BD8435"/>
</g>
<g style="mix-blend-mode:screen">
<path d="M106.39 161.268C105.524 160.161 104.776 158.888 104.001 157.717C102.286 155.123 100.58 152.529 98.8474 149.936C97.3334 147.677 95.7829 145.381 94.4787 142.983C93.7764 141.69 93.1379 140.361 92.3809 139.088C91.8337 138.167 91.2409 137.312 90.8943 136.28C90.8578 136.159 91.1314 136.187 91.1679 136.28C91.9887 138.446 93.4663 140.435 94.5425 142.49C95.7191 144.749 97.151 146.896 98.5464 149.025C99.951 151.182 101.438 153.292 102.833 155.448C103.599 156.638 104.384 157.81 105.204 158.962C105.332 159.148 105.697 159.771 106.08 160.338C105.743 159.548 105.487 158.683 105.086 158.005C104.156 156.452 103.453 154.733 102.541 153.162C101.684 151.674 100.945 150.103 100.097 148.616C99.65 147.826 99.3491 147.063 98.7927 146.329C98.4917 145.929 98.1907 145.446 98.0631 144.963C98.0357 144.851 98.2819 144.879 98.3093 144.963C98.6832 146.162 99.8142 147.026 100.307 148.188C101.027 149.871 102.103 151.507 103.016 153.087C103.846 154.528 104.639 155.988 105.387 157.475C105.688 158.07 106.034 158.618 106.299 159.232C106.609 159.948 106.846 160.886 107.302 161.509C107.43 161.677 107.129 161.732 107.029 161.705C106.7 161.639 106.591 161.5 106.39 161.24V161.268Z" fill="#BD8435"/>
</g>
<g style="mix-blend-mode:screen">
<path d="M101.264 156.574C100.352 155.505 99.6866 154.277 98.9295 153.097C97.9628 151.6 96.923 150.159 95.9471 148.672C94.1595 145.958 92.3354 143.345 90.8122 140.464C89.3712 137.749 88.0122 134.961 86.6532 132.2C86.5894 132.07 86.8448 132.079 86.8904 132.163C89.7725 137.675 92.7549 143.02 96.2481 148.151C97.1419 149.471 98.0175 150.792 98.9022 152.121C99.8598 153.562 100.662 155.105 101.739 156.453C103.809 159.018 105.879 161.649 107.384 164.615C107.439 164.717 107.229 164.707 107.184 164.642C105.35 161.835 103.435 159.111 101.255 156.574H101.264Z" fill="#BD8435"/>
</g>
<g style="mix-blend-mode:screen">
<path d="M88.5321 139.711C87.5835 137.926 86.5347 136.169 85.5405 134.421C84.6741 132.887 83.9535 131.158 83.2421 129.541C82.403 127.635 81.5001 125.776 80.5698 123.907C80.5333 123.833 80.6884 123.833 80.7157 123.889C84.4916 130.666 87.8298 137.693 91.2682 144.647C91.3138 144.74 91.1314 144.73 91.0949 144.675C90.1282 143.085 89.3985 141.365 88.5229 139.72L88.5321 139.711Z" fill="#BD8435"/>
</g>
<g style="mix-blend-mode:screen">
<path d="M78.3991 123.666C77.1222 121.267 75.4987 119.036 74.7326 116.396C74.7052 116.303 74.915 116.322 74.9424 116.396C75.8909 118.999 77.633 121.175 78.9737 123.573C80.3965 126.12 81.7828 128.667 83.005 131.326C83.0688 131.456 82.8135 131.447 82.7679 131.363C81.2265 128.853 79.7854 126.269 78.39 123.666H78.3991Z" fill="#BD8435"/>
</g>
<g style="mix-blend-mode:screen">
<path d="M79.6121 128.546C78.7092 127.171 77.6877 125.823 76.657 124.54C74.5867 121.946 72.4251 119.455 70.2817 116.917C68.111 114.342 66.6517 111.312 64.8003 108.514C62.8576 105.586 60.5501 102.983 58.3703 100.24C58.279 100.129 58.5618 100.101 58.6256 100.175C60.8419 102.741 63.195 105.176 65.1377 107.965C67.0622 110.726 68.5488 113.785 70.6466 116.425C71.7228 117.782 72.9267 119.027 74.0212 120.366C75.0062 121.556 75.8727 122.848 76.8303 124.066C78.846 126.613 80.36 129.383 82.0655 132.125C82.1294 132.237 81.9014 132.228 81.8466 132.163C81.0258 131.001 80.3874 129.727 79.603 128.546H79.6121Z" fill="#BD8435"/>
</g>
<g style="mix-blend-mode:screen">
<path d="M75.2525 125.237C74.0121 123.48 72.7625 121.751 71.5495 119.975C70.7834 118.851 69.7163 117.986 68.8407 116.964C68.184 116.201 67.6276 115.346 67.0074 114.547C66.9436 114.472 67.1351 114.463 67.1807 114.519C67.9378 115.42 68.64 116.35 69.4427 117.215C70.1632 117.995 71.0114 118.646 71.6772 119.492C73.027 121.184 74.1033 123.08 75.4258 124.791C76.6662 126.399 77.56 128.258 78.8186 129.857C80.2688 131.707 81.5913 133.622 82.9229 135.555C82.9958 135.667 82.7496 135.667 82.6949 135.593C80.1867 132.153 77.6968 128.723 75.2433 125.246L75.2525 125.237Z" fill="#BD8435"/>
</g>
<g style="mix-blend-mode:screen">
<path d="M66.2596 108.42C64.8185 106.673 63.7788 104.646 62.8485 102.592C62.812 102.508 62.9671 102.518 62.9944 102.573C64.0524 104.618 65.2381 106.58 66.6791 108.365C68.1658 110.205 69.7254 111.953 71.0844 113.896C71.1391 113.979 70.9567 113.979 70.9111 113.924C69.4244 112.037 67.7827 110.289 66.2505 108.439L66.2596 108.42Z" fill="#BD8435"/>
</g>
<g style="mix-blend-mode:screen">
<path d="M59.1182 105.214C59.0543 105.093 59.3006 105.093 59.3553 105.176C59.7019 105.781 60.1397 106.311 60.5775 106.85C60.6687 106.961 60.395 106.989 60.3312 106.915C59.8752 106.385 59.4556 105.827 59.1273 105.214H59.1182Z" fill="#BD8435"/>
</g>
<g style="mix-blend-mode:multiply">
<path d="M52.8614 89.7173L61.3527 100.026C61.0426 101.17 60.1579 102.155 60.1852 103.419C60.2126 104.842 60.7963 106.097 61.6901 107.184C64.3625 110.438 67.3084 113.478 70.1084 116.62C73.0817 119.966 75.827 123.48 78.6271 126.975C84.2727 134.04 90.0916 140.956 95.9471 147.835C101.821 154.733 107.731 161.603 113.522 168.574C116.395 172.033 119.15 175.574 121.922 179.116C123.801 181.514 126.063 183.773 127.896 186.274C126.519 187.343 124.558 187.129 123.437 185.772L47.8816 93.9934L52.8705 89.7266L52.8614 89.7173Z" fill="#BD8435"/>
</g>
<g style="mix-blend-mode:screen">
<path d="M117.563 170.136C114.48 166.641 111.479 163.108 108.597 159.436C106.107 156.266 103.572 153.124 100.599 150.419C93.3659 141.607 86.0239 132.906 78.5632 124.279C71.0479 115.597 64.7546 105.957 58.3611 96.4102L128.407 181.496C128.9 182.091 129.146 182.806 129.164 183.522C125.616 178.809 121.485 174.579 117.554 170.136H117.563Z" fill="#BD8435"/>
</g>
<path d="M8.67218 72.1762L38.8796 46.3428C39.9102 45.4597 40.047 43.8887 39.1805 42.8383C38.3141 41.7879 36.7727 41.6484 35.7421 42.5315L5.5347 68.3648C4.50407 69.248 4.36726 70.819 5.23372 71.8694C6.10017 72.9198 7.64156 73.0593 8.67218 72.1762Z" fill="#BD8435"/>
<path d="M5.03306 72.046C5.99073 73.2173 7.70538 73.366 8.85458 72.3899L39.062 46.5566C40.2112 45.5806 40.3571 43.8329 39.3994 42.6616C38.4418 41.4904 36.7271 41.3416 35.5779 42.3177L5.37052 68.151C4.22133 69.1271 4.0754 70.8747 5.03306 72.046ZM38.9799 43.0149C39.746 43.9538 39.6275 45.3482 38.7154 46.129L8.50801 71.9623C7.58683 72.7432 6.21873 72.6223 5.4526 71.6927C4.68647 70.7632 4.80505 69.3595 5.71711 68.5786L35.9245 42.7453C36.8457 41.9644 38.2138 42.0853 38.9799 43.0149Z" fill="#8B2D08"/>
<g style="mix-blend-mode:screen">
<path d="M4.67734 70.3726C4.64998 69.629 4.93272 68.876 5.53468 68.3647L35.7421 42.5314C36.344 42.0201 37.1193 41.8621 37.8307 42.0201L4.67734 70.3726Z" fill="#BD8435"/>
</g>
<g style="mix-blend-mode:multiply">
<path d="M5.5347 68.3551L5.80832 68.1134C11.7367 68.0483 17.5192 63.4283 21.815 59.9051C25.0619 57.2465 28.2085 54.3555 30.7531 50.9718C32.3948 48.7872 34.2919 46.1937 34.7297 43.377L35.7421 42.5125C36.7727 41.6294 38.3141 41.7688 39.1805 42.8192C40.047 43.8697 39.9102 45.4407 38.8796 46.3238L8.67218 72.1571C7.64156 73.0402 6.10017 72.9008 5.23372 71.8504C4.36726 70.7999 4.50407 69.2289 5.5347 68.3458V68.3551Z" fill="#BD8435"/>
</g>
<path d="M0.646042 68.9966C-0.0836067 67.8439 0.235615 66.3008 1.37569 65.5571C2.50664 64.8134 4.02066 65.1388 4.75031 66.3008C8.20701 71.7575 24.7791 91.4648 38.5421 92.7941C42.6737 93.1938 46.1031 91.8738 49.0125 88.7597C55.8256 81.4717 51.5389 69.2569 46.7324 60.2956C41.2235 50.0143 33.7629 41.5179 33.6899 41.4342C32.787 40.4117 32.8691 38.8407 33.8724 37.9204C34.8665 37.0001 36.417 37.0837 37.3199 38.1063C38.5786 39.5286 66.743 71.776 54.2934 90.0146L60.9423 98.0928C60.9423 98.0928 59.0452 101.523 54.4302 103.661L47.9728 95.8153C45.0268 97.442 41.7161 98.0928 38.0861 97.7488C21.1856 96.1313 3.44606 73.4121 0.646042 69.0059V68.9966Z" fill="url(#paint14_linear_3556_17294)"/>
<path d="M4.57701 74.6858C9.98552 81.258 24.0677 96.6799 38.0496 98.0185C41.634 98.3625 44.9447 97.7397 47.8907 96.1593L54.2113 103.828C54.2933 103.921 54.421 103.959 54.5305 103.903C59.1729 101.746 61.0882 98.3625 61.1703 98.2137C61.225 98.1115 61.2159 97.9906 61.1429 97.8977L54.6217 89.9776C65.3293 73.8957 45.4372 47.4767 39.0711 39.7425C38.2229 38.7107 37.6665 38.0692 37.5115 37.9019C37.0281 37.3535 36.3623 37.0281 35.6326 36.9909C34.9121 36.9537 34.2189 37.2047 33.6808 37.6974C32.5863 38.7014 32.4769 40.3839 33.4163 41.5273L33.4802 41.6017C33.5258 41.6575 33.9727 42.1687 34.7023 43.0518C36.8457 45.6454 42.2724 52.543 46.4861 60.4073C51.2471 69.2849 55.5155 81.3789 48.8119 88.546C45.9663 91.5951 42.6099 92.8872 38.5603 92.4968C28.7557 91.5579 16.6618 80.7839 8.61743 71.0139C7.07605 69.1362 5.74445 67.3606 4.9692 66.1336C4.14834 64.8414 2.46104 64.4975 1.22063 65.3155C0.609554 65.7153 0.190014 66.3288 0.0440865 67.0539C-0.110966 67.779 0.0258331 68.5226 0.418018 69.1455C1.05646 70.1587 2.4884 72.1387 4.57701 74.6765V74.6858ZM54.5031 103.317L48.1734 95.6295C48.0913 95.5272 47.9545 95.4993 47.836 95.5644C44.9356 97.1633 41.6613 97.8047 38.1043 97.4608C33.5166 97.0239 21.0944 93.8819 4.99656 74.3233C2.91706 71.8041 1.50337 69.8426 0.87405 68.848C0.554829 68.346 0.454498 67.7604 0.573067 67.1747C0.691635 66.5984 1.02911 66.1057 1.5125 65.7896C2.50665 65.1296 3.85648 65.4085 4.51316 66.4496C5.29753 67.6953 6.64738 69.4894 8.207 71.3858C16.3152 81.2394 28.5368 92.1063 38.5147 93.0638C42.7376 93.4728 46.2399 92.1249 49.2041 88.9457C56.1357 81.5369 51.8125 69.2012 46.9695 60.1563C42.7284 52.2455 37.2743 45.32 35.1219 42.7079C34.3922 41.8155 33.9362 41.3042 33.8906 41.2484L33.8359 41.1834C33.0788 40.2631 33.1701 38.9245 34.0456 38.1157C34.4743 37.716 35.0307 37.5208 35.6053 37.5487C36.189 37.5766 36.718 37.8368 37.1102 38.2738C37.2652 38.4411 37.8216 39.0825 38.6607 40.105C41.3695 43.3958 48.1552 52.0968 52.679 61.8203C58.197 73.6819 58.6621 83.1079 54.0653 89.8474C53.9924 89.9497 54.0015 90.0891 54.0836 90.1821L60.6048 98.1115C60.1761 98.7901 58.2882 101.504 54.5031 103.317Z" fill="#FFD818"/>
<g style="mix-blend-mode:screen">
<path d="M60.3312 98.9759C59.7657 98.1858 59.2002 97.3863 58.6165 96.6055C57.5038 95.1181 56.2634 93.324 54.7038 92.2829C53.9285 91.7623 53.135 91.5764 52.3233 92.1434C51.8125 92.506 51.32 92.8685 50.8275 93.2125C52.6516 91.0558 54.1383 88.6296 55.0048 85.8966C56.5188 81.1185 56.1631 76.0987 54.8223 71.3206C53.0165 64.8971 49.9337 59.1244 46.4223 53.519C42.8652 47.8577 38.9069 42.4661 34.4014 37.5486C35.359 37.0466 36.5629 37.2325 37.3199 38.0878C38.5786 39.51 66.743 71.7575 54.2934 89.9961L60.9423 98.0742C60.9423 98.0742 60.7507 98.4275 60.3403 98.9666L60.3312 98.9759Z" fill="url(#paint15_linear_3556_17294)"/>
</g>
<g style="mix-blend-mode:screen">
<path d="M43.4855 92.3389C41.0776 93.2221 38.3324 93.4359 35.9428 93.2407C30.9538 92.8316 26.5485 90.1637 22.6358 87.1518C14.6553 81.0072 7.523 73.7285 1.95032 65.2879C2.98095 64.9439 4.13925 65.3251 4.75033 66.2918C8.20704 71.7485 24.7791 91.4558 38.5421 92.7851C40.3115 92.9525 41.9532 92.8037 43.4855 92.3389Z" fill="url(#paint16_linear_3556_17294)"/>
</g>
<g style="mix-blend-mode:multiply">
<path d="M35.0307 38.4599C34.6659 39.4731 35.0672 40.6351 35.6326 41.4996C36.5629 42.9405 37.7395 44.2419 38.7884 45.5805C42.1903 49.9403 45.5102 54.4024 48.1461 59.3013C51.6028 65.6969 54.4211 73.6728 52.4784 80.6447C53.0712 74.0818 50.0249 66.422 46.7324 60.2867C41.2236 50.0054 33.7629 41.5089 33.69 41.4253C32.787 40.4027 32.8691 38.8317 33.8724 37.9114C34.675 37.1678 35.8333 37.0934 36.7271 37.614C36.116 37.5954 35.2678 37.7999 35.0398 38.4506L35.0307 38.4599Z" fill="url(#paint17_linear_3556_17294)"/>
</g>
<g style="mix-blend-mode:multiply">
<path d="M0.646069 68.9966C-0.08358 67.8439 0.235645 66.3007 1.37572 65.5571C2.50667 64.8134 4.02069 65.1388 4.75033 66.3007C5.0878 66.8399 5.56207 67.5185 6.14578 68.3087C5.68975 68.0019 5.19725 67.7974 4.6865 67.8718C3.91125 67.9926 3.91125 69.229 4.10278 69.7774C4.52233 71.0324 5.37966 72.1107 6.20963 73.1053C7.17641 74.258 8.11584 75.4572 9.1191 76.5727C11.7458 79.5009 14.5641 82.3176 17.5192 84.9018C22.7453 89.4754 29.0841 94.142 36.0613 95.2296C41.3604 96.0662 46.9422 94.8578 51.1559 91.3625C53.965 89.0385 55.9533 86.0267 57.1664 82.6801C56.7377 85.283 55.8256 87.7557 54.2843 90.0146L60.9332 98.0927C60.9332 98.0927 59.0361 101.523 54.4211 103.661L47.9637 95.8152C45.0177 97.442 41.707 98.0927 38.077 97.7488C21.1765 96.1313 3.43697 73.4121 0.636951 69.0059L0.646069 68.9966Z" fill="url(#paint18_linear_3556_17294)"/>
</g>
<g style="mix-blend-mode:multiply">
<path d="M0.646042 68.9966C-0.0836067 67.8439 0.235619 66.3007 1.37569 65.5571C2.50665 64.8134 4.02066 65.1388 4.75031 66.3007C5.08777 66.8399 5.56204 67.5185 6.14576 68.3087C5.68973 68.0019 5.19722 67.7974 4.68647 67.8718C3.91122 67.9926 3.91122 69.229 4.10275 69.7774C4.5223 71.0324 5.37963 72.1107 6.20961 73.1053C7.17639 74.258 8.11581 75.4572 9.11908 76.5727C11.7458 79.5009 14.5641 82.3176 17.5191 84.9018C22.7452 89.4754 29.084 94.142 36.0613 95.2296C41.3604 96.0662 46.9422 94.8578 51.1559 91.3625C52.4236 90.3121 53.509 89.1222 54.4484 87.8301C54.038 88.5551 53.5546 89.243 53.0256 89.8938C52.15 90.9721 50.7546 92.069 50.2621 93.4076C49.9246 94.3279 50.2894 95.1366 50.8093 95.9175C51.7943 97.377 52.6972 99.0409 53.9194 100.305C55.3422 101.774 56.9657 101.755 58.5891 100.882C57.5676 101.82 56.1996 102.843 54.4119 103.661L47.9545 95.8152C45.0086 97.442 41.6978 98.0927 38.0678 97.7488C21.1674 96.1313 3.42783 73.4121 0.627811 69.0059L0.646042 68.9966Z" fill="url(#paint19_linear_3556_17294)"/>
</g>
<path d="M40.0926 42.9959C40.4483 43.4235 41.0776 43.4793 41.4972 43.1167C41.9167 42.7542 41.9714 42.1221 41.6157 41.6852L40.5942 40.4395C40.2385 40.0119 39.6092 39.9561 39.1897 40.3187C38.7701 40.6812 38.7154 41.3226 39.0711 41.7502L40.0926 42.9959Z" fill="#BD8435"/>
<path d="M38.8613 41.9268L39.8828 43.1725C40.3298 43.721 41.1324 43.786 41.6705 43.3305C42.2086 42.875 42.2724 42.057 41.8255 41.5085L40.804 40.2629C40.3571 39.7144 39.5545 39.6493 39.0164 40.1048C38.4783 40.5603 38.4144 41.3784 38.8613 41.9268ZM41.4151 41.8711C41.6705 42.1871 41.634 42.6519 41.3239 42.9122C41.0138 43.1725 40.5578 43.1353 40.3024 42.8192L39.2809 41.5736C39.0255 41.2668 39.062 40.7927 39.3721 40.5325C39.6822 40.2722 40.1382 40.3094 40.3936 40.6254L41.4151 41.8711Z" fill="#8B2D08"/>
<path d="M3.39134 74.3885C3.74705 74.8161 4.37636 74.8719 4.79591 74.5093C5.21545 74.1468 5.27018 73.5147 4.91448 73.0778L3.89298 71.8321C3.53728 71.4045 2.91707 71.3487 2.4884 71.7113C2.06885 72.0738 2.01412 72.7059 2.36983 73.1428L3.39134 74.3885Z" fill="#BD8435"/>
<path d="M2.16005 73.3194L3.18155 74.5651C3.62846 75.1135 4.43108 75.1786 4.96919 74.7231C5.50731 74.2676 5.57115 73.4496 5.12424 72.9011L4.10274 71.6555C3.65583 71.107 2.85321 71.0419 2.3151 71.4974C1.77698 71.9529 1.71314 72.771 2.16005 73.3194ZM4.7047 73.2636C4.96008 73.5797 4.92359 74.0445 4.61349 74.3048C4.30339 74.5651 3.84737 74.5279 3.59199 74.2118L2.57047 72.9662C2.3151 72.6594 2.35158 72.1853 2.66168 71.925C2.97178 71.6647 3.42781 71.7019 3.68319 72.018L4.7047 73.2636Z" fill="#8B2D08"/>
<path d="M53.2628 98.4834C53.965 99.3293 55.2054 99.4409 56.0354 98.7344C56.8654 98.0186 56.9748 96.7544 56.2817 95.9084C55.5794 95.0625 54.339 94.951 53.509 95.6575C52.679 96.3732 52.5696 97.6375 53.2628 98.4834Z" fill="#FBA746"/>
<path d="M53.053 98.6599C53.8465 99.6267 55.2601 99.7475 56.2087 98.9388C57.1572 98.13 57.2758 96.6891 56.4823 95.7224C55.6888 94.7556 54.2751 94.6348 53.3266 95.4435C52.378 96.2522 52.2595 97.6931 53.053 98.6599ZM56.0628 96.0849C56.6647 96.8193 56.5735 97.9069 55.853 98.5204C55.1416 99.134 54.0654 99.041 53.4634 98.3066C52.8614 97.5723 52.9526 96.4846 53.6732 95.8711C54.3937 95.2576 55.4608 95.3505 56.0628 96.0849Z" fill="#1F1F1F"/>
<path d="M54.3025 96.8751C54.5578 97.1819 55.0047 97.219 55.3057 96.968C55.6067 96.7171 55.6432 96.2523 55.3969 95.9455C55.1415 95.6387 54.6946 95.6015 54.3937 95.8525C54.0927 96.1035 54.0562 96.5683 54.3025 96.8751Z" fill="url(#paint20_linear_3556_17294)"/>
<path d="M104.147 202.792C108.999 198.944 113.823 193.459 116.623 190.066L121.093 184.777L115.912 178.493C116.414 177.099 118.703 175.016 118.703 175.016C121.175 173.008 123.136 172.925 123.136 172.925L128.042 178.893L133.725 175.444C137.491 173.222 143.63 169.337 148.19 165.135C148.19 165.135 174.494 191.833 175.552 202.876C176.6 213.92 172.25 231.229 172.25 231.229C172.25 231.229 171.657 233.525 170.344 235.337C170.097 235.737 169.778 236.09 169.413 236.397C169.404 236.406 169.386 236.425 169.377 236.434C169.359 236.444 169.35 236.462 169.331 236.472C168.976 236.788 168.574 237.048 168.146 237.225C166.167 238.228 163.841 238.424 163.841 238.424C163.841 238.424 146.357 239.79 135.868 236.815C125.379 233.841 104.156 202.802 104.156 202.802L104.147 202.792Z" fill="url(#paint21_linear_3556_17294)"/>
<path d="M116.596 219.767C125.051 230.039 131.508 235.858 135.786 237.076C146.202 240.032 163.677 238.712 163.85 238.693C163.95 238.693 166.249 238.479 168.255 237.466C168.675 237.299 169.103 237.029 169.505 236.676L169.386 236.416L169.559 236.63C169.559 236.63 169.596 236.592 169.605 236.592C169.997 236.267 170.335 235.886 170.581 235.477C171.894 233.664 172.496 231.387 172.524 231.294C172.569 231.117 176.883 213.808 175.834 202.839C175.406 198.34 170.9 190.847 162.445 180.575C155.559 172.209 148.473 165.005 148.4 164.93C148.299 164.828 148.135 164.819 148.026 164.93C143.374 169.216 136.999 173.213 133.606 175.202L128.115 178.53L123.354 172.748C123.3 172.683 123.218 172.646 123.136 172.646C123.054 172.646 121.065 172.757 118.548 174.793C118.438 174.886 116.195 176.95 115.675 178.391C115.638 178.484 115.657 178.586 115.721 178.66L120.746 184.768L116.423 189.871C113.906 192.93 108.935 198.637 103.991 202.56C103.882 202.653 103.855 202.82 103.937 202.932C103.991 203.016 109.728 211.382 116.614 219.748L116.596 219.767ZM162.008 180.929C170.271 190.968 174.858 198.563 175.278 202.895C176.309 213.762 172.022 230.987 171.985 231.154C171.985 231.173 171.384 233.423 170.125 235.17C169.897 235.542 169.596 235.877 169.24 236.183L169.195 236.221L169.149 236.258C168.793 236.565 168.419 236.806 168.036 236.964C166.112 237.94 163.832 238.145 163.813 238.145C163.64 238.154 146.256 239.474 135.932 236.546C131.828 235.384 125.279 229.453 117.016 219.414C110.759 211.81 105.451 204.215 104.511 202.848C109.436 198.898 114.325 193.274 116.824 190.243L121.293 184.963C121.384 184.861 121.384 184.712 121.293 184.6L116.222 178.437C116.797 177.127 118.858 175.23 118.876 175.212C120.883 173.585 122.543 173.269 123.008 173.204L127.824 179.051C127.906 179.153 128.052 179.181 128.17 179.107L133.852 175.658C137.209 173.678 143.502 169.746 148.172 165.488C149.321 166.669 155.751 173.315 162.008 180.91V180.929Z" fill="#FFD818"/>
<g style="mix-blend-mode:multiply">
<path d="M104.147 202.793C108.999 198.944 113.823 193.459 116.624 190.066L121.093 184.777L115.912 178.493C116.414 177.099 118.703 175.016 118.703 175.016C120.819 173.297 122.561 172.99 123.008 172.934C121.083 173.566 117.946 175.128 119.825 177.015C119.943 177.127 120.071 177.136 120.208 177.052C121.64 176.095 123.665 176.076 124.723 177.638C125.771 179.19 125.051 180.771 123.537 181.616C123.373 181.709 123.336 181.895 123.446 182.044C126.072 185.846 129.338 189.007 132.375 192.455C134.938 195.365 137.254 198.581 140.483 200.775C140.684 200.915 140.93 200.738 140.903 200.506C140.556 197.159 138.413 194.203 136.643 191.461C134.755 188.542 132.986 185.539 130.961 182.723C134.691 186.395 137.163 191.377 140.474 195.393C142.708 198.117 144.952 200.84 147.05 203.676C148.153 205.172 149.339 206.669 150.251 208.305C150.972 209.597 152.385 213.064 149.458 212.442C147.46 212.014 145.691 210.768 143.976 209.69C142.261 208.621 140.565 207.487 138.832 206.437C137.382 205.563 135.777 204.642 134.044 204.782C133.861 204.8 133.788 205.014 133.843 205.172C135.129 208.63 137.874 211.252 140.2 213.994C143.064 217.368 146.056 220.659 149.23 223.727C152.905 227.297 157.794 231.47 163.139 231.712C169.341 231.991 171.201 225.67 172.305 220.557C173.8 213.65 174.384 205.907 171.958 199.149C170.736 195.746 168.921 192.669 166.997 189.639C164.625 185.893 162.099 182.258 159.408 178.744C155.833 174.068 152.021 169.578 148.071 165.228C148.117 165.191 148.153 165.153 148.199 165.116C148.199 165.116 174.503 191.814 175.561 202.858C176.61 213.901 172.259 231.21 172.259 231.21C172.259 231.21 171.666 233.506 170.353 235.319C170.107 235.719 169.787 236.072 169.423 236.379C169.413 236.388 169.395 236.406 169.386 236.416C169.368 236.425 169.359 236.444 169.341 236.453C168.985 236.769 168.584 237.029 168.155 237.206C166.176 238.21 163.85 238.405 163.85 238.405C163.85 238.405 146.366 239.772 135.877 236.797C125.388 233.822 104.165 202.783 104.165 202.783L104.147 202.793Z" fill="url(#paint22_linear_3556_17294)"/>
</g>
<g style="mix-blend-mode:multiply">
<path d="M104.147 202.793C108.999 198.944 113.823 193.46 116.623 190.067L121.093 184.777L115.912 178.493C115.994 178.27 116.131 178.019 116.286 177.768C119.861 181.607 123.099 185.763 126.656 189.62C127.723 190.773 128.799 191.907 129.885 193.032C128.444 191.842 126.966 190.643 125.379 189.685C124.622 189.23 123.874 188.877 122.981 189.1C121.603 189.434 120.354 190.801 119.36 191.712C117.827 193.125 116.487 194.687 115.036 196.193C113.203 198.108 110.476 200.385 111.178 203.406C111.872 206.399 114.27 208.835 116.167 211.094C119.068 214.543 122.151 217.815 125.306 221.022C130.605 226.404 136.023 231.731 143.055 234.678C149.877 237.541 156.882 238.015 164.16 237.727C165.254 237.68 166.349 237.624 167.453 237.522C165.656 238.257 163.832 238.415 163.832 238.415C163.832 238.415 146.347 239.781 135.859 236.806C125.37 233.832 104.147 202.793 104.147 202.793Z" fill="url(#paint23_linear_3556_17294)"/>
</g>
<path d="M120.764 180.139C121.467 180.985 122.707 181.096 123.537 180.39C124.367 179.674 124.476 178.41 123.783 177.564C123.081 176.718 121.841 176.606 121.011 177.313C120.181 178.029 120.071 179.293 120.764 180.139Z" fill="#FBA746"/>
<path d="M120.554 180.315C121.348 181.282 122.762 181.403 123.71 180.594C124.659 179.785 124.777 178.344 123.984 177.378C123.19 176.411 121.777 176.29 120.828 177.099C119.88 177.908 119.761 179.348 120.554 180.315ZM123.564 177.74C124.166 178.475 124.075 179.562 123.355 180.176C122.643 180.789 121.567 180.696 120.965 179.962C120.363 179.228 120.454 178.14 121.175 177.526C121.895 176.913 122.962 177.006 123.564 177.74Z" fill="#1F1F1F"/>
<path d="M121.804 178.53C122.059 178.837 122.506 178.874 122.807 178.623C123.108 178.363 123.145 177.908 122.898 177.601C122.652 177.294 122.196 177.257 121.895 177.508C121.594 177.768 121.558 178.224 121.804 178.53Z" fill="url(#paint24_linear_3556_17294)"/>
<g style="mix-blend-mode:multiply">
<path d="M129.356 180.408C129.356 180.408 144.414 200.385 149.157 209.495C149.157 209.495 150.333 212.284 148.527 211.838C146.721 211.391 126.939 190.597 122.707 186.097C122.707 186.097 145.344 208.426 146.083 207.617C146.831 206.799 129.356 180.417 129.356 180.417V180.408Z" fill="url(#paint25_linear_3556_17294)"/>
</g>
<g style="mix-blend-mode:screen">
<path d="M148.245 167.217C148.245 167.217 163.467 185.103 168.438 195.393C173.408 205.693 170.845 219.832 170.845 219.832C170.845 219.832 170.544 202.04 166.632 195.997C162.719 189.955 146.968 169.96 146.968 169.96L131.435 178.623L148.245 167.208V167.217Z" fill="url(#paint26_linear_3556_17294)"/>
</g>
<g style="mix-blend-mode:screen">
<path d="M123.017 173.501C123.017 173.501 135.968 189.49 139.589 196.992C139.589 196.992 126.246 180.176 123.017 173.501Z" fill="url(#paint27_linear_3556_17294)"/>
</g>
</g>
<defs>
<linearGradient id="paint0_linear_3556_17294" x1="145.382" y1="37.2812" x2="145.382" y2="103.661" gradientUnits="userSpaceOnUse">
<stop stop-color="#FBA746"/>
<stop offset="1" stop-color="#582B02"/>
</linearGradient>
<linearGradient id="paint1_linear_3556_17294" x1="128.308" y1="37.2729" x2="128.308" y2="98.9759" gradientUnits="userSpaceOnUse">
<stop stop-color="#FBA746"/>
<stop offset="1" stop-color="#582B02"/>
</linearGradient>
<linearGradient id="paint2_linear_3556_17294" x1="153.262" y1="65.1636" x2="153.262" y2="93.3073" gradientUnits="userSpaceOnUse">
<stop stop-color="#FBA746"/>
<stop offset="1" stop-color="#582B02"/>
</linearGradient>
<linearGradient id="paint3_linear_3556_17294" x1="132.892" y1="37.2783" x2="132.892" y2="80.6447" gradientUnits="userSpaceOnUse">
<stop stop-color="#FBA746"/>
<stop offset="1" stop-color="#582B02"/>
</linearGradient>
<linearGradient id="paint4_linear_3556_17294" x1="145.386" y1="65.1587" x2="145.386" y2="103.661" gradientUnits="userSpaceOnUse">
<stop stop-color="#FBA746"/>
<stop offset="1" stop-color="#582B02"/>
</linearGradient>
<linearGradient id="paint5_linear_3556_17294" x1="146.558" y1="65.1587" x2="146.558" y2="103.661" gradientUnits="userSpaceOnUse">
<stop stop-color="#FBA746"/>
<stop offset="1" stop-color="#582B02"/>
</linearGradient>
<linearGradient id="paint6_linear_3556_17294" x1="121.131" y1="95.687" x2="121.131" y2="97.1336" gradientUnits="userSpaceOnUse">
<stop stop-color="#FBA746"/>
<stop offset="1" stop-color="#582B02"/>
</linearGradient>
<linearGradient id="paint7_linear_3556_17294" x1="36.0497" y1="165.135" x2="36.0497" y2="238.737" gradientUnits="userSpaceOnUse">
<stop stop-color="#FBA746"/>
<stop offset="1" stop-color="#582B02"/>
</linearGradient>
<linearGradient id="paint8_linear_3556_17294" x1="36.0451" y1="165.116" x2="36.0451" y2="238.718" gradientUnits="userSpaceOnUse">
<stop stop-color="#FBA746"/>
<stop offset="1" stop-color="#582B02"/>
</linearGradient>
<linearGradient id="paint9_linear_3556_17294" x1="40.1808" y1="177.768" x2="40.1808" y2="238.728" gradientUnits="userSpaceOnUse">
<stop stop-color="#FBA746"/>
<stop offset="1" stop-color="#582B02"/>
</linearGradient>
<linearGradient id="paint10_linear_3556_17294" x1="53.6291" y1="177.342" x2="53.6291" y2="178.789" gradientUnits="userSpaceOnUse">
<stop stop-color="#FBA746"/>
<stop offset="1" stop-color="#582B02"/>
</linearGradient>
<linearGradient id="paint11_linear_3556_17294" x1="39.8602" y1="180.408" x2="39.8602" y2="211.886" gradientUnits="userSpaceOnUse">
<stop stop-color="#FBA746"/>
<stop offset="1" stop-color="#582B02"/>
</linearGradient>
<linearGradient id="paint12_linear_3556_17294" x1="24.5097" y1="167.208" x2="24.5097" y2="219.832" gradientUnits="userSpaceOnUse">
<stop stop-color="#FBA746"/>
<stop offset="1" stop-color="#582B02"/>
</linearGradient>
<linearGradient id="paint13_linear_3556_17294" x1="44.6772" y1="173.501" x2="44.6772" y2="196.992" gradientUnits="userSpaceOnUse">
<stop stop-color="#FBA746"/>
<stop offset="1" stop-color="#582B02"/>
</linearGradient>
<linearGradient id="paint14_linear_3556_17294" x1="30.5987" y1="37.2812" x2="30.5987" y2="103.661" gradientUnits="userSpaceOnUse">
<stop stop-color="#FBA746"/>
<stop offset="1" stop-color="#582B02"/>
</linearGradient>
<linearGradient id="paint15_linear_3556_17294" x1="47.6718" y1="37.2729" x2="47.6718" y2="98.9759" gradientUnits="userSpaceOnUse">
<stop stop-color="#FBA746"/>
<stop offset="1" stop-color="#582B02"/>
</linearGradient>
<linearGradient id="paint16_linear_3556_17294" x1="22.7179" y1="65.1636" x2="22.7179" y2="93.3073" gradientUnits="userSpaceOnUse">
<stop stop-color="#FBA746"/>
<stop offset="1" stop-color="#582B02"/>
</linearGradient>
<linearGradient id="paint17_linear_3556_17294" x1="43.0882" y1="37.2783" x2="43.0882" y2="80.6447" gradientUnits="userSpaceOnUse">
<stop stop-color="#FBA746"/>
<stop offset="1" stop-color="#582B02"/>
</linearGradient>
<linearGradient id="paint18_linear_3556_17294" x1="30.5942" y1="65.1587" x2="30.5942" y2="103.661" gradientUnits="userSpaceOnUse">
<stop stop-color="#FBA746"/>
<stop offset="1" stop-color="#582B02"/>
</linearGradient>
<linearGradient id="paint19_linear_3556_17294" x1="29.4222" y1="65.1587" x2="29.4222" y2="103.661" gradientUnits="userSpaceOnUse">
<stop stop-color="#FBA746"/>
<stop offset="1" stop-color="#582B02"/>
</linearGradient>
<linearGradient id="paint20_linear_3556_17294" x1="54.8497" y1="95.687" x2="54.8497" y2="97.1336" gradientUnits="userSpaceOnUse">
<stop stop-color="#FBA746"/>
<stop offset="1" stop-color="#582B02"/>
</linearGradient>
<linearGradient id="paint21_linear_3556_17294" x1="139.931" y1="165.135" x2="139.931" y2="238.737" gradientUnits="userSpaceOnUse">
<stop stop-color="#FBA746"/>
<stop offset="1" stop-color="#582B02"/>
</linearGradient>
<linearGradient id="paint22_linear_3556_17294" x1="139.935" y1="165.116" x2="139.935" y2="238.718" gradientUnits="userSpaceOnUse">
<stop stop-color="#FBA746"/>
<stop offset="1" stop-color="#582B02"/>
</linearGradient>
<linearGradient id="paint23_linear_3556_17294" x1="135.8" y1="177.768" x2="135.8" y2="238.728" gradientUnits="userSpaceOnUse">
<stop stop-color="#FBA746"/>
<stop offset="1" stop-color="#582B02"/>
</linearGradient>
<linearGradient id="paint24_linear_3556_17294" x1="122.351" y1="177.342" x2="122.351" y2="178.789" gradientUnits="userSpaceOnUse">
<stop stop-color="#FBA746"/>
<stop offset="1" stop-color="#582B02"/>
</linearGradient>
<linearGradient id="paint25_linear_3556_17294" x1="136.12" y1="180.408" x2="136.12" y2="211.886" gradientUnits="userSpaceOnUse">
<stop stop-color="#FBA746"/>
<stop offset="1" stop-color="#582B02"/>
</linearGradient>
<linearGradient id="paint26_linear_3556_17294" x1="151.471" y1="167.208" x2="151.471" y2="219.832" gradientUnits="userSpaceOnUse">
<stop stop-color="#FBA746"/>
<stop offset="1" stop-color="#582B02"/>
</linearGradient>
<linearGradient id="paint27_linear_3556_17294" x1="131.303" y1="173.501" x2="131.303" y2="196.992" gradientUnits="userSpaceOnUse">
<stop stop-color="#FBA746"/>
<stop offset="1" stop-color="#582B02"/>
</linearGradient>
<clipPath id="clip0_3556_17294">
<rect width="176" height="276" fill="white"/>
</clipPath>
</defs>
</svg>
