<svg width="176" height="265" viewBox="0 0 176 265" fill="none" xmlns="http://www.w3.org/2000/svg">
<g clip-path="url(#clip0_3556_13381)">
<path d="M122.942 83.9785L47.3868 176.211C46.2284 177.622 46.4109 179.724 47.7881 180.91C49.1653 182.097 51.2174 181.91 52.3757 180.499L127.931 88.2665L122.942 83.9785Z" fill="#A64223"/>
<path d="M128.14 88.4438L52.5855 180.677C51.336 182.199 49.1106 182.405 47.6148 181.125C46.1281 179.845 45.9275 177.566 47.177 176.034L122.732 83.8009C122.832 83.6795 122.996 83.6701 123.115 83.7635L128.104 88.0515C128.223 88.1542 128.232 88.3224 128.14 88.4438ZM47.5965 176.389C46.5386 177.678 46.7027 179.612 47.9614 180.695C49.22 181.779 51.108 181.611 52.166 180.322L127.548 88.3037L122.978 84.3708L47.5965 176.389Z" fill="#8B580E"/>
<g style="mix-blend-mode:screen">
<path d="M61.5419 161.666C62.2625 160.255 62.6638 158.723 63.0651 157.191C63.0924 157.088 62.8644 157.107 62.8371 157.191C62.3172 158.854 61.7426 160.451 60.9126 161.983C60.0371 163.59 59.4351 165.206 57.8937 166.29C56.6168 167.187 55.3582 168.289 53.9536 168.971C52.8135 169.532 51.9197 170.41 51.1627 171.437C51.0898 171.531 51.3086 171.54 51.3634 171.493C52.0292 170.765 52.6494 170.083 53.4885 169.55C54.0995 169.158 54.7836 168.868 55.4129 168.476C56.7445 167.644 58.1947 166.766 59.3165 165.655C60.3928 164.59 60.8761 162.992 61.5511 161.666H61.5419Z" fill="#A64223"/>
</g>
<g style="mix-blend-mode:screen">
<path d="M63.0195 161.796C64.2416 159.47 65.1993 157.116 65.6644 154.5C65.6918 154.351 65.3817 154.388 65.3543 154.5C64.798 157.06 63.7856 159.442 62.4996 161.703C61.1497 164.076 59.654 166.673 57.7113 168.579C55.8872 170.372 53.6617 171.624 51.6096 173.1C49.6852 174.483 48.3353 176.463 46.5021 177.93C46.3653 178.033 46.6298 178.098 46.7118 178.042C48.7549 176.603 50.1777 174.455 52.2663 173.016C54.4187 171.54 56.635 170.26 58.523 168.411C60.338 166.626 61.8247 164.02 63.0195 161.768V161.796Z" fill="#A64223"/>
</g>
<g style="mix-blend-mode:screen">
<path d="M63.968 163.366C64.2781 161.591 65.7648 159.798 66.5947 158.237C67.443 156.64 68.3185 155.061 69.0026 153.38C69.787 151.474 70.5348 149.652 71.6019 147.896C72.5961 146.261 73.5538 144.598 74.5753 142.982C74.6665 142.842 74.3655 142.851 74.2925 142.935C73.2254 144.281 72.3316 145.943 71.4378 147.419C70.5166 148.924 69.7231 150.418 69.0664 152.062C68.2821 154.024 67.37 155.855 66.3941 157.724C65.5185 159.386 64.424 160.965 63.6306 162.665C63.3752 163.217 63.2749 163.843 63.0924 164.422C62.7823 165.393 62.0071 166.337 61.4051 167.131C60.0462 168.887 58.4136 170.466 56.8175 171.998C55.2123 173.53 53.5158 174.829 51.6826 176.062C50.1777 177.08 48.7275 178.192 47.6057 179.658C47.5145 179.771 47.7881 179.789 47.8519 179.724C50.652 176.781 54.3458 174.969 57.3009 172.185C58.7054 170.868 60.1374 169.476 61.3595 167.981C62.4722 166.626 63.6579 165.169 63.968 163.375V163.366Z" fill="#A64223"/>
</g>
<g style="mix-blend-mode:screen">
<path d="M69.413 155.883C70.2794 154.772 71.0273 153.492 71.8026 152.315C73.5172 149.708 75.2228 147.102 76.9557 144.496C78.4697 142.226 80.0202 139.918 81.3245 137.508C82.0268 136.209 82.6652 134.873 83.4222 133.594C83.9694 132.669 84.5623 131.809 84.9089 130.772C84.9453 130.651 84.6717 130.679 84.6352 130.772C83.8144 132.949 82.3369 134.948 81.2606 137.013C80.0841 139.283 78.6521 141.441 77.2567 143.58C75.8521 145.747 74.3655 147.868 72.97 150.035C72.2039 151.231 71.4195 152.408 70.5987 153.567C70.471 153.753 70.1061 154.379 69.7231 154.949C70.0605 154.155 70.3159 153.286 70.7172 152.604C71.6475 151.044 72.3498 149.316 73.2619 147.737C74.1192 146.243 74.858 144.664 75.7062 143.169C76.1531 142.375 76.4541 141.609 77.0104 140.871C77.3114 140.469 77.6124 139.983 77.7401 139.498C77.7674 139.386 77.5212 139.414 77.4938 139.498C77.1199 140.703 75.9889 141.572 75.4964 142.739C74.7759 144.43 73.6997 146.074 72.7876 147.663C71.9576 149.111 71.1641 150.577 70.4162 152.072C70.1153 152.67 69.7687 153.221 69.5042 153.838C69.1941 154.557 68.957 155.5 68.5009 156.126C68.3732 156.294 68.6742 156.35 68.7745 156.322C69.1029 156.257 69.2123 156.117 69.413 155.855V155.883Z" fill="#A64223"/>
</g>
<g style="mix-blend-mode:screen">
<path d="M74.5388 151.165C75.4508 150.091 76.1166 148.858 76.8736 147.672C77.8404 146.167 78.8802 144.719 79.8561 143.225C81.6437 140.497 83.4678 137.872 84.991 134.976C86.432 132.248 87.791 129.445 89.15 126.671C89.2138 126.54 88.9584 126.549 88.9128 126.634C86.0307 132.173 83.0483 137.545 79.5551 142.702C78.6613 144.028 77.7857 145.355 76.901 146.691C75.9433 148.139 75.1407 149.689 74.0645 151.044C71.9941 153.622 69.9238 156.266 68.4189 159.246C68.3641 159.349 68.5739 159.34 68.6195 159.274C70.4528 156.453 72.3681 153.716 74.5479 151.165H74.5388Z" fill="#A64223"/>
</g>
<g style="mix-blend-mode:screen">
<path d="M87.2711 134.219C88.2196 132.426 89.2685 130.66 90.2627 128.904C91.1291 127.362 91.8496 125.625 92.561 123.999C93.4001 122.084 94.3031 120.216 95.2334 118.338C95.2699 118.263 95.1148 118.263 95.0874 118.319C91.3115 125.13 87.9734 132.192 84.5349 139.18C84.4893 139.273 84.6717 139.264 84.7082 139.208C85.675 137.61 86.4046 135.882 87.2802 134.229L87.2711 134.219Z" fill="#A64223"/>
</g>
<g style="mix-blend-mode:screen">
<path d="M97.4041 118.095C98.681 115.685 100.304 113.443 101.071 110.79C101.098 110.696 100.888 110.715 100.861 110.79C99.9123 113.406 98.1702 115.592 96.8295 118.002C95.4067 120.561 94.0204 123.121 92.7982 125.793C92.7344 125.924 92.9897 125.914 93.0353 125.83C94.5767 123.308 96.0178 120.711 97.4132 118.095H97.4041Z" fill="#A64223"/>
</g>
<g style="mix-blend-mode:screen">
<path d="M96.1911 123C97.094 121.617 98.1155 120.262 99.1461 118.973C101.217 116.367 103.378 113.863 105.521 111.313C107.692 108.725 109.151 105.68 111.003 102.868C112.946 99.925 115.253 97.3093 117.433 94.5534C117.524 94.4413 117.241 94.4133 117.178 94.488C114.961 97.0664 112.608 99.514 110.665 102.317C108.741 105.091 107.254 108.165 105.157 110.818C104.08 112.182 102.876 113.433 101.782 114.779C100.797 115.974 99.9305 117.273 98.9728 118.497C96.9572 121.056 95.4432 123.84 93.7376 126.596C93.6738 126.708 93.9018 126.699 93.9565 126.634C94.7774 125.466 95.4158 124.186 96.2002 123H96.1911Z" fill="#A64223"/>
</g>
<g style="mix-blend-mode:screen">
<path d="M100.551 119.674C101.791 117.908 103.041 116.171 104.254 114.386C105.02 113.256 106.087 112.387 106.962 111.36C107.619 110.594 108.176 109.734 108.796 108.931C108.86 108.856 108.668 108.847 108.622 108.903C107.865 109.809 107.163 110.743 106.361 111.612C105.64 112.397 104.792 113.051 104.126 113.901C102.776 115.601 101.7 117.507 100.377 119.226C99.137 120.842 98.2432 122.71 96.9845 124.317C95.5344 126.176 94.2119 128.1 92.8803 130.044C92.8073 130.156 93.0536 130.156 93.1083 130.081C95.6165 126.624 98.1064 123.177 100.56 119.683L100.551 119.674Z" fill="#A64223"/>
</g>
<g style="mix-blend-mode:screen">
<path d="M109.544 102.774C110.985 101.018 112.024 98.9815 112.955 96.9169C112.991 96.8329 112.836 96.8422 112.809 96.8982C111.751 98.9535 110.565 100.925 109.124 102.718C107.637 104.568 106.078 106.324 104.719 108.277C104.664 108.361 104.847 108.361 104.892 108.305C106.379 106.408 108.02 104.652 109.553 102.793L109.544 102.774Z" fill="#A64223"/>
</g>
<g style="mix-blend-mode:screen">
<path d="M116.685 99.5515C116.749 99.43 116.503 99.43 116.448 99.5141C116.101 100.121 115.663 100.654 115.226 101.196C115.135 101.308 115.408 101.336 115.472 101.261C115.928 100.729 116.348 100.168 116.676 99.5515H116.685Z" fill="#A64223"/>
</g>
<g style="mix-blend-mode:multiply">
<path d="M122.942 83.9785L114.45 94.3387C114.761 95.4878 115.645 96.478 115.618 97.7485C115.591 99.1778 115.007 100.439 114.113 101.532C111.441 104.802 108.495 107.856 105.695 111.014C102.721 114.377 99.9761 117.908 97.1761 121.421C91.5304 128.521 85.7115 135.471 79.8561 142.384C73.9824 149.316 68.0723 156.22 62.2807 163.226C59.4077 166.701 56.6533 170.261 53.8806 173.82C52.0018 176.23 49.7399 178.5 47.9066 181.013C49.2839 182.087 51.2448 181.873 52.3666 180.509L127.922 88.2758L122.933 83.9879L122.942 83.9785Z" fill="#A64223"/>
</g>
<g style="mix-blend-mode:screen">
<path d="M58.2403 164.795C61.323 161.283 64.3237 157.733 67.2058 154.043C69.6957 150.857 72.2313 147.7 75.2046 144.981C82.4372 136.125 89.7793 127.381 97.2399 118.712C104.755 109.986 111.048 100.299 117.442 90.7046L47.3959 176.211C46.9034 176.809 46.6571 177.528 46.6389 178.248C50.1868 173.511 54.3184 169.261 58.2494 164.795H58.2403Z" fill="#A64223"/>
</g>
<path d="M167.131 66.3502L136.924 40.389C135.893 39.5015 135.756 37.9227 136.623 36.8671C137.489 35.8115 139.03 35.6713 140.061 36.5588L170.268 62.52C171.299 63.4075 171.436 64.9863 170.569 66.0419C169.703 67.0976 168.162 67.2377 167.131 66.3502Z" fill="#A64223"/>
<path d="M170.77 66.2193C169.812 67.3964 168.098 67.5459 166.949 66.5649L136.741 40.6037C135.592 39.6228 135.446 37.8666 136.404 36.6895C137.361 35.5124 139.076 35.3629 140.225 36.3438L170.433 62.305C171.582 63.2859 171.728 65.0422 170.77 66.2193ZM136.823 37.0445C136.057 37.988 136.176 39.3893 137.088 40.174L167.295 66.1352C168.216 66.9199 169.584 66.7985 170.351 65.8643C171.117 64.9301 170.998 63.5195 170.086 62.7348L139.879 36.7736C138.957 35.9888 137.589 36.1103 136.823 37.0445Z" fill="#8B2D08"/>
<g style="mix-blend-mode:screen">
<path d="M171.126 64.5377C171.153 63.7903 170.87 63.0336 170.268 62.5198L140.061 36.5586C139.459 36.0448 138.684 35.886 137.972 36.0448L171.126 64.5377Z" fill="#A64223"/>
</g>
<g style="mix-blend-mode:multiply">
<path d="M170.268 62.5108L169.995 62.2679C164.066 62.2025 158.284 57.5596 153.988 54.019C150.741 51.3472 147.595 48.4419 145.05 45.0414C143.408 42.8461 141.511 40.2397 141.073 37.4091L140.061 36.5403C139.03 35.6528 137.489 35.7929 136.623 36.8485C135.756 37.9042 135.893 39.483 136.924 40.3705L167.131 66.3317C168.162 67.2191 169.703 67.079 170.569 66.0234C171.436 64.9677 171.299 63.389 170.268 62.5015V62.5108Z" fill="#A64223"/>
</g>
<path d="M175.157 63.155C175.887 61.9966 175.568 60.4459 174.427 59.6985C173.297 58.9512 171.783 59.2781 171.053 60.4459C167.596 65.9296 151.024 85.7345 137.261 87.0704C133.129 87.4721 129.7 86.1455 126.791 83.016C119.978 75.6919 124.264 63.4166 129.071 54.411C134.58 44.0788 142.04 35.5403 142.113 35.4562C143.016 34.4286 142.934 32.8498 141.931 31.925C140.937 31.0001 139.386 31.0842 138.483 32.1118C137.225 33.5411 109.06 65.9483 121.51 84.2771L114.861 92.3953C114.861 92.3953 116.758 95.8424 121.373 97.9911L127.83 90.1065C130.776 91.7413 134.087 92.3953 137.717 92.0496C154.618 90.4241 172.357 67.5925 175.157 63.1644V63.155Z" fill="#A64223"/>
<path d="M171.226 68.8724C165.818 75.4772 151.735 90.9754 137.754 92.3207C134.169 92.6663 130.858 92.0404 127.912 90.4523L121.592 98.1594C121.51 98.2528 121.382 98.2902 121.273 98.2341C116.63 96.0668 114.715 92.6663 114.633 92.5168C114.578 92.4141 114.587 92.2926 114.66 92.1992L121.181 84.2399C110.474 68.0784 130.366 41.5286 136.732 33.7561C137.58 32.7192 138.137 32.0746 138.292 31.9064C138.775 31.3553 139.441 31.0283 140.171 30.9909C140.891 30.9536 141.584 31.2058 142.122 31.7009C143.217 32.7098 143.326 34.4007 142.387 35.5498L142.323 35.6245C142.277 35.6806 141.83 36.1944 141.101 37.0819C138.958 39.6883 133.531 46.62 129.317 54.5232C124.556 63.4448 120.288 75.5986 126.991 82.8012C129.837 85.8654 133.193 87.1639 137.243 86.7716C147.047 85.828 159.141 75.0007 167.186 65.1824C168.727 63.2953 170.059 61.511 170.834 60.2779C171.655 58.9793 173.342 58.6337 174.583 59.4558C175.194 59.8575 175.613 60.474 175.759 61.2027C175.914 61.9314 175.777 62.6787 175.385 63.3046C174.747 64.3229 173.315 66.3127 171.226 68.8631V68.8724ZM121.3 97.6456L127.63 89.9198C127.712 89.817 127.849 89.789 127.967 89.8544C130.868 91.4612 134.142 92.1058 137.699 91.7601C142.287 91.3211 154.709 88.1635 170.807 68.5081C172.886 65.9764 174.3 64.0053 174.929 63.0057C175.248 62.5012 175.349 61.9127 175.23 61.3242C175.112 60.745 174.774 60.2498 174.291 59.9322C173.297 59.2689 171.947 59.5492 171.29 60.5955C170.506 61.8473 169.156 63.6503 167.596 65.5561C159.488 75.4585 147.266 86.3792 137.288 87.3414C133.066 87.7525 129.563 86.3979 126.599 83.2029C119.667 75.7574 123.991 63.3607 128.834 54.271C133.075 46.321 138.529 39.3613 140.681 36.7362C141.411 35.8394 141.867 35.3256 141.913 35.2695L141.967 35.2041C142.724 34.2793 142.633 32.9341 141.758 32.1213C141.329 31.7196 140.773 31.5234 140.198 31.5514C139.614 31.5795 139.085 31.841 138.693 32.2801C138.538 32.4483 137.982 33.0929 137.143 34.1205C134.434 37.4275 127.648 46.1716 123.124 55.9432C117.606 67.8635 117.141 77.3362 121.738 84.1091C121.811 84.2119 121.802 84.352 121.72 84.4454L115.198 92.4141C115.627 93.096 117.515 95.8239 121.3 97.6456Z" fill="#444444"/>
<g style="mix-blend-mode:screen">
<path d="M115.472 93.2828C116.037 92.4888 116.603 91.6854 117.187 90.9007C118.299 89.406 119.54 87.603 121.099 86.5567C121.875 86.0335 122.668 85.8467 123.48 86.4165C123.991 86.7809 124.483 87.1452 124.976 87.4909C123.152 85.3235 121.665 82.8853 120.798 80.1388C119.284 75.337 119.64 70.2924 120.981 65.4906C122.787 59.0354 125.869 53.234 129.381 47.6008C132.938 41.9116 136.896 36.4933 141.402 31.5514C140.444 31.047 139.24 31.2338 138.483 32.0933C137.225 33.5226 109.06 65.9297 121.51 84.2586L114.861 92.3767C114.861 92.3767 115.052 92.7317 115.463 93.2735L115.472 93.2828Z" fill="#A64223"/>
</g>
<g style="mix-blend-mode:screen">
<path d="M132.318 86.6126C134.726 87.5001 137.471 87.715 139.86 87.5188C144.849 87.1078 149.255 84.4266 153.167 81.3998C161.148 75.2248 168.28 67.9101 173.853 59.4276C172.822 59.082 171.664 59.465 171.053 60.4366C167.596 65.9203 151.024 85.7252 137.261 87.0611C135.492 87.2292 133.85 87.0797 132.318 86.6126Z" fill="#A64223"/>
</g>
<g style="mix-blend-mode:multiply">
<path d="M140.772 32.4672C141.137 33.4855 140.736 34.6532 140.171 35.522C139.24 36.97 138.064 38.2779 137.015 39.6231C133.613 44.0045 130.293 48.4886 127.657 53.4118C124.2 59.839 121.382 67.8544 123.325 74.8609C122.732 68.2655 125.778 60.5677 129.071 54.402C134.58 44.0699 142.04 35.5314 142.113 35.4473C143.016 34.4197 142.934 32.8409 141.931 31.916C141.128 31.1687 139.97 31.0939 139.076 31.6171C139.687 31.5984 140.535 31.8039 140.763 32.4579L140.772 32.4672Z" fill="#A64223"/>
</g>
<g style="mix-blend-mode:multiply">
<path d="M175.157 63.1552C175.887 61.9968 175.568 60.446 174.427 59.6987C173.296 58.9513 171.782 59.2783 171.053 60.446C170.715 60.9879 170.241 61.6698 169.657 62.4639C170.113 62.1556 170.606 61.9501 171.117 62.0248C171.892 62.1463 171.892 63.3888 171.7 63.9399C171.281 65.2011 170.424 66.2848 169.594 67.2843C168.627 68.4427 167.687 69.6478 166.684 70.7689C164.057 73.7116 161.239 76.5422 158.284 79.1392C153.058 83.7355 146.719 88.4251 139.742 89.5181C134.443 90.3589 128.861 89.1444 124.647 85.6319C121.838 83.2964 119.85 80.2696 118.637 76.9065C119.065 79.5223 119.978 82.0072 121.519 84.2773L114.87 92.3954C114.87 92.3954 116.767 95.8426 121.382 97.9912L127.839 90.1067C130.785 91.7415 134.096 92.3954 137.726 92.0498C154.627 90.4243 172.366 67.5926 175.166 63.1645L175.157 63.1552Z" fill="#A64223"/>
</g>
<g style="mix-blend-mode:multiply">
<path d="M175.157 63.1552C175.887 61.9968 175.568 60.446 174.427 59.6987C173.296 58.9513 171.782 59.2783 171.053 60.446C170.715 60.9879 170.241 61.6698 169.657 62.4639C170.113 62.1556 170.606 61.9501 171.117 62.0248C171.892 62.1463 171.892 63.3888 171.7 63.9399C171.281 65.2011 170.424 66.2848 169.594 67.2843C168.627 68.4427 167.687 69.6478 166.684 70.7689C164.057 73.7116 161.239 76.5422 158.284 79.1392C153.058 83.7355 146.719 88.4251 139.742 89.5181C134.443 90.3589 128.861 89.1444 124.647 85.6319C123.38 84.5762 122.294 83.3805 121.355 82.0819C121.765 82.8106 122.249 83.5019 122.778 84.1559C123.653 85.2395 125.049 86.3419 125.541 87.6871C125.879 88.6119 125.514 89.4247 124.994 90.2094C124.009 91.6761 123.106 93.3483 121.884 94.6188C120.461 96.0948 118.837 96.0761 117.214 95.198C118.235 96.1415 119.604 97.1691 121.391 97.9912L127.849 90.1067C130.795 91.7415 134.105 92.3954 137.735 92.0498C154.636 90.4243 172.375 67.5926 175.175 63.1645L175.157 63.1552Z" fill="#A64223"/>
</g>
<path d="M135.711 37.026C135.355 37.4557 134.725 37.5117 134.306 37.1474C133.886 36.7831 133.832 36.1478 134.187 35.7088L135.209 34.4569C135.565 34.0272 136.194 33.9712 136.613 34.3355C137.033 34.6998 137.088 35.3444 136.732 35.7741L135.711 37.026Z" fill="#A64223"/>
<path d="M136.942 35.9515L135.92 37.2033C135.473 37.7545 134.671 37.8199 134.133 37.3621C133.595 36.9044 133.531 36.0823 133.978 35.5311L134.999 34.2793C135.446 33.7281 136.249 33.6627 136.787 34.1205C137.325 34.5783 137.389 35.4003 136.942 35.9515ZM134.388 35.8955C134.133 36.2131 134.169 36.6802 134.479 36.9418C134.789 37.2033 135.245 37.166 135.501 36.8483L136.522 35.5965C136.778 35.2882 136.741 34.8118 136.431 34.5502C136.121 34.2887 135.665 34.326 135.41 34.6436L134.388 35.8955Z" fill="#8B2D08"/>
<path d="M172.412 68.5738C172.056 69.0035 171.427 69.0596 171.007 68.6953C170.588 68.3309 170.533 67.6957 170.889 67.2566L171.91 66.0048C172.266 65.5751 172.886 65.519 173.315 65.8833C173.734 66.2477 173.789 66.8829 173.433 67.322L172.412 68.5738Z" fill="#A64223"/>
<path d="M173.643 67.4994L172.622 68.7512C172.175 69.3024 171.372 69.3678 170.834 68.91C170.296 68.4522 170.232 67.6302 170.679 67.079L171.7 65.8272C172.147 65.276 172.95 65.2106 173.488 65.6684C174.026 66.1261 174.09 66.9482 173.643 67.4994ZM171.098 67.4433C170.843 67.7609 170.88 68.228 171.19 68.4896C171.5 68.7512 171.956 68.7138 172.211 68.3962L173.233 67.1444C173.488 66.8361 173.452 66.3597 173.141 66.0981C172.831 65.8365 172.375 65.8739 172.12 66.1915L171.098 67.4433Z" fill="#8B2D08"/>
<path d="M122.54 92.7878C121.838 93.6379 120.598 93.75 119.768 93.04C118.938 92.3207 118.828 91.0502 119.521 90.2001C120.224 89.35 121.464 89.2379 122.294 89.9478C123.124 90.6672 123.234 91.9377 122.54 92.7878Z" fill="#4B4B4B"/>
<path d="M122.75 92.9651C121.957 93.9366 120.543 94.0581 119.594 93.2453C118.646 92.4326 118.527 90.9846 119.321 90.013C120.114 89.0415 121.528 88.92 122.477 89.7328C123.425 90.5455 123.544 91.9935 122.75 92.9651ZM119.74 90.3774C119.138 91.1154 119.23 92.2084 119.95 92.8249C120.662 93.4415 121.738 93.3481 122.34 92.6101C122.942 91.8721 122.851 90.7791 122.13 90.1625C121.409 89.5459 120.342 89.6393 119.74 90.3774Z" fill="#1F1F1F"/>
<path d="M121.501 91.1715C121.245 91.4798 120.798 91.5171 120.497 91.2649C120.196 91.0127 120.16 90.5456 120.406 90.2373C120.662 89.929 121.109 89.8916 121.409 90.1439C121.71 90.3961 121.747 90.8632 121.501 91.1715Z" fill="#A64223"/>
<path d="M71.6567 197.613C66.8045 193.746 61.9797 188.234 59.1797 184.824L54.7106 179.509L59.8911 173.193C59.3895 171.792 57.1002 169.7 57.1002 169.7C54.6285 167.682 52.6676 167.598 52.6676 167.598L47.7607 173.595L42.0786 170.129C38.3118 167.897 32.1736 163.992 27.6134 159.769C27.6134 159.769 1.30958 186.599 0.251592 197.697C-0.797276 208.795 3.55324 226.19 3.55324 226.19C3.55324 226.19 4.14608 228.498 5.45945 230.319C5.7057 230.721 6.02492 231.076 6.38975 231.384C6.39887 231.394 6.41711 231.412 6.42623 231.422C6.44447 231.431 6.45359 231.45 6.47183 231.459C6.82754 231.777 7.22884 232.038 7.65751 232.216C9.63668 233.225 11.9624 233.421 11.9624 233.421C11.9624 233.421 29.4466 234.794 39.9353 231.805C50.4239 228.815 71.6476 197.623 71.6476 197.623L71.6567 197.613Z" fill="#A64223"/>
<path d="M59.2071 214.672C50.7523 224.994 44.2949 230.842 40.0173 232.066C29.6016 235.037 12.1266 233.71 11.9533 233.692C11.853 233.692 9.55458 233.477 7.54805 232.459C7.12851 232.29 6.69984 232.019 6.29853 231.664L6.4171 231.403L6.24381 231.618C6.24381 231.618 6.20733 231.58 6.19821 231.58C5.80602 231.253 5.46856 230.87 5.2223 230.459C3.90894 228.638 3.30698 226.349 3.27962 226.256C3.23401 226.078 -1.08002 208.683 -0.0311567 197.66C0.397511 193.138 4.90308 185.609 13.3579 175.286C20.2439 166.878 27.3306 159.638 27.4036 159.564C27.5039 159.461 27.6681 159.451 27.7775 159.564C32.429 163.87 38.8043 167.887 42.1972 169.886L47.6878 173.231L52.4487 167.42C52.5034 167.355 52.5855 167.317 52.6676 167.317C52.7497 167.317 54.738 167.429 57.2553 169.475C57.3647 169.569 59.6084 171.643 60.1283 173.091C60.1647 173.184 60.1465 173.287 60.0826 173.362L55.0572 179.499L59.3804 184.628C61.8976 187.701 66.8684 193.437 71.8117 197.38C71.9212 197.473 71.9485 197.641 71.8664 197.753C71.8117 197.837 66.0749 206.245 59.1888 214.653L59.2071 214.672ZM13.7957 175.641C5.5324 185.73 0.944746 193.363 0.525199 197.716C-0.505427 208.637 3.78125 225.947 3.81773 226.115C3.81773 226.134 4.41969 228.395 5.67833 230.151C5.90635 230.525 6.20733 230.861 6.56303 231.169L6.60863 231.207L6.65423 231.244C7.00994 231.552 7.38388 231.795 7.76695 231.954C9.69139 232.935 11.9715 233.141 11.9898 233.141C12.1631 233.15 29.5469 234.476 39.8714 231.534C43.9757 230.366 50.5243 224.406 58.7875 214.317C65.0442 206.675 70.3524 199.042 71.2918 197.669C66.3667 193.699 61.4781 188.047 58.9791 185.002L54.51 179.695C54.4188 179.593 54.4188 179.443 54.51 179.331L59.581 173.137C59.0064 171.82 56.9452 169.914 56.9269 169.896C54.9204 168.261 53.2604 167.943 52.7953 167.878L47.9796 173.754C47.8975 173.857 47.7516 173.885 47.633 173.81L41.9509 170.344C38.5945 168.354 32.3013 164.403 27.6316 160.124C26.4824 161.31 20.0524 167.99 13.7957 175.622V175.641Z" fill="#444444"/>
<g style="mix-blend-mode:multiply">
<path d="M71.6567 197.613C66.8045 193.746 61.9797 188.234 59.1797 184.824L54.7106 179.509L59.8911 173.194C59.3895 171.792 57.1002 169.7 57.1002 169.7C54.9842 167.971 53.2422 167.663 52.7953 167.607C54.7197 168.242 57.8572 169.812 55.9784 171.708C55.8598 171.82 55.7321 171.83 55.5953 171.746C54.1634 170.783 52.1386 170.765 51.0806 172.334C50.0318 173.894 50.7523 175.482 52.2663 176.332C52.4305 176.426 52.467 176.613 52.3575 176.762C49.7308 180.583 46.4656 183.759 43.4285 187.225C40.8656 190.149 38.5489 193.381 35.3202 195.586C35.1196 195.726 34.8733 195.549 34.9007 195.315C35.2473 191.952 37.3906 188.981 39.16 186.225C41.048 183.292 42.8174 180.275 44.8421 177.444C41.1118 181.134 38.6401 186.141 35.3294 190.177C33.0948 192.914 30.8512 195.652 28.7534 198.501C27.6498 200.005 26.4642 201.509 25.5521 203.153C24.8316 204.452 23.4179 207.936 26.3456 207.31C28.343 206.88 30.1124 205.629 31.8271 204.545C33.5417 203.471 35.2382 202.331 36.9711 201.275C38.4212 200.397 40.0265 199.472 41.7594 199.612C41.9418 199.631 42.0148 199.846 41.96 200.005C40.674 203.48 37.9287 206.114 35.603 208.87C32.7391 212.261 29.7476 215.568 26.5736 218.651C22.898 222.239 18.0094 226.433 12.6647 226.676C6.46271 226.956 4.60211 220.604 3.49852 215.466C2.00274 208.525 1.41902 200.743 3.8451 193.951C5.06726 190.532 6.88226 187.44 8.8067 184.394C11.1781 180.63 13.7045 176.977 16.395 173.446C19.9703 168.747 23.7827 164.235 27.7319 159.863C27.6863 159.825 27.6498 159.788 27.6042 159.75C27.6042 159.75 1.30045 186.58 0.242467 197.679C-0.806401 208.777 3.54412 226.172 3.54412 226.172C3.54412 226.172 4.13696 228.479 5.45032 230.301C5.69658 230.702 6.0158 231.057 6.38062 231.366C6.38974 231.375 6.40798 231.394 6.41711 231.403C6.43535 231.412 6.44447 231.431 6.46271 231.44C6.81841 231.758 7.21972 232.02 7.64838 232.197C9.62755 233.206 11.9533 233.402 11.9533 233.402C11.9533 233.402 29.4375 234.775 39.9261 231.786C50.4148 228.797 71.6384 197.604 71.6384 197.604L71.6567 197.613Z" fill="#A64223"/>
</g>
<g style="mix-blend-mode:multiply">
<path d="M71.6567 197.613C66.8045 193.746 61.9797 188.234 59.1797 184.824L54.7106 179.509L59.8911 173.194C59.809 172.969 59.6722 172.717 59.5172 172.465C55.9419 176.323 52.7041 180.499 49.1471 184.376C48.08 185.534 47.0037 186.674 45.9184 187.804C47.3594 186.609 48.837 185.403 50.424 184.441C51.181 183.983 51.9289 183.628 52.8227 183.853C54.1999 184.189 55.4494 185.562 56.4435 186.478C57.9758 187.898 59.3165 189.467 60.7667 190.981C62.5999 192.905 65.327 195.194 64.6247 198.23C63.9315 201.238 61.5328 203.686 59.6358 205.956C56.7354 209.421 53.6526 212.71 50.4969 215.933C45.1979 221.342 39.7802 226.695 32.7483 229.656C25.9261 232.533 18.9214 233.01 11.6432 232.72C10.5487 232.674 9.45427 232.618 8.35068 232.515C10.1474 233.253 11.9716 233.412 11.9716 233.412C11.9716 233.412 29.4557 234.785 39.9444 231.795C50.4331 228.806 71.6567 197.613 71.6567 197.613Z" fill="#A64223"/>
</g>
<path d="M55.039 174.847C54.3367 175.697 53.0963 175.81 52.2663 175.1C51.4363 174.38 51.3269 173.11 52.0201 172.26C52.7223 171.41 53.9627 171.297 54.7927 172.007C55.6227 172.727 55.7321 173.997 55.039 174.847Z" fill="#4B4B4B"/>
<path d="M55.2487 175.025C54.4552 175.996 53.0416 176.118 52.093 175.305C51.1445 174.492 51.0259 173.044 51.8194 172.073C52.6129 171.101 54.0266 170.98 54.9751 171.792C55.9237 172.605 56.0422 174.053 55.2487 175.025ZM52.2389 172.437C51.637 173.175 51.7282 174.268 52.4487 174.885C53.1601 175.501 54.2363 175.408 54.8383 174.67C55.4403 173.932 55.3491 172.839 54.6285 172.222C53.908 171.605 52.8409 171.699 52.2389 172.437Z" fill="#1F1F1F"/>
<path d="M53.9992 173.231C53.7438 173.539 53.2969 173.577 52.9959 173.324C52.695 173.063 52.6585 172.605 52.9047 172.297C53.151 171.989 53.607 171.951 53.908 172.203C54.209 172.465 54.2455 172.923 53.9992 173.231Z" fill="#A64223"/>
<g style="mix-blend-mode:multiply">
<path d="M46.4474 175.118C46.4474 175.118 31.3893 195.194 26.6466 204.349C26.6466 204.349 25.47 207.152 27.2759 206.703C29.0818 206.255 48.8643 185.357 53.0963 180.835C53.0963 180.835 30.459 203.275 29.7202 202.462C28.9723 201.64 46.4474 175.128 46.4474 175.128V175.118Z" fill="#A64223"/>
</g>
<g style="mix-blend-mode:screen">
<path d="M27.5586 161.862C27.5586 161.862 12.3364 179.836 7.36566 190.177C2.39494 200.528 4.95782 214.737 4.95782 214.737C4.95782 214.737 5.2588 196.857 9.17154 190.784C13.0843 184.712 28.8355 164.618 28.8355 164.618L44.3679 173.324L27.5586 161.853V161.862Z" fill="#A64223"/>
</g>
<g style="mix-blend-mode:screen">
<path d="M52.7862 168.177C52.7862 168.177 39.835 184.245 36.2141 191.784C36.2141 191.784 49.5575 174.884 52.7862 168.177Z" fill="#A64223"/>
</g>
<path d="M52.6843 83.9785L128.239 176.211C129.398 177.622 129.215 179.724 127.838 180.91C126.461 182.097 124.409 181.91 123.25 180.499L47.6954 88.2665L52.6843 83.9785Z" fill="#A64223"/>
<path d="M47.4856 88.4438L123.041 180.677C124.29 182.199 126.515 182.405 128.011 181.125C129.498 179.845 129.699 177.566 128.449 176.034L52.8941 83.8009C52.7938 83.6795 52.6296 83.6701 52.511 83.7635L47.5221 88.0515C47.4035 88.1542 47.3944 88.3224 47.4856 88.4438ZM128.029 176.389C129.087 177.678 128.923 179.612 127.665 180.695C126.406 181.779 124.518 181.611 123.46 180.322L48.0784 88.3037L52.6478 84.3708L128.029 176.389Z" fill="#8B580E"/>
<g style="mix-blend-mode:screen">
<path d="M114.084 161.666C113.364 160.255 112.962 158.723 112.561 157.191C112.534 157.088 112.762 157.107 112.789 157.191C113.309 158.854 113.883 160.451 114.713 161.983C115.589 163.59 116.191 165.206 117.732 166.29C119.009 167.187 120.268 168.289 121.672 168.971C122.813 169.532 123.706 170.41 124.463 171.437C124.536 171.531 124.317 171.54 124.263 171.493C123.597 170.765 122.977 170.083 122.138 169.55C121.527 169.158 120.842 168.868 120.213 168.476C118.882 167.644 117.431 166.766 116.31 165.655C115.233 164.59 114.75 162.992 114.075 161.666H114.084Z" fill="#A64223"/>
</g>
<g style="mix-blend-mode:screen">
<path d="M112.607 161.796C111.384 159.47 110.427 157.116 109.962 154.5C109.934 154.351 110.244 154.388 110.272 154.5C110.828 157.06 111.84 159.442 113.126 161.703C114.476 164.076 115.972 166.673 117.915 168.579C119.739 170.372 121.964 171.624 124.016 173.1C125.941 174.483 127.291 176.463 129.124 177.93C129.261 178.033 128.996 178.098 128.914 178.042C126.871 176.603 125.448 174.455 123.36 173.016C121.207 171.54 118.991 170.26 117.103 168.411C115.288 166.626 113.801 164.02 112.607 161.768V161.796Z" fill="#A64223"/>
</g>
<g style="mix-blend-mode:screen">
<path d="M111.658 163.366C111.348 161.591 109.861 159.798 109.031 158.237C108.183 156.64 107.308 155.061 106.623 153.38C105.839 151.474 105.091 149.652 104.024 147.896C103.03 146.261 102.072 144.598 101.051 142.982C100.96 142.842 101.261 142.851 101.334 142.935C102.401 144.281 103.294 145.943 104.188 147.419C105.109 148.924 105.903 150.418 106.56 152.062C107.344 154.024 108.256 155.855 109.232 157.724C110.108 159.386 111.202 160.965 111.996 162.665C112.251 163.217 112.351 163.843 112.534 164.422C112.844 165.393 113.619 166.337 114.221 167.131C115.58 168.887 117.212 170.466 118.809 171.998C120.414 173.53 122.11 174.829 123.943 176.062C125.448 177.08 126.899 178.192 128.02 179.658C128.112 179.771 127.838 179.789 127.774 179.724C124.974 176.781 121.28 174.969 118.325 172.185C116.921 170.868 115.489 169.476 114.267 167.981C113.154 166.626 111.968 165.169 111.658 163.375V163.366Z" fill="#A64223"/>
</g>
<g style="mix-blend-mode:screen">
<path d="M106.213 155.883C105.347 154.772 104.599 153.492 103.823 152.315C102.109 149.708 100.403 147.102 98.6703 144.496C97.1563 142.226 95.6058 139.918 94.3015 137.508C93.5992 136.209 92.9608 134.873 92.2038 133.594C91.6566 132.669 91.0637 131.809 90.7171 130.772C90.6807 130.651 90.9543 130.679 90.9908 130.772C91.8116 132.949 93.2891 134.948 94.3654 137.013C95.5419 139.283 96.9739 141.441 98.3693 143.58C99.7739 145.747 101.261 147.868 102.656 150.035C103.422 151.231 104.206 152.408 105.027 153.567C105.155 153.753 105.52 154.379 105.903 154.949C105.565 154.155 105.31 153.286 104.909 152.604C103.978 151.044 103.276 149.316 102.364 147.737C101.507 146.243 100.768 144.664 99.9198 143.169C99.4729 142.375 99.1719 141.609 98.6156 140.871C98.3146 140.469 98.0136 139.983 97.8859 139.498C97.8586 139.386 98.1048 139.414 98.1322 139.498C98.5061 140.703 99.6371 141.572 100.13 142.739C100.85 144.43 101.926 146.074 102.838 147.663C103.668 149.111 104.462 150.577 105.21 152.072C105.511 152.67 105.857 153.221 106.122 153.838C106.432 154.557 106.669 155.5 107.125 156.126C107.253 156.294 106.952 156.35 106.851 156.322C106.523 156.257 106.414 156.117 106.213 155.855V155.883Z" fill="#A64223"/>
</g>
<g style="mix-blend-mode:screen">
<path d="M101.087 151.165C100.175 150.091 99.5094 148.858 98.7524 147.672C97.7856 146.167 96.7459 144.719 95.77 143.225C93.9824 140.497 92.1582 137.872 90.6351 134.976C89.194 132.248 87.8351 129.445 86.4761 126.671C86.4123 126.54 86.6676 126.549 86.7132 126.634C89.5954 132.173 92.5778 137.545 96.071 142.702C96.9648 144.028 97.8404 145.355 98.7251 146.691C99.6827 148.139 100.485 149.689 101.562 151.044C103.632 153.622 105.702 156.266 107.207 159.246C107.262 159.349 107.052 159.34 107.007 159.274C105.173 156.453 103.258 153.716 101.078 151.165H101.087Z" fill="#A64223"/>
</g>
<g style="mix-blend-mode:screen">
<path d="M88.3549 134.219C87.4064 132.426 86.3575 130.66 85.3634 128.904C84.4969 127.362 83.7764 125.625 83.065 123.999C82.2259 122.084 81.323 120.216 80.3927 118.338C80.3562 118.263 80.5112 118.263 80.5386 118.319C84.3145 125.13 87.6527 132.192 91.0911 139.18C91.1367 139.273 90.9543 139.264 90.9178 139.208C89.951 137.61 89.2214 135.882 88.3458 134.229L88.3549 134.219Z" fill="#A64223"/>
</g>
<g style="mix-blend-mode:screen">
<path d="M78.222 118.095C76.9451 115.685 75.3216 113.443 74.5555 110.79C74.5281 110.696 74.7379 110.715 74.7653 110.79C75.7138 113.406 77.4558 115.592 78.7966 118.002C80.2194 120.561 81.6057 123.121 82.8279 125.793C82.8917 125.924 82.6363 125.914 82.5907 125.83C81.0493 123.308 79.6083 120.711 78.2128 118.095H78.222Z" fill="#A64223"/>
</g>
<g style="mix-blend-mode:screen">
<path d="M79.435 123C78.532 121.617 77.5105 120.262 76.4799 118.973C74.4095 116.367 72.248 113.863 70.1046 111.313C67.9339 108.725 66.4746 105.68 64.6231 102.868C62.6805 99.925 60.373 97.3093 58.1931 94.5534C58.1019 94.4413 58.3847 94.4133 58.4485 94.488C60.6648 97.0664 63.0179 99.514 64.9606 102.317C66.885 105.091 68.3717 108.165 70.4694 110.818C71.5457 112.182 72.7496 113.433 73.8441 114.779C74.8291 115.974 75.6955 117.273 76.6532 118.497C78.6689 121.056 80.1829 123.84 81.8884 126.596C81.9523 126.708 81.7242 126.699 81.6695 126.634C80.8487 125.466 80.2102 124.186 79.4259 123H79.435Z" fill="#A64223"/>
</g>
<g style="mix-blend-mode:screen">
<path d="M75.0753 119.674C73.8349 117.908 72.5854 116.171 71.3724 114.386C70.6063 113.256 69.5391 112.387 68.6636 111.36C68.0069 110.594 67.4505 109.734 66.8303 108.931C66.7665 108.856 66.958 108.847 67.0036 108.903C67.7606 109.809 68.4629 110.743 69.2655 111.612C69.9861 112.397 70.8343 113.051 71.5001 113.901C72.8499 115.601 73.9261 117.507 75.2486 119.226C76.489 120.842 77.3828 122.71 78.6415 124.317C80.0917 126.176 81.4141 128.1 82.7458 130.044C82.8187 130.156 82.5725 130.156 82.5177 130.081C80.0096 126.624 77.5197 123.177 75.0662 119.683L75.0753 119.674Z" fill="#A64223"/>
</g>
<g style="mix-blend-mode:screen">
<path d="M66.0825 102.774C64.6414 101.018 63.6017 98.9815 62.6714 96.9169C62.6349 96.8329 62.7899 96.8422 62.8173 96.8982C63.8753 98.9535 65.061 100.925 66.502 102.718C67.9887 104.568 69.5483 106.324 70.9072 108.277C70.962 108.361 70.7796 108.361 70.734 108.305C69.2473 106.408 67.6056 104.652 66.0733 102.793L66.0825 102.774Z" fill="#A64223"/>
</g>
<g style="mix-blend-mode:screen">
<path d="M58.941 99.5515C58.8772 99.43 59.1234 99.43 59.1782 99.5141C59.5248 100.121 59.9625 100.654 60.4003 101.196C60.4915 101.308 60.2179 101.336 60.1541 101.261C59.698 100.729 59.2785 100.168 58.9502 99.5515H58.941Z" fill="#A64223"/>
</g>
<g style="mix-blend-mode:multiply">
<path d="M52.6843 83.9785L61.1755 94.3387C60.8654 95.4878 59.9808 96.478 60.0081 97.7485C60.0355 99.1778 60.6192 100.439 61.513 101.532C64.1853 104.802 67.1313 107.856 69.9313 111.014C72.9046 114.377 75.6499 117.908 78.4499 121.421C84.0956 128.521 89.9145 135.471 95.7699 142.384C101.644 149.316 107.554 156.22 113.345 163.226C116.218 166.701 118.973 170.261 121.745 173.82C123.624 176.23 125.886 178.5 127.719 181.013C126.342 182.087 124.381 181.873 123.259 180.509L47.7044 88.2758L52.6934 83.9879L52.6843 83.9785Z" fill="#A64223"/>
</g>
<g style="mix-blend-mode:screen">
<path d="M117.386 164.795C114.303 161.283 111.302 157.733 108.42 154.043C105.93 150.857 103.395 147.7 100.421 144.981C93.1888 136.125 85.8467 127.381 78.3861 118.712C70.8707 109.986 64.5775 100.299 58.184 90.7046L128.23 176.211C128.723 176.809 128.969 177.528 128.987 178.248C125.439 173.511 121.308 169.261 117.377 164.795H117.386Z" fill="#A64223"/>
</g>
<path d="M8.49506 66.3502L38.7024 40.389C39.7331 39.5015 39.8699 37.9227 39.0034 36.8671C38.137 35.8115 36.5956 35.6713 35.565 36.5588L5.35757 62.52C4.32695 63.4075 4.19014 64.9863 5.05659 66.0419C5.92305 67.0976 7.46443 67.2377 8.49506 66.3502Z" fill="#A64223"/>
<path d="M4.85594 66.2193C5.8136 67.3964 7.52826 67.5459 8.67746 66.5649L38.8849 40.6037C40.0341 39.6228 40.18 37.8666 39.2223 36.6895C38.2647 35.5124 36.55 35.3629 35.4008 36.3438L5.1934 62.305C4.0442 63.2859 3.89828 65.0422 4.85594 66.2193ZM38.8028 37.0445C39.5689 37.988 39.4503 39.3893 38.5383 40.174L8.33088 66.1352C7.4097 66.9199 6.04161 66.7985 5.27548 65.8643C4.50935 64.9301 4.62793 63.5195 5.53999 62.7348L35.7474 36.7736C36.6686 35.9888 38.0366 36.1103 38.8028 37.0445Z" fill="#8B2D08"/>
<g style="mix-blend-mode:screen">
<path d="M4.50022 64.5377C4.47285 63.7903 4.7556 63.0336 5.35756 62.5198L35.565 36.5586C36.1669 36.0448 36.9422 35.886 37.6536 36.0448L4.50022 64.5377Z" fill="#A64223"/>
</g>
<g style="mix-blend-mode:multiply">
<path d="M5.35757 62.5108L5.6312 62.2679C11.5596 62.2025 17.342 57.5596 21.6378 54.019C24.8848 51.3472 28.0314 48.4419 30.576 45.0414C32.2177 42.8461 34.1148 40.2397 34.5526 37.4091L35.565 36.5403C36.5956 35.6528 38.137 35.7929 39.0034 36.8485C39.8699 37.9042 39.7331 39.483 38.7024 40.3705L8.49506 66.3317C7.46443 67.2191 5.92305 67.079 5.05659 66.0234C4.19014 64.9677 4.32695 63.389 5.35757 62.5015V62.5108Z" fill="#A64223"/>
</g>
<path d="M0.468918 63.155C-0.260731 61.9966 0.0584908 60.4459 1.19857 59.6985C2.32952 58.9512 3.84353 59.2781 4.57318 60.4459C8.02988 65.9296 24.602 85.7345 38.365 87.0704C42.4966 87.4721 45.9259 86.1455 48.8354 83.016C55.6485 75.6919 51.3618 63.4166 46.5553 54.411C41.0464 44.0788 33.5858 35.5403 33.5128 35.4562C32.6099 34.4286 32.692 32.8498 33.6952 31.925C34.6894 31.0001 36.2399 31.0842 37.1428 32.1118C38.4015 33.5411 66.5658 65.9483 54.1162 84.2771L60.7651 92.3953C60.7651 92.3953 58.868 95.8424 54.253 97.9911L47.7957 90.1065C44.8497 91.7413 41.5389 92.3953 37.9089 92.0496C21.0085 90.4241 3.26894 67.5925 0.468918 63.1644V63.155Z" fill="#A64223"/>
<path d="M4.39989 68.8724C9.8084 75.4772 23.8906 90.9754 37.8725 92.3207C41.4568 92.6663 44.7676 92.0404 47.7136 90.4523L54.0341 98.1594C54.1162 98.2528 54.2439 98.2902 54.3533 98.2341C58.9957 96.0668 60.9111 92.6663 60.9931 92.5168C61.0479 92.4141 61.0387 92.2926 60.9658 92.1992L54.4446 84.2399C65.1521 68.0784 45.2601 41.5286 38.894 33.7561C38.0457 32.7192 37.4894 32.0746 37.3343 31.9064C36.8509 31.3553 36.1851 31.0283 35.4555 30.9909C34.735 30.9536 34.0418 31.2058 33.5037 31.7009C32.4092 32.7098 32.2998 34.4007 33.2392 35.5498L33.303 35.6245C33.3486 35.6806 33.7956 36.1944 34.5252 37.0819C36.6685 39.6883 42.0953 46.62 46.309 54.5232C51.0699 63.4448 55.3384 75.5986 48.6347 82.8012C45.7891 85.8654 42.4327 87.1639 38.3832 86.7716C28.5786 85.828 16.4847 75.0007 8.44031 65.1824C6.89893 63.2953 5.56732 61.511 4.79207 60.2779C3.97122 58.9793 2.28391 58.6337 1.04351 59.4558C0.43243 59.8575 0.0128899 60.474 -0.133038 61.2027C-0.28809 61.9314 -0.151291 62.6787 0.240894 63.3046C0.879337 64.3229 2.31128 66.3127 4.39989 68.8631V68.8724ZM54.326 97.6456L47.9963 89.9198C47.9142 89.817 47.7774 89.789 47.6588 89.8544C44.7585 91.4612 41.4842 92.1058 37.9272 91.7601C33.3395 91.3211 20.9173 88.1635 4.81943 68.5081C2.73994 65.9764 1.32624 64.0053 0.696926 63.0057C0.377705 62.5012 0.277374 61.9127 0.395943 61.3242C0.514511 60.745 0.851986 60.2498 1.33538 59.9322C2.32952 59.2689 3.67936 59.5492 4.33604 60.5955C5.12041 61.8473 6.47026 63.6503 8.02988 65.5561C16.1381 75.4585 28.3597 86.3792 38.3376 87.3414C42.5604 87.7525 46.0627 86.3979 49.0269 83.2029C55.9586 75.7574 51.6354 63.3607 46.7924 54.271C42.5513 46.321 37.0972 39.3613 34.9447 36.7362C34.2151 35.8394 33.7591 35.3256 33.7135 35.2695L33.6587 35.2041C32.9017 34.2793 32.9929 32.9341 33.8685 32.1213C34.2972 31.7196 34.8535 31.5234 35.4281 31.5514C36.0118 31.5795 36.5408 31.841 36.933 32.2801C37.0881 32.4483 37.6444 33.0929 38.4835 34.1205C41.1923 37.4275 47.9781 46.1716 52.5019 55.9432C58.0198 67.8635 58.485 77.3362 53.8882 84.1091C53.8152 84.2119 53.8244 84.352 53.9064 84.4454L60.4277 92.4141C59.999 93.096 58.111 95.8239 54.326 97.6456Z" fill="#444444"/>
<g style="mix-blend-mode:screen">
<path d="M60.1541 93.2828C59.5886 92.4888 59.0231 91.6854 58.4394 90.9007C57.3267 89.406 56.0863 87.603 54.5267 86.5567C53.7514 86.0335 52.9579 85.8467 52.1462 86.4165C51.6354 86.7809 51.1429 87.1452 50.6504 87.4909C52.4745 85.3235 53.9612 82.8853 54.8276 80.1388C56.3416 75.337 55.9859 70.2924 54.6452 65.4906C52.8393 59.0354 49.7566 53.234 46.2452 47.6008C42.6881 41.9116 38.7298 36.4933 34.2242 31.5514C35.1819 31.047 36.3858 31.2338 37.1428 32.0933C38.4015 33.5226 66.5658 65.9297 54.1162 84.2586L60.7651 92.3767C60.7651 92.3767 60.5736 92.7317 60.1632 93.2735L60.1541 93.2828Z" fill="#A64223"/>
</g>
<g style="mix-blend-mode:screen">
<path d="M43.3083 86.6126C40.9005 87.5001 38.1552 87.715 35.7656 87.5188C30.7767 87.1078 26.3714 84.4266 22.4587 81.3998C14.4782 75.2248 7.34587 67.9101 1.77319 59.4276C2.80382 59.082 3.96213 59.465 4.57321 60.4366C8.02991 65.9203 24.602 85.7252 38.365 87.0611C40.1344 87.2292 41.7761 87.0797 43.3083 86.6126Z" fill="#A64223"/>
</g>
<g style="mix-blend-mode:multiply">
<path d="M34.8536 32.4672C34.4887 33.4855 34.89 34.6532 35.4555 35.522C36.3858 36.97 37.5624 38.2779 38.6112 39.6231C42.0132 44.0045 45.3331 48.4886 47.969 53.4118C51.4257 59.839 54.2439 67.8544 52.3012 74.8609C52.8941 68.2655 49.8478 60.5677 46.5553 54.402C41.0464 44.0699 33.5858 35.5314 33.5128 35.4473C32.6099 34.4197 32.692 32.8409 33.6952 31.916C34.4979 31.1687 35.6562 31.0939 36.55 31.6171C35.9389 31.5984 35.0907 31.8039 34.8627 32.4579L34.8536 32.4672Z" fill="#A64223"/>
</g>
<g style="mix-blend-mode:multiply">
<path d="M0.468945 63.1552C-0.260704 61.9968 0.0585213 60.446 1.19859 59.6987C2.32955 58.9513 3.84356 59.2783 4.57321 60.446C4.91067 60.9879 5.38494 61.6698 5.96866 62.4639C5.51263 62.1556 5.02013 61.9501 4.50937 62.0248C3.73412 62.1463 3.73412 63.3888 3.92566 63.9399C4.3452 65.2011 5.20253 66.2848 6.03251 67.2843C6.99929 68.4427 7.93871 69.6478 8.94198 70.7689C11.5687 73.7116 14.387 76.5422 17.342 79.1392C22.5681 83.7355 28.9069 88.4251 35.8842 89.5181C41.1833 90.3589 46.7651 89.1444 50.9788 85.6319C53.7879 83.2964 55.7762 80.2696 56.9892 76.9065C56.5606 79.5223 55.6485 82.0072 54.1071 84.2773L60.756 92.3954C60.756 92.3954 58.859 95.8426 54.2439 97.9912L47.7866 90.1067C44.8406 91.7415 41.5298 92.3954 37.8998 92.0498C20.9994 90.4243 3.25985 67.5926 0.459827 63.1645L0.468945 63.1552Z" fill="#A64223"/>
</g>
<g style="mix-blend-mode:multiply">
<path d="M0.468918 63.1552C-0.260731 61.9968 0.0584946 60.446 1.19857 59.6987C2.32952 58.9513 3.84354 59.2783 4.57318 60.446C4.91064 60.9879 5.38491 61.6698 5.96863 62.4639C5.5126 62.1556 5.0201 61.9501 4.50935 62.0248C3.7341 62.1463 3.7341 63.3888 3.92563 63.9399C4.34518 65.2011 5.20251 66.2848 6.03248 67.2843C6.99926 68.4427 7.93869 69.6478 8.94195 70.7689C11.5687 73.7116 14.3869 76.5422 17.342 79.1392C22.5681 83.7355 28.9069 88.4251 35.8842 89.5181C41.1832 90.3589 46.765 89.1444 50.9787 85.6319C52.2465 84.5762 53.3319 83.3805 54.2713 82.0819C53.8609 82.8106 53.3775 83.5019 52.8485 84.1559C51.9729 85.2395 50.5774 86.3419 50.0849 87.6871C49.7475 88.6119 50.1123 89.4247 50.6322 90.2094C51.6172 91.6761 52.5201 93.3483 53.7423 94.6188C55.1651 96.0948 56.7886 96.0761 58.412 95.198C57.3905 96.1415 56.0224 97.1691 54.2348 97.9912L47.7774 90.1067C44.8315 91.7415 41.5207 92.3954 37.8907 92.0498C20.9902 90.4243 3.25071 67.5926 0.450687 63.1645L0.468918 63.1552Z" fill="#A64223"/>
</g>
<path d="M39.9155 37.026C40.2712 37.4557 40.9005 37.5117 41.3201 37.1474C41.7396 36.7831 41.7943 36.1478 41.4386 35.7088L40.4171 34.4569C40.0614 34.0272 39.4321 33.9712 39.0125 34.3355C38.593 34.6998 38.5383 35.3444 38.894 35.7741L39.9155 37.026Z" fill="#A64223"/>
<path d="M38.6842 35.9515L39.7057 37.2033C40.1526 37.7545 40.9552 37.8199 41.4934 37.3621C42.0315 36.9044 42.0953 36.0823 41.6484 35.5311L40.6269 34.2793C40.18 33.7281 39.3774 33.6627 38.8393 34.1205C38.3012 34.5783 38.2373 35.4003 38.6842 35.9515ZM41.238 35.8955C41.4934 36.2131 41.4569 36.6802 41.1468 36.9418C40.8367 37.2033 40.3807 37.166 40.1253 36.8483L39.1038 35.5965C38.8484 35.2882 38.8849 34.8118 39.195 34.5502C39.5051 34.2887 39.9611 34.326 40.2165 34.6436L41.238 35.8955Z" fill="#8B2D08"/>
<path d="M3.21422 68.5738C3.56992 69.0035 4.19924 69.0596 4.61878 68.6953C5.03833 68.3309 5.09306 67.6957 4.73736 67.2566L3.71585 66.0048C3.36015 65.5751 2.73994 65.519 2.31128 65.8833C1.89173 66.2477 1.837 66.8829 2.1927 67.322L3.21422 68.5738Z" fill="#A64223"/>
<path d="M1.98293 67.4994L3.00443 68.7512C3.45134 69.3024 4.25395 69.3678 4.79207 68.91C5.33018 68.4522 5.39403 67.6302 4.94712 67.079L3.92562 65.8272C3.47871 65.276 2.67609 65.2106 2.13797 65.6684C1.59986 66.1261 1.53602 66.9482 1.98293 67.4994ZM4.52758 67.4433C4.78295 67.7609 4.74647 68.228 4.43637 68.4896C4.12627 68.7512 3.67024 68.7138 3.41486 68.3962L2.39335 67.1444C2.13797 66.8361 2.17446 66.3597 2.48456 66.0981C2.79466 65.8365 3.25069 65.8739 3.50606 66.1915L4.52758 67.4433Z" fill="#8B2D08"/>
<path d="M53.0856 92.7878C53.7879 93.6379 55.0283 93.75 55.8583 93.04C56.6883 92.3207 56.7977 91.0502 56.1045 90.2001C55.4023 89.35 54.1619 89.2379 53.3319 89.9478C52.5019 90.6672 52.3925 91.9377 53.0856 92.7878Z" fill="#4B4B4B"/>
<path d="M52.8758 92.9651C53.6693 93.9366 55.083 94.0581 56.0316 93.2453C56.9801 92.4326 57.0987 90.9846 56.3052 90.013C55.5117 89.0415 54.098 88.92 53.1495 89.7328C52.2009 90.5455 52.0824 91.9935 52.8758 92.9651ZM55.8856 90.3774C56.4876 91.1154 56.3964 92.2084 55.6759 92.8249C54.9645 93.4415 53.8882 93.3481 53.2863 92.6101C52.6843 91.8721 52.7755 90.7791 53.496 90.1625C54.2166 89.5459 55.2837 89.6393 55.8856 90.3774Z" fill="#1F1F1F"/>
<path d="M54.1253 91.1715C54.3807 91.4798 54.8276 91.5171 55.1286 91.2649C55.4296 91.0127 55.4661 90.5456 55.2198 90.2373C54.9644 89.929 54.5175 89.8916 54.2165 90.1439C53.9156 90.3961 53.8791 90.8632 54.1253 91.1715Z" fill="#A64223"/>
<path d="M103.969 197.614C108.822 193.746 113.646 188.234 116.446 184.825L120.915 179.509L115.735 173.194C116.237 171.793 118.526 169.7 118.526 169.7C120.998 167.682 122.958 167.598 122.958 167.598L127.865 173.596L133.547 170.13C137.314 167.897 143.452 163.992 148.013 159.77C148.013 159.77 174.316 186.6 175.374 197.698C176.423 208.796 172.073 226.191 172.073 226.191C172.073 226.191 171.48 228.498 170.167 230.32C169.92 230.721 169.601 231.076 169.236 231.385C169.227 231.394 169.209 231.413 169.2 231.422C169.182 231.431 169.172 231.45 169.154 231.459C168.799 231.777 168.397 232.039 167.969 232.216C165.989 233.225 163.664 233.421 163.664 233.421C163.664 233.421 146.179 234.795 135.691 231.805C125.202 228.816 103.979 197.623 103.979 197.623L103.969 197.614Z" fill="#A64223"/>
<path d="M116.419 214.672C124.874 224.995 131.331 230.843 135.609 232.067C146.024 235.037 163.499 233.711 163.673 233.692C163.773 233.692 166.071 233.477 168.078 232.459C168.498 232.291 168.926 232.02 169.328 231.665L169.209 231.403L169.382 231.618C169.382 231.618 169.419 231.581 169.428 231.581C169.82 231.254 170.158 230.871 170.404 230.46C171.717 228.638 172.319 226.349 172.346 226.256C172.392 226.079 176.706 208.684 175.657 197.66C175.229 193.139 170.723 185.609 162.268 175.286C155.382 166.879 148.295 159.639 148.222 159.564C148.122 159.461 147.958 159.452 147.849 159.564C143.197 163.871 136.822 167.888 133.429 169.887L127.938 173.231L123.177 167.421C123.123 167.355 123.041 167.318 122.958 167.318C122.876 167.318 120.888 167.43 118.371 169.476C118.261 169.569 116.018 171.643 115.498 173.091C115.461 173.185 115.48 173.287 115.543 173.362L120.569 179.5L116.246 184.628C113.728 187.702 108.758 193.438 103.814 197.38C103.705 197.474 103.678 197.642 103.76 197.754C103.814 197.838 109.551 206.246 116.437 214.653L116.419 214.672ZM161.83 175.641C170.094 185.731 174.681 193.363 175.101 197.716C176.131 208.637 171.845 225.948 171.808 226.116C171.808 226.135 171.206 228.395 169.948 230.152C169.72 230.525 169.419 230.862 169.063 231.17L169.017 231.207L168.972 231.245C168.616 231.553 168.242 231.796 167.859 231.955C165.935 232.935 163.655 233.141 163.636 233.141C163.463 233.15 146.079 234.477 135.755 231.534C131.65 230.366 125.102 224.406 116.839 214.317C110.582 206.675 105.274 199.043 104.334 197.67C109.259 193.699 114.148 188.048 116.647 185.002L121.116 179.696C121.207 179.593 121.207 179.444 121.116 179.332L116.045 173.138C116.62 171.821 118.681 169.915 118.699 169.896C120.706 168.261 122.366 167.944 122.831 167.878L127.646 173.754C127.729 173.857 127.874 173.885 127.993 173.81L133.675 170.345C137.032 168.355 143.325 164.403 147.994 160.125C149.144 161.311 155.574 167.99 161.83 175.623V175.641Z" fill="#444444"/>
<g style="mix-blend-mode:multiply">
<path d="M103.969 197.613C108.822 193.746 113.646 188.234 116.446 184.824L120.915 179.509L115.735 173.194C116.237 171.792 118.526 169.7 118.526 169.7C120.642 167.971 122.384 167.663 122.831 167.607C120.906 168.242 117.769 169.812 119.648 171.708C119.766 171.82 119.894 171.83 120.031 171.746C121.463 170.783 123.487 170.765 124.545 172.334C125.594 173.894 124.874 175.482 123.36 176.332C123.196 176.426 123.159 176.613 123.269 176.762C125.895 180.583 129.16 183.759 132.198 187.225C134.761 190.149 137.077 193.381 140.306 195.586C140.507 195.726 140.753 195.549 140.725 195.315C140.379 191.952 138.235 188.981 136.466 186.225C134.578 183.292 132.809 180.275 130.784 177.444C134.514 181.134 136.986 186.141 140.297 190.177C142.531 192.914 144.775 195.652 146.873 198.501C147.976 200.005 149.162 201.509 150.074 203.153C150.795 204.452 152.208 207.936 149.281 207.31C147.283 206.88 145.514 205.629 143.799 204.545C142.084 203.471 140.388 202.331 138.655 201.275C137.205 200.397 135.6 199.472 133.867 199.612C133.684 199.631 133.611 199.846 133.666 200.005C134.952 203.48 137.697 206.114 140.023 208.87C142.887 212.261 145.879 215.568 149.052 218.651C152.728 222.239 157.617 226.433 162.961 226.676C169.163 226.956 171.024 220.604 172.128 215.466C173.623 208.525 174.207 200.743 171.781 193.951C170.559 190.532 168.744 187.44 166.819 184.394C164.448 180.63 161.922 176.977 159.231 173.446C155.656 168.747 151.843 164.235 147.894 159.863C147.94 159.825 147.976 159.788 148.022 159.75C148.022 159.75 174.326 186.58 175.384 197.679C176.432 208.777 172.082 226.172 172.082 226.172C172.082 226.172 171.489 228.479 170.176 230.301C169.93 230.702 169.61 231.057 169.245 231.366C169.236 231.375 169.218 231.394 169.209 231.403C169.191 231.412 169.182 231.431 169.163 231.44C168.808 231.758 168.406 232.02 167.978 232.197C165.999 233.206 163.673 233.402 163.673 233.402C163.673 233.402 146.189 234.775 135.7 231.786C125.211 228.797 103.988 197.604 103.988 197.604L103.969 197.613Z" fill="#A64223"/>
</g>
<g style="mix-blend-mode:multiply">
<path d="M103.969 197.613C108.822 193.746 113.646 188.234 116.446 184.824L120.915 179.509L115.735 173.194C115.817 172.969 115.954 172.717 116.109 172.465C119.684 176.323 122.922 180.499 126.479 184.376C127.546 185.534 128.622 186.674 129.708 187.804C128.267 186.609 126.789 185.403 125.202 184.441C124.445 183.983 123.697 183.628 122.803 183.853C121.426 184.189 120.177 185.562 119.183 186.478C117.65 187.898 116.31 189.467 114.859 190.981C113.026 192.905 110.299 195.194 111.001 198.23C111.695 201.238 114.093 203.686 115.99 205.956C118.891 209.421 121.973 212.71 125.129 215.933C130.428 221.342 135.846 226.695 142.878 229.656C149.7 232.533 156.705 233.01 163.983 232.72C165.077 232.674 166.172 232.618 167.275 232.515C165.479 233.253 163.655 233.412 163.655 233.412C163.655 233.412 146.17 234.785 135.682 231.795C125.193 228.806 103.969 197.613 103.969 197.613Z" fill="#A64223"/>
</g>
<path d="M120.587 174.847C121.289 175.697 122.53 175.81 123.36 175.1C124.19 174.38 124.299 173.11 123.606 172.26C122.904 171.41 121.663 171.297 120.833 172.007C120.003 172.727 119.894 173.997 120.587 174.847Z" fill="#4B4B4B"/>
<path d="M120.377 175.025C121.171 175.996 122.585 176.118 123.533 175.305C124.482 174.492 124.6 173.044 123.807 172.073C123.013 171.101 121.6 170.98 120.651 171.792C119.702 172.605 119.584 174.053 120.377 175.025ZM123.387 172.437C123.989 173.175 123.898 174.268 123.177 174.885C122.466 175.501 121.39 175.408 120.788 174.67C120.186 173.932 120.277 172.839 120.998 172.222C121.718 171.605 122.785 171.699 123.387 172.437Z" fill="#1F1F1F"/>
<path d="M121.627 173.231C121.882 173.539 122.329 173.577 122.63 173.324C122.931 173.063 122.968 172.605 122.721 172.297C122.475 171.989 122.019 171.951 121.718 172.203C121.417 172.465 121.381 172.923 121.627 173.231Z" fill="#A64223"/>
<g style="mix-blend-mode:multiply">
<path d="M129.179 175.118C129.179 175.118 144.237 195.194 148.98 204.349C148.98 204.349 150.156 207.152 148.35 206.703C146.544 206.255 126.762 185.357 122.53 180.835C122.53 180.835 145.167 203.275 145.906 202.462C146.654 201.64 129.179 175.128 129.179 175.128V175.118Z" fill="#A64223"/>
</g>
<g style="mix-blend-mode:screen">
<path d="M148.067 161.862C148.067 161.862 163.29 179.836 168.26 190.177C173.231 200.528 170.668 214.737 170.668 214.737C170.668 214.737 170.367 196.857 166.455 190.784C162.542 184.712 146.791 164.618 146.791 164.618L131.258 173.324L148.067 161.853V161.862Z" fill="#A64223"/>
</g>
<g style="mix-blend-mode:screen">
<path d="M122.84 168.177C122.84 168.177 135.791 184.245 139.412 191.784C139.412 191.784 126.069 174.885 122.84 168.177Z" fill="#A64223"/>
</g>
</g>
<defs>
<clipPath id="clip0_3556_13381">
<rect width="176" height="265" fill="white"/>
</clipPath>
</defs>
</svg>
