<svg width="176" height="276" viewBox="0 0 176 276" fill="none" xmlns="http://www.w3.org/2000/svg">
<g clip-path="url(#clip0_3556_17923)">
<path d="M123.119 89.7173L47.5639 181.496C46.4056 182.899 46.588 184.991 47.9652 186.172C49.3424 187.352 51.3945 187.166 52.5528 185.763L128.108 93.9841L123.119 89.7173Z" fill="#FFAE27"/>
<path d="M128.318 94.1607L52.7626 185.939C51.5131 187.454 49.2876 187.659 47.7919 186.385C46.3052 185.112 46.1045 182.844 47.3541 181.319L122.909 89.5406C123.009 89.4198 123.174 89.4105 123.292 89.5035L128.281 93.7703C128.4 93.8725 128.409 94.0399 128.318 94.1607ZM47.7736 181.672C46.7156 182.955 46.8798 184.879 48.1384 185.958C49.3971 187.036 51.285 186.869 52.343 185.586L127.725 94.0213L123.155 90.1077L47.7736 181.672Z" fill="#8B580E"/>
<g style="mix-blend-mode:screen">
<path d="M61.719 167.022C62.4396 165.618 62.8409 164.094 63.2422 162.569C63.2695 162.467 63.0415 162.486 63.0142 162.569C62.4943 164.224 61.9197 165.814 61.0897 167.338C60.2141 168.937 59.6122 170.545 58.0708 171.624C56.7939 172.516 55.5353 173.613 54.1307 174.292C52.9906 174.849 52.0968 175.723 51.3398 176.746C51.2668 176.839 51.4857 176.848 51.5405 176.801C52.2063 176.076 52.8265 175.398 53.6656 174.868C54.2766 174.477 54.9607 174.189 55.59 173.799C56.9216 172.972 58.3718 172.098 59.4936 170.991C60.5698 169.932 61.0532 168.342 61.7282 167.022H61.719Z" fill="#FFAE27"/>
</g>
<g style="mix-blend-mode:screen">
<path d="M63.1965 167.152C64.4186 164.837 65.3763 162.495 65.8415 159.892C65.8688 159.743 65.5587 159.78 65.5314 159.892C64.975 162.439 63.9626 164.81 62.6766 167.059C61.3268 169.42 59.831 172.005 57.8883 173.901C56.0642 175.686 53.8388 176.931 51.7866 178.4C49.8622 179.776 48.5123 181.747 46.6791 183.206C46.5423 183.308 46.8068 183.373 46.8889 183.318C48.9319 181.886 50.3547 179.748 52.4433 178.317C54.5958 176.848 56.8121 175.574 58.7 173.734C60.515 171.958 62.0017 169.365 63.1965 167.124V167.152Z" fill="#FFAE27"/>
</g>
<g style="mix-blend-mode:screen">
<path d="M64.1451 168.714C64.4552 166.948 65.9418 165.163 66.7718 163.61C67.62 162.021 68.4956 160.45 69.1796 158.777C69.964 156.88 70.7119 155.068 71.779 153.32C72.7731 151.693 73.7308 150.038 74.7523 148.43C74.8435 148.291 74.5425 148.3 74.4696 148.384C73.4025 149.722 72.5086 151.377 71.6148 152.846C70.6936 154.342 69.9001 155.83 69.2435 157.466C68.4591 159.418 67.547 161.24 66.5711 163.099C65.6955 164.754 64.6011 166.325 63.8076 168.017C63.5522 168.565 63.4519 169.188 63.2695 169.764C62.9594 170.731 62.1841 171.67 61.5822 172.46C60.2232 174.208 58.5906 175.779 56.9945 177.303C55.3893 178.828 53.6929 180.12 51.8596 181.347C50.3547 182.36 48.9045 183.467 47.7827 184.926C47.6915 185.038 47.9651 185.056 48.029 184.991C50.829 182.063 54.5228 180.259 57.4779 177.489C58.8825 176.179 60.3144 174.793 61.5366 173.306C62.6493 171.958 63.835 170.508 64.1451 168.723V168.714Z" fill="#FFAE27"/>
</g>
<g style="mix-blend-mode:screen">
<path d="M69.5901 161.268C70.4565 160.161 71.2044 158.888 71.9797 157.717C73.6943 155.123 75.3999 152.529 77.1328 149.936C78.6468 147.677 80.1973 145.381 81.5016 142.983C82.2039 141.69 82.8423 140.361 83.5993 139.088C84.1465 138.167 84.7394 137.312 85.086 136.28C85.1224 136.159 84.8488 136.187 84.8123 136.28C83.9915 138.446 82.514 140.435 81.4377 142.49C80.2612 144.749 78.8292 146.896 77.4338 149.025C76.0292 151.182 74.5426 153.292 73.1471 155.448C72.381 156.638 71.5966 157.81 70.7758 158.962C70.6481 159.148 70.2832 159.771 69.9002 160.338C70.2376 159.548 70.493 158.683 70.8943 158.005C71.8246 156.452 72.5269 154.733 73.439 153.162C74.2963 151.674 75.0351 150.103 75.8833 148.616C76.3302 147.826 76.6312 147.063 77.1875 146.329C77.4885 145.929 77.7895 145.446 77.9172 144.963C77.9445 144.851 77.6983 144.879 77.6709 144.963C77.297 146.162 76.166 147.026 75.6735 148.188C74.953 149.871 73.8768 151.507 72.9647 153.087C72.1347 154.528 71.3412 155.988 70.5933 157.475C70.2924 158.07 69.9458 158.618 69.6813 159.232C69.3712 159.948 69.134 160.886 68.678 161.509C68.5503 161.677 68.8513 161.732 68.9516 161.705C69.28 161.639 69.3894 161.5 69.5901 161.24V161.268Z" fill="#FFAE27"/>
</g>
<g style="mix-blend-mode:screen">
<path d="M74.7159 156.574C75.6279 155.505 76.2937 154.277 77.0507 153.097C78.0175 151.6 79.0573 150.159 80.0332 148.672C81.8208 145.958 83.6449 143.345 85.1681 140.464C86.6091 137.749 87.9681 134.961 89.3271 132.2C89.3909 132.07 89.1355 132.079 89.0899 132.163C86.2078 137.675 83.2254 143.02 79.7322 148.151C78.8384 149.471 77.9628 150.792 77.0781 152.121C76.1204 153.562 75.3178 155.105 74.2416 156.453C72.1712 159.018 70.1008 161.649 68.596 164.615C68.5412 164.717 68.751 164.707 68.7966 164.642C70.6298 161.835 72.5452 159.111 74.725 156.574H74.7159Z" fill="#FFAE27"/>
</g>
<g style="mix-blend-mode:screen">
<path d="M87.4482 139.711C88.3967 137.926 89.4456 136.169 90.4397 134.421C91.3062 132.887 92.0267 131.158 92.7381 129.541C93.5772 127.635 94.4801 125.776 95.4104 123.907C95.4469 123.833 95.2919 123.833 95.2645 123.889C91.4886 130.666 88.1504 137.693 84.712 144.647C84.6664 144.74 84.8488 144.73 84.8853 144.675C85.8521 143.085 86.5817 141.365 87.4573 139.72L87.4482 139.711Z" fill="#FFAE27"/>
</g>
<g style="mix-blend-mode:screen">
<path d="M97.5812 123.666C98.858 121.267 100.482 119.036 101.248 116.396C101.275 116.303 101.065 116.322 101.038 116.396C100.089 118.999 98.3473 121.175 97.0066 123.573C95.5838 126.12 94.1974 128.667 92.9753 131.326C92.9114 131.456 93.1668 131.447 93.2124 131.363C94.7538 128.853 96.1948 126.269 97.5903 123.666H97.5812Z" fill="#FFAE27"/>
</g>
<g style="mix-blend-mode:screen">
<path d="M96.3681 128.546C97.271 127.171 98.2925 125.823 99.3231 124.54C101.394 121.946 103.555 119.455 105.698 116.917C107.869 114.342 109.328 111.312 111.18 108.514C113.123 105.586 115.43 102.983 117.61 100.24C117.701 100.129 117.418 100.101 117.355 100.175C115.138 102.741 112.785 105.176 110.842 107.965C108.918 110.726 107.431 113.785 105.334 116.425C104.257 117.782 103.053 119.027 101.959 120.366C100.974 121.556 100.108 122.848 99.1498 124.066C97.1342 126.613 95.6202 129.383 93.9146 132.125C93.8508 132.237 94.0788 132.228 94.1335 132.163C94.9544 131.001 95.5928 129.727 96.3772 128.546H96.3681Z" fill="#FFAE27"/>
</g>
<g style="mix-blend-mode:screen">
<path d="M100.728 125.237C101.968 123.48 103.218 121.751 104.431 119.975C105.197 118.851 106.264 117.986 107.14 116.964C107.796 116.201 108.353 115.346 108.973 114.547C109.037 114.472 108.845 114.463 108.799 114.519C108.042 115.42 107.34 116.35 106.538 117.215C105.817 117.995 104.969 118.646 104.303 119.492C102.953 121.184 101.877 123.08 100.554 124.791C99.3141 126.399 98.4203 128.258 97.1616 129.857C95.7114 131.707 94.389 133.622 93.0573 135.555C92.9844 135.667 93.2306 135.667 93.2854 135.593C95.7935 132.153 98.2834 128.723 100.737 125.246L100.728 125.237Z" fill="#FFAE27"/>
</g>
<g style="mix-blend-mode:screen">
<path d="M109.721 108.42C111.162 106.673 112.201 104.646 113.132 102.592C113.168 102.508 113.013 102.518 112.986 102.573C111.928 104.618 110.742 106.58 109.301 108.365C107.814 110.205 106.255 111.953 104.896 113.896C104.841 113.979 105.024 113.979 105.069 113.924C106.556 112.037 108.198 110.289 109.73 108.439L109.721 108.42Z" fill="#FFAE27"/>
</g>
<g style="mix-blend-mode:screen">
<path d="M116.862 105.214C116.926 105.093 116.68 105.093 116.625 105.176C116.278 105.781 115.841 106.311 115.403 106.85C115.312 106.961 115.585 106.989 115.649 106.915C116.105 106.385 116.525 105.827 116.853 105.214H116.862Z" fill="#FFAE27"/>
</g>
<g style="mix-blend-mode:multiply">
<path d="M123.119 89.7173L114.628 100.026C114.938 101.17 115.822 102.155 115.795 103.419C115.768 104.842 115.184 106.097 114.29 107.184C111.618 110.438 108.672 113.478 105.872 116.62C102.898 119.966 100.153 123.48 97.3532 126.975C91.7075 134.04 85.8886 140.956 80.0332 147.835C74.1595 154.733 68.2494 161.603 62.4578 168.574C59.5848 172.033 56.8304 175.574 54.0577 179.116C52.1789 181.514 49.917 183.773 48.0837 186.274C49.4609 187.343 51.4219 187.129 52.5437 185.772L128.099 93.9934L123.11 89.7266L123.119 89.7173Z" fill="#FFAE27"/>
</g>
<g style="mix-blend-mode:screen">
<path d="M58.4173 170.136C61.5001 166.641 64.5007 163.108 67.3828 159.436C69.8728 156.266 72.4083 153.124 75.3816 150.419C82.6142 141.607 89.9563 132.906 97.4169 124.279C104.932 115.597 111.226 105.957 117.619 96.4102L47.5729 181.496C47.0804 182.091 46.8342 182.806 46.8159 183.522C50.3638 178.809 54.4954 174.579 58.4264 170.136H58.4173Z" fill="#FFAE27"/>
</g>
<path d="M167.308 72.1762L137.101 46.3428C136.07 45.4597 135.933 43.8887 136.8 42.8383C137.666 41.7879 139.208 41.6484 140.238 42.5315L170.446 68.3648C171.476 69.248 171.613 70.819 170.747 71.8694C169.88 72.9198 168.339 73.0593 167.308 72.1762Z" fill="#FFAE27"/>
<path d="M170.947 72.046C169.99 73.2173 168.275 73.366 167.126 72.3899L136.918 46.5566C135.769 45.5806 135.623 43.8329 136.581 42.6616C137.538 41.4904 139.253 41.3416 140.402 42.3177L170.61 68.151C171.759 69.1271 171.905 70.8747 170.947 72.046ZM137 43.0149C136.234 43.9538 136.353 45.3482 137.265 46.129L167.472 71.9623C168.393 72.7432 169.762 72.6223 170.528 71.6927C171.294 70.7632 171.175 69.3595 170.263 68.5786L140.056 42.7453C139.135 41.9644 137.767 42.0853 137 43.0149Z" fill="#8B2D08"/>
<g style="mix-blend-mode:screen">
<path d="M171.303 70.3726C171.33 69.629 171.048 68.876 170.446 68.3647L140.238 42.5314C139.636 42.0201 138.861 41.8621 138.15 42.0201L171.303 70.3726Z" fill="#FFAE27"/>
</g>
<g style="mix-blend-mode:multiply">
<path d="M170.445 68.3551L170.172 68.1134C164.243 68.0483 158.461 63.4283 154.165 59.9051C150.918 57.2465 147.772 54.3555 145.227 50.9718C143.585 48.7872 141.688 46.1937 141.25 43.377L140.238 42.5125C139.207 41.6294 137.666 41.7688 136.8 42.8192C135.933 43.8697 136.07 45.4407 137.101 46.3238L167.308 72.1571C168.339 73.0402 169.88 72.9008 170.746 71.8504C171.613 70.7999 171.476 69.2289 170.445 68.3458V68.3551Z" fill="#FFAE27"/>
</g>
<path d="M175.334 68.9966C176.064 67.8439 175.745 66.3008 174.605 65.5571C173.474 64.8134 171.96 65.1388 171.23 66.3008C167.773 71.7575 151.201 91.4648 137.438 92.7941C133.307 93.1938 129.877 91.8738 126.968 88.7597C120.155 81.4717 124.441 69.2569 129.248 60.2956C134.757 50.0143 142.217 41.5179 142.29 41.4342C143.193 40.4117 143.111 38.8407 142.108 37.9204C141.114 37.0001 139.563 37.0837 138.66 38.1063C137.402 39.5286 109.237 71.776 121.687 90.0146L115.038 98.0928C115.038 98.0928 116.935 101.523 121.55 103.661L128.007 95.8153C130.953 97.442 134.264 98.0928 137.894 97.7488C154.795 96.1313 172.534 73.4121 175.334 69.0059V68.9966Z" fill="#A6B0B9"/>
<path d="M171.403 74.6858C165.995 81.258 151.913 96.6799 137.931 98.0185C134.346 98.3625 131.035 97.7397 128.09 96.1593L121.769 103.828C121.687 103.921 121.559 103.959 121.45 103.903C116.807 101.746 114.892 98.3625 114.81 98.2137C114.755 98.1115 114.764 97.9906 114.837 97.8977L121.359 89.9776C110.651 73.8957 130.543 47.4767 136.909 39.7425C137.757 38.7107 138.314 38.0692 138.469 37.9019C138.952 37.3535 139.618 37.0281 140.348 36.9909C141.068 36.9537 141.761 37.2047 142.299 37.6974C143.394 38.7014 143.503 40.3839 142.564 41.5273L142.5 41.6017C142.454 41.6575 142.008 42.1687 141.278 43.0518C139.135 45.6454 133.708 52.543 129.494 60.4073C124.733 69.2849 120.465 81.3789 127.168 88.546C130.014 91.5951 133.37 92.8872 137.42 92.4968C147.225 91.5579 159.318 80.7839 167.363 71.0139C168.904 69.1362 170.236 67.3606 171.011 66.1336C171.832 64.8414 173.519 64.4975 174.76 65.3155C175.371 65.7153 175.79 66.3288 175.936 67.0539C176.091 67.779 175.954 68.5226 175.562 69.1455C174.924 70.1587 173.492 72.1387 171.403 74.6765V74.6858ZM121.477 103.317L127.807 95.6295C127.889 95.5272 128.026 95.4993 128.144 95.5644C131.045 97.1633 134.319 97.8047 137.876 97.4608C142.464 97.0239 154.886 93.8819 170.984 74.3233C173.063 71.8041 174.477 69.8426 175.106 68.848C175.425 68.346 175.526 67.7604 175.407 67.1747C175.289 66.5984 174.951 66.1057 174.468 65.7896C173.474 65.1296 172.124 65.4085 171.467 66.4496C170.683 67.6953 169.333 69.4894 167.773 71.3858C159.665 81.2394 147.443 92.1063 137.466 93.0638C133.243 93.4728 129.74 92.1249 126.776 88.9457C119.845 81.5369 124.168 69.2012 129.011 60.1563C133.252 52.2455 138.706 45.32 140.858 42.7079C141.588 41.8155 142.044 41.3042 142.09 41.2484L142.144 41.1834C142.901 40.2631 142.81 38.9245 141.935 38.1157C141.506 37.716 140.95 37.5208 140.375 37.5487C139.791 37.5766 139.262 37.8368 138.87 38.2738C138.715 38.4411 138.159 39.0825 137.32 40.105C134.611 43.3958 127.825 52.0968 123.301 61.8203C117.783 73.6819 117.318 83.1079 121.915 89.8474C121.988 89.9497 121.979 90.0891 121.897 90.1821L115.375 98.1115C115.804 98.7901 117.692 101.504 121.477 103.317Z" fill="#444444"/>
<g style="mix-blend-mode:screen">
<path d="M115.649 98.9759C116.215 98.1858 116.78 97.3863 117.364 96.6055C118.476 95.1181 119.717 93.324 121.276 92.2829C122.052 91.7623 122.845 91.5764 123.657 92.1434C124.168 92.506 124.66 92.8685 125.153 93.2125C123.329 91.0558 121.842 88.6296 120.975 85.8966C119.461 81.1185 119.817 76.0987 121.158 71.3206C122.964 64.8971 126.047 59.1244 129.558 53.519C133.115 47.8577 137.073 42.4661 141.579 37.5486C140.621 37.0466 139.417 37.2325 138.66 38.0878C137.402 39.51 109.237 71.7575 121.687 89.9961L115.038 98.0742C115.038 98.0742 115.229 98.4275 115.64 98.9666L115.649 98.9759Z" fill="#A6B0B9"/>
</g>
<g style="mix-blend-mode:screen">
<path d="M132.495 92.3389C134.903 93.2221 137.648 93.4359 140.037 93.2407C145.026 92.8316 149.432 90.1637 153.344 87.1518C161.325 81.0072 168.457 73.7285 174.03 65.2879C172.999 64.9439 171.841 65.3251 171.23 66.2918C167.773 71.7485 151.201 91.4558 137.438 92.7851C135.669 92.9525 134.027 92.8037 132.495 92.3389Z" fill="#A6B0B9"/>
</g>
<g style="mix-blend-mode:multiply">
<path d="M140.95 38.4599C141.314 39.4731 140.913 40.6351 140.348 41.4996C139.417 42.9405 138.241 44.2419 137.192 45.5805C133.79 49.9403 130.47 54.4024 127.834 59.3013C124.377 65.6969 121.559 73.6728 123.502 80.6447C122.909 74.0818 125.955 66.422 129.248 60.2867C134.757 50.0054 142.217 41.5089 142.29 41.4253C143.193 40.4027 143.111 38.8317 142.108 37.9114C141.305 37.1678 140.147 37.0934 139.253 37.614C139.864 37.5954 140.712 37.7999 140.94 38.4506L140.95 38.4599Z" fill="#A6B0B9"/>
</g>
<g style="mix-blend-mode:multiply">
<path d="M175.334 68.9966C176.064 67.8439 175.745 66.3007 174.605 65.5571C173.474 64.8134 171.96 65.1388 171.23 66.3007C170.892 66.8399 170.418 67.5185 169.835 68.3087C170.291 68.0019 170.783 67.7974 171.294 67.8718C172.069 67.9926 172.069 69.229 171.878 69.7774C171.458 71.0324 170.601 72.1107 169.771 73.1053C168.804 74.258 167.864 75.4572 166.861 76.5727C164.234 79.5009 161.416 82.3176 158.461 84.9018C153.235 89.4754 146.896 94.142 139.919 95.2296C134.62 96.0662 129.038 94.8578 124.824 91.3625C122.015 89.0385 120.027 86.0267 118.814 82.6801C119.243 85.283 120.155 87.7557 121.696 90.0146L115.047 98.0927C115.047 98.0927 116.944 101.523 121.559 103.661L128.017 95.8152C130.963 97.442 134.273 98.0927 137.903 97.7488C154.804 96.1313 172.543 73.4121 175.343 69.0059L175.334 68.9966Z" fill="#A6B0B9"/>
</g>
<g style="mix-blend-mode:multiply">
<path d="M175.334 68.9966C176.064 67.8439 175.745 66.3007 174.605 65.5571C173.474 64.8134 171.96 65.1388 171.23 66.3007C170.892 66.8399 170.418 67.5185 169.834 68.3087C170.291 68.0019 170.783 67.7974 171.294 67.8718C172.069 67.9926 172.069 69.229 171.878 69.7774C171.458 71.0324 170.601 72.1107 169.771 73.1053C168.804 74.258 167.864 75.4572 166.861 76.5727C164.234 79.5009 161.416 82.3176 158.461 84.9018C153.235 89.4754 146.896 94.142 139.919 95.2296C134.62 96.0662 129.038 94.8578 124.824 91.3625C123.557 90.3121 122.471 89.1222 121.532 87.8301C121.942 88.5551 122.426 89.243 122.955 89.8938C123.83 90.9721 125.226 92.069 125.718 93.4076C126.056 94.3279 125.691 95.1366 125.171 95.9175C124.186 97.377 123.283 99.0409 122.061 100.305C120.638 101.774 119.015 101.755 117.391 100.882C118.413 101.82 119.781 102.843 121.568 103.661L128.026 95.8152C130.972 97.442 134.282 98.0927 137.912 97.7488C154.813 96.1313 172.552 73.4121 175.352 69.0059L175.334 68.9966Z" fill="#A6B0B9"/>
</g>
<path d="M135.888 42.9959C135.532 43.4235 134.903 43.4793 134.483 43.1167C134.063 42.7542 134.009 42.1221 134.364 41.6852L135.386 40.4395C135.742 40.0119 136.371 39.9561 136.791 40.3187C137.21 40.6812 137.265 41.3226 136.909 41.7502L135.888 42.9959Z" fill="#FFAE27"/>
<path d="M137.119 41.9268L136.097 43.1725C135.65 43.721 134.848 43.786 134.31 43.3305C133.772 42.875 133.708 42.057 134.155 41.5085L135.176 40.2629C135.623 39.7144 136.426 39.6493 136.964 40.1048C137.502 40.5603 137.566 41.3784 137.119 41.9268ZM134.565 41.8711C134.31 42.1871 134.346 42.6519 134.656 42.9122C134.966 43.1725 135.422 43.1353 135.678 42.8192L136.699 41.5736C136.955 41.2668 136.918 40.7927 136.608 40.5325C136.298 40.2722 135.842 40.3094 135.587 40.6254L134.565 41.8711Z" fill="#8B2D08"/>
<path d="M172.589 74.3885C172.233 74.8161 171.604 74.8719 171.184 74.5093C170.765 74.1468 170.71 73.5147 171.066 73.0778L172.087 71.8321C172.443 71.4045 173.063 71.3487 173.492 71.7113C173.911 72.0738 173.966 72.7059 173.61 73.1428L172.589 74.3885Z" fill="#FFAE27"/>
<path d="M173.82 73.3194L172.799 74.5651C172.352 75.1135 171.549 75.1786 171.011 74.7231C170.473 74.2676 170.409 73.4496 170.856 72.9011L171.877 71.6555C172.324 71.107 173.127 71.0419 173.665 71.4974C174.203 71.9529 174.267 72.771 173.82 73.3194ZM171.276 73.2636C171.02 73.5797 171.057 74.0445 171.367 74.3048C171.677 74.5651 172.133 74.5279 172.388 74.2118L173.41 72.9662C173.665 72.6594 173.629 72.1853 173.319 71.925C173.008 71.6647 172.552 71.7019 172.297 72.018L171.276 73.2636Z" fill="#8B2D08"/>
<path d="M122.718 98.4834C122.015 99.3293 120.775 99.4409 119.945 98.7344C119.115 98.0186 119.005 96.7544 119.699 95.9084C120.401 95.0625 121.641 94.951 122.471 95.6575C123.301 96.3732 123.411 97.6375 122.718 98.4834Z" fill="#4B4B4B"/>
<path d="M122.927 98.6599C122.134 99.6267 120.72 99.7475 119.772 98.9388C118.823 98.13 118.704 96.6891 119.498 95.7224C120.291 94.7556 121.705 94.6348 122.654 95.4435C123.602 96.2522 123.721 97.6931 122.927 98.6599ZM119.918 96.0849C119.316 96.8193 119.407 97.9069 120.127 98.5204C120.839 99.134 121.915 99.041 122.517 98.3066C123.119 97.5723 123.028 96.4846 122.307 95.8711C121.587 95.2576 120.519 95.3505 119.918 96.0849Z" fill="#1F1F1F"/>
<path d="M121.678 96.8751C121.422 97.1819 120.975 97.219 120.674 96.968C120.374 96.7171 120.337 96.2523 120.583 95.9455C120.839 95.6387 121.286 95.6015 121.587 95.8525C121.888 96.1035 121.924 96.5683 121.678 96.8751Z" fill="#A6B0B9"/>
<path d="M71.8336 202.792C66.9815 198.944 62.1567 193.459 59.3567 190.066L54.8876 184.777L60.0681 178.493C59.5665 177.099 57.2772 175.016 57.2772 175.016C54.8055 173.008 52.8446 172.925 52.8446 172.925L47.9377 178.893L42.2556 175.444C38.4888 173.222 32.3506 169.337 27.7903 165.135C27.7903 165.135 1.48655 191.833 0.428563 202.876C-0.620305 213.92 3.73022 231.229 3.73022 231.229C3.73022 231.229 4.32305 233.525 5.63642 235.337C5.88267 235.737 6.2019 236.09 6.56672 236.397C6.57584 236.406 6.59408 236.425 6.6032 236.434C6.62144 236.444 6.63056 236.462 6.6488 236.472C7.00451 236.788 7.40581 237.048 7.83448 237.225C9.81365 238.228 12.1394 238.424 12.1394 238.424C12.1394 238.424 29.6236 239.79 40.1122 236.815C50.6009 233.841 71.8245 202.802 71.8245 202.802L71.8336 202.792Z" fill="#A6B0B9"/>
<path d="M59.3841 219.767C50.9293 230.039 44.4719 235.858 40.1944 237.076C29.7787 240.032 12.3036 238.712 12.1303 238.693C12.03 238.693 9.73162 238.479 7.72509 237.466C7.30554 237.299 6.87687 237.029 6.47556 236.676L6.59413 236.416L6.42084 236.63C6.42084 236.63 6.38436 236.592 6.37524 236.592C5.98305 236.267 5.64559 235.886 5.39933 235.477C4.08597 233.664 3.48401 231.387 3.45665 231.294C3.41105 231.117 -0.902992 213.808 0.145876 202.839C0.574543 198.34 5.08011 190.847 13.5349 180.575C20.4209 172.209 27.5076 165.005 27.5806 164.93C27.6809 164.828 27.8451 164.819 27.9546 164.93C32.6061 169.216 38.9813 173.213 42.3742 175.202L47.8648 178.53L52.6257 172.748C52.6805 172.683 52.7626 172.646 52.8446 172.646C52.9267 172.646 54.915 172.757 57.4323 174.793C57.5417 174.886 59.7854 176.95 60.3053 178.391C60.3418 178.484 60.3235 178.586 60.2597 178.66L55.2342 184.768L59.5574 189.871C62.0747 192.93 67.0454 198.637 71.9888 202.56C72.0982 202.653 72.1256 202.82 72.0435 202.932C71.9888 203.016 66.2519 211.382 59.3659 219.748L59.3841 219.767ZM13.9727 180.929C5.70943 190.968 1.12178 198.563 0.702232 202.895C-0.328395 213.762 3.95828 230.987 3.99476 231.154C3.99476 231.173 4.59672 233.423 5.85536 235.17C6.08338 235.542 6.38436 235.877 6.74006 236.183L6.78566 236.221L6.83127 236.258C7.18697 236.565 7.56091 236.806 7.94398 236.964C9.86842 237.94 12.1486 238.145 12.1668 238.145C12.3401 238.154 29.7239 239.474 40.0485 236.546C44.1527 235.384 50.7013 229.453 58.9646 219.414C65.2213 211.81 70.5295 204.215 71.4689 202.848C66.5438 198.898 61.6551 193.274 59.1561 190.243L54.687 184.963C54.5958 184.861 54.5958 184.712 54.687 184.6L59.758 178.437C59.1834 177.127 57.1222 175.23 57.104 175.212C55.0974 173.585 53.4375 173.269 52.9723 173.204L48.1567 179.051C48.0746 179.153 47.9286 179.181 47.8101 179.107L42.1279 175.658C38.7716 173.678 32.4784 169.746 27.8086 165.488C26.6594 166.669 20.2294 173.315 13.9727 180.91V180.929Z" fill="#444444"/>
<g style="mix-blend-mode:multiply">
<path d="M71.8337 202.793C66.9816 198.944 62.1568 193.459 59.3568 190.066L54.8877 184.777L60.0682 178.493C59.5665 177.099 57.2773 175.016 57.2773 175.016C55.1613 173.297 53.4193 172.99 52.9724 172.934C54.8968 173.566 58.0343 175.128 56.1554 177.015C56.0369 177.127 55.9092 177.136 55.7724 177.052C54.3405 176.095 52.3157 176.076 51.2577 177.638C50.2088 179.19 50.9293 180.771 52.4434 181.616C52.6075 181.709 52.644 181.895 52.5346 182.044C49.9078 185.846 46.6427 189.007 43.6055 192.455C41.0426 195.365 38.726 198.581 35.4973 200.775C35.2967 200.915 35.0504 200.738 35.0778 200.506C35.4243 197.159 37.5677 194.203 39.3371 191.461C41.225 188.542 42.9944 185.539 45.0192 182.723C41.2889 186.395 38.8172 191.377 35.5064 195.393C33.2719 198.117 31.0282 200.84 28.9305 203.676C27.8269 205.172 26.6412 206.669 25.7292 208.305C25.0086 209.597 23.5949 213.064 26.5227 212.442C28.5201 212.014 30.2895 210.768 32.0041 209.69C33.7188 208.621 35.4152 207.487 37.1481 206.437C38.5983 205.563 40.2035 204.642 41.9364 204.782C42.1189 204.8 42.1918 205.014 42.1371 205.172C40.8511 208.63 38.1058 211.252 35.7801 213.994C32.9162 217.368 29.9246 220.659 26.7507 223.727C23.0751 227.297 18.1864 231.47 12.8418 231.712C6.63977 231.991 4.77917 225.67 3.67558 220.557C2.1798 213.65 1.59609 205.907 4.02216 199.149C5.24432 195.746 7.05932 192.669 8.98376 189.639C11.3551 185.893 13.8815 182.258 16.5721 178.744C20.1474 174.068 23.9598 169.578 27.909 165.228C27.8634 165.191 27.8269 165.153 27.7813 165.116C27.7813 165.116 1.47752 191.814 0.41953 202.858C-0.629338 213.901 3.72118 231.21 3.72118 231.21C3.72118 231.21 4.31402 233.506 5.62739 235.319C5.87364 235.719 6.19286 236.072 6.55769 236.379C6.56681 236.388 6.58505 236.406 6.59417 236.416C6.61241 236.425 6.62153 236.444 6.63977 236.453C6.99547 236.769 7.39678 237.029 7.82545 237.206C9.80462 238.21 12.1304 238.405 12.1304 238.405C12.1304 238.405 29.6145 239.772 40.1032 236.797C50.5919 233.822 71.8155 202.783 71.8155 202.783L71.8337 202.793Z" fill="#A6B0B9"/>
</g>
<g style="mix-blend-mode:multiply">
<path d="M71.8337 202.793C66.9816 198.944 62.1568 193.46 59.3568 190.067L54.8877 184.777L60.0682 178.493C59.9861 178.27 59.8493 178.019 59.6942 177.768C56.1189 181.607 52.8811 185.763 49.3241 189.62C48.257 190.773 47.1808 191.907 46.0954 193.032C47.5365 191.842 49.014 190.643 50.601 189.685C51.358 189.23 52.1059 188.877 52.9997 189.1C54.3769 189.434 55.6264 190.801 56.6206 191.712C58.1528 193.125 59.4936 194.687 60.9437 196.193C62.777 198.108 65.504 200.385 64.8017 203.406C64.1086 206.399 61.7099 208.835 59.8128 211.094C56.9124 214.543 53.8297 217.815 50.674 221.022C45.3749 226.404 39.9573 231.731 32.9253 234.678C26.1031 237.541 19.0985 238.015 11.8202 237.727C10.7258 237.68 9.6313 237.624 8.52771 237.522C10.3245 238.257 12.1486 238.415 12.1486 238.415C12.1486 238.415 29.6328 239.781 40.1214 236.806C50.6101 233.832 71.8337 202.793 71.8337 202.793Z" fill="#A6B0B9"/>
</g>
<path d="M55.2159 180.139C54.5137 180.985 53.2733 181.096 52.4433 180.39C51.6133 179.674 51.5039 178.41 52.197 177.564C52.8993 176.718 54.1397 176.606 54.9697 177.313C55.7997 178.029 55.9091 179.293 55.2159 180.139Z" fill="#4B4B4B"/>
<path d="M55.4257 180.315C54.6322 181.282 53.2186 181.403 52.27 180.594C51.3215 179.785 51.2029 178.344 51.9964 177.378C52.7899 176.411 54.2036 176.29 55.1521 177.099C56.1007 177.908 56.2192 179.348 55.4257 180.315ZM52.4159 177.74C51.814 178.475 51.9052 179.562 52.6257 180.176C53.3371 180.789 54.4134 180.696 55.0153 179.962C55.6173 179.228 55.5261 178.14 54.8055 177.526C54.085 176.913 53.0179 177.006 52.4159 177.74Z" fill="#1F1F1F"/>
<path d="M54.1763 178.53C53.9209 178.837 53.474 178.874 53.173 178.623C52.8721 178.363 52.8356 177.908 53.0818 177.601C53.3281 177.294 53.7841 177.257 54.0851 177.508C54.3861 177.768 54.4226 178.224 54.1763 178.53Z" fill="#A6B0B9"/>
<g style="mix-blend-mode:multiply">
<path d="M46.6245 180.408C46.6245 180.408 31.5664 200.385 26.8237 209.495C26.8237 209.495 25.6471 212.284 27.453 211.838C29.2589 211.391 49.0414 190.597 53.2734 186.097C53.2734 186.097 30.6361 208.426 29.8973 207.617C29.1494 206.799 46.6245 180.417 46.6245 180.417V180.408Z" fill="#A6B0B9"/>
</g>
<g style="mix-blend-mode:screen">
<path d="M27.7357 167.217C27.7357 167.217 12.5135 185.103 7.54275 195.393C2.57203 205.693 5.13492 219.832 5.13492 219.832C5.13492 219.832 5.4359 202.04 9.34863 195.997C13.2614 189.955 29.0126 169.96 29.0126 169.96L44.545 178.623L27.7357 167.208V167.217Z" fill="#A6B0B9"/>
</g>
<g style="mix-blend-mode:screen">
<path d="M52.9632 173.501C52.9632 173.501 40.012 189.49 36.3911 196.992C36.3911 196.992 49.7345 180.175 52.9632 173.501Z" fill="#A6B0B9"/>
</g>
<path d="M52.8614 89.7173L128.416 181.496C129.575 182.899 129.392 184.991 128.015 186.172C126.638 187.352 124.586 187.166 123.427 185.763L47.8724 93.9841L52.8614 89.7173Z" fill="#FFAE27"/>
<path d="M47.6627 94.1607L123.218 185.939C124.467 187.454 126.693 187.659 128.188 186.385C129.675 185.112 129.876 182.844 128.626 181.319L53.0712 89.5406C52.9709 89.4198 52.8067 89.4105 52.6881 89.5035L47.6992 93.7703C47.5806 93.8725 47.5715 94.0399 47.6627 94.1607ZM128.207 181.672C129.265 182.955 129.1 184.879 127.842 185.958C126.583 187.036 124.695 186.869 123.637 185.586L48.2555 94.0213L52.825 90.1077L128.207 181.672Z" fill="#8B580E"/>
<g style="mix-blend-mode:screen">
<path d="M114.261 167.022C113.541 165.618 113.139 164.094 112.738 162.569C112.711 162.467 112.939 162.486 112.966 162.569C113.486 164.224 114.061 165.814 114.891 167.338C115.766 168.937 116.368 170.545 117.909 171.624C119.186 172.516 120.445 173.613 121.85 174.292C122.99 174.849 123.883 175.723 124.64 176.746C124.713 176.839 124.494 176.848 124.44 176.801C123.774 176.076 123.154 175.398 122.315 174.868C121.704 174.477 121.02 174.189 120.39 173.799C119.059 172.972 117.608 172.098 116.487 170.991C115.41 169.932 114.927 168.342 114.252 167.022H114.261Z" fill="#FFAE27"/>
</g>
<g style="mix-blend-mode:screen">
<path d="M112.784 167.152C111.562 164.837 110.604 162.495 110.139 159.892C110.111 159.743 110.422 159.78 110.449 159.892C111.005 162.439 112.018 164.81 113.304 167.059C114.653 169.42 116.149 172.005 118.092 173.901C119.916 175.686 122.141 176.931 124.194 178.4C126.118 179.776 127.468 181.747 129.301 183.206C129.438 183.308 129.173 183.373 129.091 183.318C127.048 181.886 125.626 179.748 123.537 178.317C121.384 176.848 119.168 175.574 117.28 173.734C115.465 171.958 113.979 169.365 112.784 167.124V167.152Z" fill="#FFAE27"/>
</g>
<g style="mix-blend-mode:screen">
<path d="M111.835 168.714C111.525 166.948 110.038 165.163 109.208 163.61C108.36 162.021 107.485 160.45 106.801 158.777C106.016 156.88 105.268 155.068 104.201 153.32C103.207 151.693 102.249 150.038 101.228 148.43C101.137 148.291 101.438 148.3 101.511 148.384C102.578 149.722 103.472 151.377 104.365 152.846C105.287 154.342 106.08 155.83 106.737 157.466C107.521 159.418 108.433 161.24 109.409 163.099C110.285 164.754 111.379 166.325 112.173 168.017C112.428 168.565 112.528 169.188 112.711 169.764C113.021 170.731 113.796 171.67 114.398 172.46C115.757 174.208 117.39 175.779 118.986 177.303C120.591 178.828 122.287 180.12 124.121 181.347C125.626 182.36 127.076 183.467 128.198 184.926C128.289 185.038 128.015 185.056 127.951 184.991C125.151 182.063 121.457 180.259 118.502 177.489C117.098 176.179 115.666 174.793 114.444 173.306C113.331 171.958 112.145 170.508 111.835 168.723V168.714Z" fill="#FFAE27"/>
</g>
<g style="mix-blend-mode:screen">
<path d="M106.39 161.268C105.524 160.161 104.776 158.888 104.001 157.717C102.286 155.123 100.58 152.529 98.8474 149.936C97.3334 147.677 95.7829 145.381 94.4787 142.983C93.7764 141.69 93.1379 140.361 92.3809 139.088C91.8337 138.167 91.2409 137.312 90.8943 136.28C90.8578 136.159 91.1314 136.187 91.1679 136.28C91.9887 138.446 93.4663 140.435 94.5425 142.49C95.7191 144.749 97.151 146.896 98.5464 149.025C99.951 151.182 101.438 153.292 102.833 155.448C103.599 156.638 104.384 157.81 105.204 158.962C105.332 159.148 105.697 159.771 106.08 160.338C105.743 159.548 105.487 158.683 105.086 158.005C104.156 156.452 103.453 154.733 102.541 153.162C101.684 151.674 100.945 150.103 100.097 148.616C99.65 147.826 99.3491 147.063 98.7927 146.329C98.4917 145.929 98.1907 145.446 98.0631 144.963C98.0357 144.851 98.2819 144.879 98.3093 144.963C98.6832 146.162 99.8142 147.026 100.307 148.188C101.027 149.871 102.103 151.507 103.016 153.087C103.846 154.528 104.639 155.988 105.387 157.475C105.688 158.07 106.034 158.618 106.299 159.232C106.609 159.948 106.846 160.886 107.302 161.509C107.43 161.677 107.129 161.732 107.029 161.705C106.7 161.639 106.591 161.5 106.39 161.24V161.268Z" fill="#FFAE27"/>
</g>
<g style="mix-blend-mode:screen">
<path d="M101.264 156.574C100.352 155.505 99.6865 154.277 98.9295 153.097C97.9627 151.6 96.923 150.159 95.9471 148.672C94.1594 145.958 92.3353 143.345 90.8122 140.464C89.3711 137.749 88.0121 134.961 86.6532 132.2C86.5893 132.07 86.8447 132.079 86.8903 132.163C89.7724 137.675 92.7548 143.02 96.248 148.151C97.1419 149.471 98.0174 150.792 98.9021 152.121C99.8598 153.562 100.662 155.105 101.739 156.453C103.809 159.018 105.879 161.649 107.384 164.615C107.439 164.717 107.229 164.707 107.184 164.642C105.35 161.835 103.435 159.111 101.255 156.574H101.264Z" fill="#FFAE27"/>
</g>
<g style="mix-blend-mode:screen">
<path d="M88.5321 139.711C87.5835 137.926 86.5347 136.169 85.5405 134.421C84.6741 132.887 83.9535 131.158 83.2421 129.541C82.403 127.635 81.5001 125.776 80.5698 123.907C80.5333 123.833 80.6884 123.833 80.7157 123.889C84.4916 130.666 87.8298 137.693 91.2682 144.647C91.3138 144.74 91.1314 144.73 91.0949 144.675C90.1282 143.085 89.3985 141.365 88.5229 139.72L88.5321 139.711Z" fill="#FFAE27"/>
</g>
<g style="mix-blend-mode:screen">
<path d="M78.3991 123.666C77.1222 121.267 75.4987 119.036 74.7326 116.396C74.7052 116.303 74.915 116.322 74.9424 116.396C75.8909 118.999 77.6329 121.175 78.9737 123.573C80.3965 126.12 81.7828 128.667 83.005 131.326C83.0688 131.456 82.8134 131.447 82.7678 131.363C81.2264 128.853 79.7854 126.269 78.3899 123.666H78.3991Z" fill="#FFAE27"/>
</g>
<g style="mix-blend-mode:screen">
<path d="M79.6122 128.546C78.7092 127.171 77.6877 125.823 76.6571 124.54C74.5867 121.946 72.4251 119.455 70.2818 116.917C68.1111 114.342 66.6518 111.312 64.8003 108.514C62.8576 105.586 60.5501 102.983 58.3703 100.24C58.2791 100.129 58.5618 100.101 58.6257 100.175C60.842 102.741 63.1951 105.176 65.1378 107.965C67.0622 110.726 68.5489 113.785 70.6466 116.425C71.7229 117.782 72.9268 119.027 74.0212 120.366C75.0063 121.556 75.8727 122.848 76.8304 124.066C78.846 126.613 80.3601 129.383 82.0656 132.125C82.1294 132.237 81.9014 132.228 81.8467 132.163C81.0259 131.001 80.3874 129.727 79.603 128.546H79.6122Z" fill="#FFAE27"/>
</g>
<g style="mix-blend-mode:screen">
<path d="M75.2525 125.237C74.0121 123.48 72.7625 121.751 71.5495 119.975C70.7834 118.851 69.7163 117.986 68.8407 116.964C68.184 116.201 67.6276 115.346 67.0074 114.547C66.9436 114.472 67.1351 114.463 67.1807 114.519C67.9378 115.42 68.64 116.35 69.4427 117.215C70.1632 117.995 71.0114 118.646 71.6772 119.492C73.027 121.184 74.1033 123.08 75.4258 124.791C76.6662 126.399 77.56 128.258 78.8186 129.857C80.2688 131.707 81.5913 133.622 82.9229 135.555C82.9958 135.667 82.7496 135.667 82.6949 135.593C80.1867 132.153 77.6968 128.723 75.2433 125.246L75.2525 125.237Z" fill="#FFAE27"/>
</g>
<g style="mix-blend-mode:screen">
<path d="M66.2595 108.42C64.8185 106.673 63.7787 104.646 62.8484 102.592C62.812 102.508 62.967 102.518 62.9944 102.573C64.0524 104.618 65.238 106.58 66.6791 108.365C68.1658 110.205 69.7254 111.953 71.0843 113.896C71.1391 113.979 70.9567 113.979 70.9111 113.924C69.4244 112.037 67.7827 110.289 66.2504 108.439L66.2595 108.42Z" fill="#FFAE27"/>
</g>
<g style="mix-blend-mode:screen">
<path d="M59.1181 105.214C59.0542 105.093 59.3005 105.093 59.3552 105.176C59.7018 105.781 60.1396 106.311 60.5774 106.85C60.6686 106.961 60.395 106.989 60.3311 106.915C59.8751 106.385 59.4556 105.827 59.1272 105.214H59.1181Z" fill="#FFAE27"/>
</g>
<g style="mix-blend-mode:multiply">
<path d="M52.8614 89.7173L61.3527 100.026C61.0426 101.17 60.1579 102.155 60.1852 103.419C60.2126 104.842 60.7963 106.097 61.6901 107.184C64.3625 110.438 67.3084 113.478 70.1084 116.62C73.0817 119.966 75.827 123.48 78.6271 126.975C84.2727 134.04 90.0916 140.956 95.9471 147.835C101.821 154.733 107.731 161.603 113.522 168.574C116.395 172.033 119.15 175.574 121.922 179.116C123.801 181.514 126.063 183.773 127.896 186.274C126.519 187.343 124.558 187.129 123.437 185.772L47.8816 93.9934L52.8705 89.7266L52.8614 89.7173Z" fill="#FFAE27"/>
</g>
<g style="mix-blend-mode:screen">
<path d="M117.563 170.136C114.48 166.641 111.479 163.108 108.597 159.436C106.107 156.266 103.572 153.124 100.599 150.419C93.366 141.607 86.0239 132.906 78.5633 124.279C71.0479 115.597 64.7547 105.957 58.3612 96.4102L128.407 181.496C128.9 182.091 129.146 182.806 129.164 183.522C125.616 178.809 121.485 174.579 117.554 170.136H117.563Z" fill="#FFAE27"/>
</g>
<path d="M8.67212 72.1762L38.8795 46.3428C39.9101 45.4597 40.0469 43.8887 39.1805 42.8383C38.314 41.7879 36.7727 41.6484 35.742 42.5315L5.53464 68.3648C4.50401 69.248 4.3672 70.819 5.23366 71.8694C6.10011 72.9198 7.64149 73.0593 8.67212 72.1762Z" fill="#FFAE27"/>
<path d="M5.03303 72.046C5.9907 73.2173 7.70535 73.366 8.85455 72.3899L39.0619 46.5566C40.2111 45.5806 40.3571 43.8329 39.3994 42.6616C38.4417 41.4904 36.7271 41.3416 35.5779 42.3177L5.37049 68.151C4.2213 69.1271 4.07537 70.8747 5.03303 72.046ZM38.9799 43.0149C39.746 43.9538 39.6274 45.3482 38.7154 46.129L8.50798 71.9623C7.5868 72.7432 6.2187 72.6223 5.45257 71.6927C4.68644 70.7632 4.80502 69.3595 5.71708 68.5786L35.9245 42.7453C36.8456 41.9644 38.2137 42.0853 38.9799 43.0149Z" fill="#8B2D08"/>
<g style="mix-blend-mode:screen">
<path d="M4.67734 70.3726C4.64998 69.629 4.93272 68.876 5.53468 68.3647L35.7421 42.5314C36.344 42.0201 37.1193 41.8621 37.8307 42.0201L4.67734 70.3726Z" fill="#FFAE27"/>
</g>
<g style="mix-blend-mode:multiply">
<path d="M5.53476 68.3551L5.80838 68.1134C11.7368 68.0483 17.5192 63.4283 21.815 59.9051C25.0619 57.2465 28.2086 54.3555 30.7532 50.9718C32.3949 48.7872 34.292 46.1937 34.7298 43.377L35.7422 42.5125C36.7728 41.6294 38.3142 41.7688 39.1806 42.8192C40.0471 43.8697 39.9103 45.4407 38.8796 46.3238L8.67225 72.1571C7.64162 73.0402 6.10023 72.9008 5.23378 71.8504C4.36732 70.7999 4.50413 69.2289 5.53476 68.3458V68.3551Z" fill="#FFAE27"/>
</g>
<path d="M0.646042 68.9966C-0.0836067 67.8439 0.235615 66.3008 1.37569 65.5571C2.50664 64.8134 4.02066 65.1388 4.75031 66.3008C8.20701 71.7575 24.7791 91.4648 38.5421 92.7941C42.6737 93.1938 46.1031 91.8738 49.0125 88.7597C55.8256 81.4717 51.5389 69.2569 46.7324 60.2956C41.2235 50.0143 33.7629 41.5179 33.6899 41.4342C32.787 40.4117 32.8691 38.8407 33.8724 37.9204C34.8665 37.0001 36.417 37.0837 37.3199 38.1063C38.5786 39.5286 66.743 71.776 54.2934 90.0146L60.9423 98.0928C60.9423 98.0928 59.0452 101.523 54.4302 103.661L47.9728 95.8153C45.0268 97.442 41.7161 98.0928 38.0861 97.7488C21.1856 96.1313 3.44606 73.4121 0.646042 69.0059V68.9966Z" fill="#A6B0B9"/>
<path d="M4.57701 74.6858C9.98552 81.258 24.0677 96.6799 38.0496 98.0185C41.634 98.3625 44.9447 97.7397 47.8907 96.1593L54.2113 103.828C54.2933 103.921 54.421 103.959 54.5305 103.903C59.1729 101.746 61.0882 98.3625 61.1703 98.2137C61.225 98.1115 61.2159 97.9906 61.1429 97.8977L54.6217 89.9776C65.3293 73.8957 45.4372 47.4767 39.0711 39.7425C38.2229 38.7107 37.6665 38.0692 37.5115 37.9019C37.0281 37.3535 36.3623 37.0281 35.6326 36.9909C34.9121 36.9537 34.2189 37.2047 33.6808 37.6974C32.5863 38.7014 32.4769 40.3839 33.4163 41.5273L33.4802 41.6017C33.5258 41.6575 33.9727 42.1687 34.7023 43.0518C36.8457 45.6454 42.2724 52.543 46.4861 60.4073C51.2471 69.2849 55.5155 81.3789 48.8119 88.546C45.9663 91.5951 42.6099 92.8872 38.5603 92.4968C28.7557 91.5579 16.6618 80.7839 8.61743 71.0139C7.07605 69.1362 5.74445 67.3606 4.9692 66.1336C4.14834 64.8414 2.46104 64.4975 1.22063 65.3155C0.609554 65.7153 0.190014 66.3288 0.0440865 67.0539C-0.110966 67.779 0.0258331 68.5226 0.418018 69.1455C1.05646 70.1587 2.4884 72.1387 4.57701 74.6765V74.6858ZM54.5031 103.317L48.1734 95.6295C48.0913 95.5272 47.9545 95.4993 47.836 95.5644C44.9356 97.1633 41.6613 97.8047 38.1043 97.4608C33.5166 97.0239 21.0944 93.8819 4.99656 74.3233C2.91706 71.8041 1.50337 69.8426 0.87405 68.848C0.554829 68.346 0.454498 67.7604 0.573067 67.1747C0.691635 66.5984 1.02911 66.1057 1.5125 65.7896C2.50665 65.1296 3.85648 65.4085 4.51316 66.4496C5.29753 67.6953 6.64738 69.4894 8.207 71.3858C16.3152 81.2394 28.5368 92.1063 38.5147 93.0638C42.7376 93.4728 46.2399 92.1249 49.2041 88.9457C56.1357 81.5369 51.8125 69.2012 46.9695 60.1563C42.7284 52.2455 37.2743 45.32 35.1219 42.7079C34.3922 41.8155 33.9362 41.3042 33.8906 41.2484L33.8359 41.1834C33.0788 40.2631 33.1701 38.9245 34.0456 38.1157C34.4743 37.716 35.0307 37.5208 35.6053 37.5487C36.189 37.5766 36.718 37.8368 37.1102 38.2738C37.2652 38.4411 37.8216 39.0825 38.6607 40.105C41.3695 43.3958 48.1552 52.0968 52.679 61.8203C58.197 73.6819 58.6621 83.1079 54.0653 89.8474C53.9924 89.9497 54.0015 90.0891 54.0836 90.1821L60.6048 98.1115C60.1761 98.7901 58.2882 101.504 54.5031 103.317Z" fill="#FFD818"/>
<g style="mix-blend-mode:screen">
<path d="M60.3312 98.9759C59.7657 98.1858 59.2002 97.3863 58.6165 96.6055C57.5038 95.1181 56.2634 93.324 54.7038 92.2829C53.9285 91.7623 53.135 91.5764 52.3233 92.1434C51.8125 92.506 51.32 92.8685 50.8275 93.2125C52.6516 91.0558 54.1383 88.6296 55.0048 85.8966C56.5188 81.1185 56.1631 76.0987 54.8223 71.3206C53.0165 64.8971 49.9337 59.1244 46.4223 53.519C42.8652 47.8577 38.9069 42.4661 34.4014 37.5486C35.359 37.0466 36.5629 37.2325 37.3199 38.0878C38.5786 39.51 66.743 71.7575 54.2934 89.9961L60.9423 98.0742C60.9423 98.0742 60.7507 98.4275 60.3403 98.9666L60.3312 98.9759Z" fill="#A6B0B9"/>
</g>
<g style="mix-blend-mode:screen">
<path d="M43.4855 92.3389C41.0776 93.2221 38.3324 93.4359 35.9428 93.2407C30.9538 92.8316 26.5485 90.1637 22.6358 87.1518C14.6553 81.0072 7.523 73.7285 1.95032 65.2879C2.98095 64.9439 4.13925 65.3251 4.75033 66.2918C8.20704 71.7485 24.7791 91.4558 38.5421 92.7851C40.3115 92.9525 41.9532 92.8037 43.4855 92.3389Z" fill="#A6B0B9"/>
</g>
<g style="mix-blend-mode:multiply">
<path d="M35.0306 38.4599C34.6658 39.4731 35.0671 40.6351 35.6326 41.4996C36.5629 42.9405 37.7394 44.2419 38.7883 45.5805C42.1903 49.9403 45.5102 54.4024 48.146 59.3013C51.6027 65.6969 54.421 73.6728 52.4783 80.6447C53.0711 74.0818 50.0249 66.422 46.7323 60.2867C41.2235 50.0054 33.7629 41.5089 33.6899 41.4253C32.787 40.4027 32.869 38.8317 33.8723 37.9114C34.6749 37.1678 35.8332 37.0934 36.7271 37.614C36.116 37.5954 35.2678 37.7999 35.0397 38.4506L35.0306 38.4599Z" fill="#A6B0B9"/>
</g>
<g style="mix-blend-mode:multiply">
<path d="M0.646008 68.9966C-0.0836411 67.8439 0.235584 66.3007 1.37566 65.5571C2.50661 64.8134 4.02063 65.1388 4.75027 66.3007C5.08773 66.8399 5.562 67.5185 6.14572 68.3087C5.68969 68.0019 5.19719 67.7974 4.68644 67.8718C3.91119 67.9926 3.91119 69.229 4.10272 69.7774C4.52227 71.0324 5.3796 72.1107 6.20957 73.1053C7.17635 74.258 8.11578 75.4572 9.11904 76.5727C11.7458 79.5009 14.564 82.3176 17.5191 84.9018C22.7452 89.4754 29.084 94.142 36.0613 95.2296C41.3603 96.0662 46.9421 94.8578 51.1558 91.3625C53.965 89.0385 55.9533 86.0267 57.1663 82.6801C56.7376 85.283 55.8256 87.7557 54.2842 90.0146L60.9331 98.0927C60.9331 98.0927 59.036 101.523 54.421 103.661L47.9636 95.8152C45.0177 97.442 41.7069 98.0927 38.0769 97.7488C21.1765 96.1313 3.43691 73.4121 0.63689 69.0059L0.646008 68.9966Z" fill="#A6B0B9"/>
</g>
<g style="mix-blend-mode:multiply">
<path d="M0.646011 68.9966C-0.0836372 67.8439 0.235588 66.3007 1.37566 65.5571C2.50661 64.8134 4.02063 65.1388 4.75027 66.3007C5.08774 66.8399 5.56201 67.5185 6.14573 68.3087C5.6897 68.0019 5.19719 67.7974 4.68644 67.8718C3.91119 67.9926 3.91119 69.229 4.10272 69.7774C4.52227 71.0324 5.3796 72.1107 6.20958 73.1053C7.17636 74.258 8.11578 75.4572 9.11905 76.5727C11.7458 79.5009 14.564 82.3176 17.5191 84.9018C22.7452 89.4754 29.084 94.142 36.0613 95.2296C41.3603 96.0662 46.9421 94.8578 51.1558 91.3625C52.4236 90.3121 53.5089 89.1222 54.4484 87.8301C54.0379 88.5551 53.5546 89.243 53.0256 89.8938C52.15 90.9721 50.7545 92.069 50.262 93.4076C49.9246 94.3279 50.2894 95.1366 50.8092 95.9175C51.7943 97.377 52.6972 99.0409 53.9194 100.305C55.3422 101.774 56.9656 101.755 58.5891 100.882C57.5676 101.82 56.1995 102.843 54.4119 103.661L47.9545 95.8152C45.0086 97.442 41.6978 98.0927 38.0678 97.7488C21.1673 96.1313 3.4278 73.4121 0.627781 69.0059L0.646011 68.9966Z" fill="#A6B0B9"/>
</g>
<path d="M40.0926 42.9959C40.4483 43.4235 41.0777 43.4793 41.4972 43.1167C41.9168 42.7542 41.9715 42.1221 41.6158 41.6852L40.5943 40.4395C40.2386 40.0119 39.6092 39.9561 39.1897 40.3187C38.7702 40.6812 38.7154 41.3226 39.0711 41.7502L40.0926 42.9959Z" fill="#FFAE27"/>
<path d="M38.8613 41.9268L39.8828 43.1725C40.3298 43.721 41.1324 43.786 41.6705 43.3305C42.2086 42.875 42.2724 42.057 41.8255 41.5085L40.804 40.2629C40.3571 39.7144 39.5545 39.6493 39.0164 40.1048C38.4783 40.5603 38.4144 41.3784 38.8613 41.9268ZM41.4151 41.8711C41.6705 42.1871 41.634 42.6519 41.3239 42.9122C41.0138 43.1725 40.5578 43.1353 40.3024 42.8192L39.2809 41.5736C39.0255 41.2668 39.062 40.7927 39.3721 40.5325C39.6822 40.2722 40.1382 40.3094 40.3936 40.6254L41.4151 41.8711Z" fill="#8B2D08"/>
<path d="M3.39134 74.3885C3.74705 74.8161 4.37636 74.8719 4.79591 74.5093C5.21545 74.1468 5.27018 73.5147 4.91448 73.0778L3.89298 71.8321C3.53728 71.4045 2.91707 71.3487 2.4884 71.7113C2.06885 72.0738 2.01412 72.7059 2.36983 73.1428L3.39134 74.3885Z" fill="#FFAE27"/>
<path d="M2.16005 73.3194L3.18155 74.5651C3.62846 75.1135 4.43108 75.1786 4.96919 74.7231C5.50731 74.2676 5.57115 73.4496 5.12424 72.9011L4.10274 71.6555C3.65583 71.107 2.85321 71.0419 2.3151 71.4974C1.77698 71.9529 1.71314 72.771 2.16005 73.3194ZM4.7047 73.2636C4.96008 73.5797 4.92359 74.0445 4.61349 74.3048C4.30339 74.5651 3.84737 74.5279 3.59199 74.2118L2.57047 72.9662C2.3151 72.6594 2.35158 72.1853 2.66168 71.925C2.97178 71.6647 3.42781 71.7019 3.68319 72.018L4.7047 73.2636Z" fill="#8B2D08"/>
<path d="M53.2627 98.4834C53.965 99.3293 55.2054 99.4409 56.0354 98.7344C56.8653 98.0186 56.9748 96.7544 56.2816 95.9084C55.5793 95.0625 54.3389 94.951 53.5089 95.6575C52.679 96.3732 52.5695 97.6375 53.2627 98.4834Z" fill="#FBA746"/>
<path d="M53.0529 98.6599C53.8464 99.6267 55.2601 99.7475 56.2086 98.9388C57.1572 98.13 57.2757 96.6891 56.4822 95.7224C55.6888 94.7556 54.2751 94.6348 53.3265 95.4435C52.378 96.2522 52.2594 97.6931 53.0529 98.6599ZM56.0627 96.0849C56.6647 96.8193 56.5734 97.9069 55.8529 98.5204C55.1415 99.134 54.0653 99.041 53.4633 98.3066C52.8614 97.5723 52.9526 96.4846 53.6731 95.8711C54.3936 95.2576 55.4607 95.3505 56.0627 96.0849Z" fill="#1F1F1F"/>
<path d="M54.3025 96.8751C54.5578 97.1819 55.0047 97.219 55.3057 96.968C55.6067 96.7171 55.6432 96.2523 55.3969 95.9455C55.1415 95.6387 54.6946 95.6015 54.3937 95.8525C54.0927 96.1035 54.0562 96.5683 54.3025 96.8751Z" fill="#A6B0B9"/>
<path d="M104.147 202.792C108.999 198.944 113.824 193.459 116.624 190.066L121.093 184.777L115.912 178.493C116.414 177.099 118.703 175.016 118.703 175.016C121.175 173.008 123.136 172.925 123.136 172.925L128.043 178.893L133.725 175.444C137.491 173.222 143.63 169.337 148.19 165.135C148.19 165.135 174.494 191.833 175.552 202.876C176.601 213.92 172.25 231.229 172.25 231.229C172.25 231.229 171.657 233.525 170.344 235.337C170.098 235.737 169.778 236.09 169.414 236.397C169.404 236.406 169.386 236.425 169.377 236.434C169.359 236.444 169.35 236.462 169.331 236.472C168.976 236.788 168.574 237.048 168.146 237.225C166.167 238.228 163.841 238.424 163.841 238.424C163.841 238.424 146.357 239.79 135.868 236.815C125.379 233.841 104.156 202.802 104.156 202.802L104.147 202.792Z" fill="#A6B0B9"/>
<path d="M116.596 219.767C125.051 230.039 131.508 235.858 135.786 237.076C146.202 240.032 163.677 238.712 163.85 238.693C163.95 238.693 166.249 238.479 168.255 237.466C168.675 237.299 169.103 237.029 169.505 236.676L169.386 236.416L169.559 236.63C169.559 236.63 169.596 236.592 169.605 236.592C169.997 236.267 170.335 235.886 170.581 235.477C171.894 233.664 172.496 231.387 172.524 231.294C172.569 231.117 176.883 213.808 175.834 202.839C175.406 198.34 170.9 190.847 162.445 180.575C155.559 172.209 148.473 165.005 148.4 164.93C148.299 164.828 148.135 164.819 148.026 164.93C143.374 169.216 136.999 173.213 133.606 175.202L128.115 178.53L123.354 172.748C123.3 172.683 123.218 172.646 123.136 172.646C123.054 172.646 121.065 172.757 118.548 174.793C118.438 174.886 116.195 176.95 115.675 178.391C115.638 178.484 115.657 178.586 115.721 178.66L120.746 184.768L116.423 189.871C113.906 192.93 108.935 198.637 103.991 202.56C103.882 202.653 103.855 202.82 103.937 202.932C103.991 203.016 109.728 211.382 116.614 219.748L116.596 219.767ZM162.008 180.929C170.271 190.968 174.858 198.563 175.278 202.895C176.309 213.762 172.022 230.987 171.985 231.154C171.985 231.173 171.384 233.423 170.125 235.17C169.897 235.542 169.596 235.877 169.24 236.183L169.195 236.221L169.149 236.258C168.793 236.565 168.419 236.806 168.036 236.964C166.112 237.94 163.832 238.145 163.813 238.145C163.64 238.154 146.256 239.474 135.932 236.546C131.828 235.384 125.279 229.453 117.016 219.414C110.759 211.81 105.451 204.215 104.511 202.848C109.436 198.898 114.325 193.274 116.824 190.243L121.293 184.963C121.384 184.861 121.384 184.712 121.293 184.6L116.222 178.437C116.797 177.127 118.858 175.23 118.876 175.212C120.883 173.585 122.543 173.269 123.008 173.204L127.824 179.051C127.906 179.153 128.052 179.181 128.17 179.107L133.852 175.658C137.209 173.678 143.502 169.746 148.172 165.488C149.321 166.669 155.751 173.315 162.008 180.91V180.929Z" fill="#FFD818"/>
<g style="mix-blend-mode:multiply">
<path d="M104.146 202.793C108.999 198.944 113.823 193.459 116.623 190.066L121.093 184.777L115.912 178.493C116.414 177.099 118.703 175.016 118.703 175.016C120.819 173.297 122.561 172.99 123.008 172.934C121.083 173.566 117.946 175.128 119.825 177.015C119.943 177.127 120.071 177.136 120.208 177.052C121.64 176.095 123.665 176.076 124.723 177.638C125.771 179.19 125.051 180.771 123.537 181.616C123.373 181.709 123.336 181.895 123.446 182.044C126.072 185.846 129.338 189.007 132.375 192.455C134.938 195.365 137.254 198.581 140.483 200.775C140.684 200.915 140.93 200.738 140.902 200.506C140.556 197.159 138.413 194.203 136.643 191.461C134.755 188.542 132.986 185.539 130.961 182.723C134.691 186.395 137.163 191.377 140.474 195.393C142.708 198.117 144.952 200.84 147.05 203.676C148.153 205.172 149.339 206.669 150.251 208.305C150.972 209.597 152.385 213.064 149.458 212.442C147.46 212.014 145.691 210.768 143.976 209.69C142.261 208.621 140.565 207.487 138.832 206.437C137.382 205.563 135.777 204.642 134.044 204.782C133.861 204.8 133.788 205.014 133.843 205.172C135.129 208.63 137.874 211.252 140.2 213.994C143.064 217.368 146.056 220.659 149.23 223.727C152.905 227.297 157.794 231.47 163.138 231.712C169.34 231.991 171.201 225.67 172.305 220.557C173.8 213.65 174.384 205.907 171.958 199.149C170.736 195.746 168.921 192.669 166.996 189.639C164.625 185.893 162.099 182.258 159.408 178.744C155.833 174.068 152.02 169.578 148.071 165.228C148.117 165.191 148.153 165.153 148.199 165.116C148.199 165.116 174.503 191.814 175.561 202.858C176.61 213.901 172.259 231.21 172.259 231.21C172.259 231.21 171.666 233.506 170.353 235.319C170.107 235.719 169.787 236.072 169.423 236.379C169.413 236.388 169.395 236.406 169.386 236.416C169.368 236.425 169.359 236.444 169.34 236.453C168.985 236.769 168.583 237.029 168.155 237.206C166.176 238.21 163.85 238.405 163.85 238.405C163.85 238.405 146.366 239.772 135.877 236.797C125.388 233.822 104.165 202.783 104.165 202.783L104.146 202.793Z" fill="#A6B0B9"/>
</g>
<g style="mix-blend-mode:multiply">
<path d="M104.147 202.793C108.999 198.944 113.823 193.46 116.623 190.067L121.093 184.777L115.912 178.493C115.994 178.27 116.131 178.019 116.286 177.768C119.861 181.607 123.099 185.763 126.656 189.62C127.723 190.773 128.799 191.907 129.885 193.032C128.444 191.842 126.966 190.643 125.379 189.685C124.622 189.23 123.874 188.877 122.981 189.1C121.603 189.434 120.354 190.801 119.36 191.712C117.827 193.125 116.487 194.687 115.036 196.193C113.203 198.108 110.476 200.385 111.178 203.406C111.872 206.399 114.27 208.835 116.167 211.094C119.068 214.543 122.151 217.815 125.306 221.022C130.605 226.404 136.023 231.731 143.055 234.678C149.877 237.541 156.882 238.015 164.16 237.727C165.254 237.68 166.349 237.624 167.453 237.522C165.656 238.257 163.832 238.415 163.832 238.415C163.832 238.415 146.347 239.781 135.859 236.806C125.37 233.832 104.147 202.793 104.147 202.793Z" fill="#A6B0B9"/>
</g>
<path d="M120.764 180.139C121.467 180.985 122.707 181.096 123.537 180.39C124.367 179.674 124.476 178.41 123.783 177.564C123.081 176.718 121.841 176.606 121.011 177.313C120.181 178.029 120.071 179.293 120.764 180.139Z" fill="#FBA746"/>
<path d="M120.554 180.315C121.348 181.282 122.762 181.403 123.71 180.594C124.659 179.785 124.777 178.344 123.984 177.378C123.19 176.411 121.777 176.29 120.828 177.099C119.88 177.908 119.761 179.348 120.554 180.315ZM123.564 177.74C124.166 178.475 124.075 179.562 123.355 180.176C122.643 180.789 121.567 180.696 120.965 179.962C120.363 179.228 120.454 178.14 121.175 177.526C121.895 176.913 122.962 177.006 123.564 177.74Z" fill="#1F1F1F"/>
<path d="M121.804 178.53C122.059 178.837 122.506 178.874 122.807 178.623C123.108 178.363 123.145 177.908 122.898 177.601C122.652 177.294 122.196 177.257 121.895 177.508C121.594 177.768 121.558 178.224 121.804 178.53Z" fill="#A6B0B9"/>
<g style="mix-blend-mode:multiply">
<path d="M129.356 180.408C129.356 180.408 144.414 200.385 149.157 209.495C149.157 209.495 150.333 212.284 148.527 211.838C146.721 211.391 126.939 190.597 122.707 186.097C122.707 186.097 145.344 208.426 146.083 207.617C146.831 206.799 129.356 180.417 129.356 180.417V180.408Z" fill="#A6B0B9"/>
</g>
<g style="mix-blend-mode:screen">
<path d="M148.245 167.217C148.245 167.217 163.467 185.103 168.438 195.393C173.408 205.693 170.845 219.832 170.845 219.832C170.845 219.832 170.544 202.04 166.632 195.997C162.719 189.955 146.968 169.96 146.968 169.96L131.435 178.623L148.245 167.208V167.217Z" fill="#A6B0B9"/>
</g>
<g style="mix-blend-mode:screen">
<path d="M123.017 173.501C123.017 173.501 135.968 189.49 139.589 196.992C139.589 196.992 126.246 180.176 123.017 173.501Z" fill="#A6B0B9"/>
</g>
<g clip-path="url(#clip1_3556_17923)">
<path d="M19.5754 109.047C18.2751 108.2 16.8641 107.582 15.4035 107.178C11.3024 106.048 6.80069 106.666 3.14472 109.047C1.31673 110.236 -0.881092 108.131 0.360336 106.38C3.72892 101.63 3.72892 95.3931 0.360336 90.6434C0.0776577 90.244 -0.0189247 89.8266 0.0093441 89.434C0.0541 88.8541 0.381536 88.3283 0.862089 87.9966C1.48398 87.5657 2.34851 87.4596 3.14707 87.9763C8.10573 91.203 14.6168 91.203 19.5754 87.9763C21.4034 86.7872 23.6012 88.8924 22.3574 90.6434C18.9889 95.3931 18.9889 101.63 22.3574 106.38C23.5989 108.131 21.401 110.236 19.5754 109.047Z" fill="#FFDC7B"/>
<path d="M35.6811 84.0567C35.3701 85.6182 33.038 85.6182 32.7247 84.0567C32.2395 81.6176 30.8661 79.5033 28.958 77.978C27.5564 76.8565 25.8745 76.0442 24.0041 75.7013C22.374 75.4034 22.374 73.1673 24.0041 72.8695C24.3457 72.8063 24.6708 72.7025 25.0005 72.61C28.9321 71.5156 31.945 68.4221 32.7224 64.5163C33.0357 62.9549 35.3678 62.9549 35.6787 64.5163C36.5244 68.7493 39.9802 72.0617 44.3994 72.8695C46.0295 73.1673 46.0295 75.4034 44.3994 75.7013C39.9802 76.5091 36.5221 79.8215 35.6787 84.0545L35.6811 84.0567Z" fill="#FFDC7B"/>
<path d="M42.152 111.35C45.0613 110.594 47.3038 108.331 47.8739 105.461C48.0977 104.333 49.7867 104.333 50.0105 105.461C50.6206 108.523 53.12 110.917 56.3166 111.501C57.4944 111.716 57.4944 113.333 56.3166 113.548C53.1223 114.132 50.6206 116.526 50.0105 119.588C49.7867 120.716 48.0977 120.716 47.8739 119.588C47.391 117.167 45.7161 115.179 43.4594 114.157C42.8634 113.889 42.2368 113.67 41.5702 113.548C40.3924 113.333 40.3924 111.716 41.5702 111.501C41.7704 111.465 41.9589 111.4 42.1544 111.35H42.152Z" fill="#FFDC7B"/>
</g>
<g clip-path="url(#clip2_3556_17923)">
<path d="M149.458 142.052C150.513 141.518 151.459 140.825 152.282 140.017C154.591 137.747 155.897 134.548 155.716 131.234C155.626 129.578 157.855 128.932 158.54 130.417C160.396 134.444 164.519 136.819 168.941 136.41C169.313 136.376 169.626 136.472 169.874 136.64C170.241 136.89 170.464 137.306 170.5 137.749C170.548 138.322 170.289 138.932 169.643 139.261C165.621 141.297 163.141 145.583 163.386 150.077C163.475 151.734 161.247 152.379 160.563 150.893C158.707 146.866 154.584 144.491 150.161 144.899C148.531 145.05 147.977 142.801 149.458 142.052Z" fill="#FFDC7B"/>
<path d="M159.842 162.174C158.928 161.374 159.817 159.839 160.968 160.227C162.765 160.837 164.686 160.738 166.421 160.063C167.696 159.567 168.874 158.769 169.813 157.668C170.63 156.708 172.108 157.56 171.684 158.747C171.596 158.996 171.541 159.249 171.476 159.502C170.702 162.507 171.6 165.669 173.885 167.668C174.798 168.469 173.91 170.005 172.759 169.615C169.639 168.559 166.134 169.573 163.916 172.175C163.099 173.135 161.621 172.283 162.045 171.096C163.194 167.879 162.321 164.341 159.845 162.173L159.842 162.174Z" fill="#FFDC7B"/>
<path d="M139.336 156.039C138.728 158.242 139.37 160.581 141.05 162.049C141.71 162.626 141.067 163.738 140.236 163.456C137.98 162.691 135.445 163.425 133.841 165.307C133.251 166.001 132.182 165.385 132.488 164.528C133.319 162.202 132.689 159.643 130.898 158.075C130.237 157.498 130.88 156.386 131.711 156.668C133.496 157.273 135.448 156.927 136.983 155.831C137.387 155.54 137.771 155.211 138.105 154.819C138.695 154.125 139.765 154.741 139.458 155.598C139.405 155.744 139.377 155.893 139.335 156.04L139.336 156.039Z" fill="#FFDC7B"/>
</g>
<g clip-path="url(#clip3_3556_17923)">
<path d="M76.6316 161.699C76.0599 160.416 75.4677 159.09 74.9025 157.781C74.0203 155.739 73.2311 153.951 72.49 152.314C71.2438 149.564 70.0628 147.093 68.8807 144.761L68.8725 144.745C68.6602 144.327 68.4408 143.894 68.2208 143.47C68.1397 143.313 67.9515 143.295 67.8074 143.357C67.6792 143.413 67.5727 143.545 67.6427 143.703C68.9183 146.577 70.2604 149.48 71.5578 152.287C72.4312 154.177 73.3346 156.13 74.2091 158.058C75.2442 160.338 76.2075 162.69 77.1391 164.965C77.4855 165.811 77.8437 166.686 78.2007 167.544C78.8494 169.104 79.7169 171.157 80.6838 173.2C80.719 173.275 80.7831 173.325 80.8637 173.341C80.8825 173.345 80.9019 173.347 80.9214 173.347C81.0037 173.347 81.0913 173.315 81.1566 173.259C81.2448 173.183 81.276 173.081 81.2419 172.98C79.9498 169.134 78.263 165.354 76.6322 161.698L76.6316 161.699Z" fill="#D7EEFC"/>
<path d="M105.627 141.948C105.496 141.896 105.32 141.912 105.243 142.069C103.877 144.853 102.664 147.424 101.534 149.926C100.672 151.838 99.8982 153.617 99.1701 155.367C99.0219 155.724 98.872 156.082 98.722 156.441C97.1864 160.119 95.5985 163.924 94.4993 167.758C94.304 168.441 94.1358 169.076 93.9864 169.699C93.9594 169.814 93.9894 169.928 94.077 170.033C94.167 170.137 94.3017 170.2 94.4305 170.2C94.4446 170.2 94.4587 170.2 94.4728 170.198C94.5928 170.185 94.691 170.114 94.7492 169.999C96.326 166.9 97.591 163.567 98.8143 160.345C99.296 159.077 99.7935 157.766 100.301 156.494C101.291 154.012 102.263 151.503 103.082 149.376L103.985 147.029C104.581 145.477 105.198 143.873 105.811 142.296C105.871 142.139 105.764 142.002 105.627 141.948Z" fill="#D7EEFC"/>
<path d="M90.9053 120.851C89.9537 120.718 88.9898 120.635 88.0194 120.587C80.9084 117.391 74.3949 113.004 68.8889 107.676C67.8179 106.64 66.7046 105.323 67.0269 103.905C67.3362 102.523 68.8024 101.806 70.2775 101.353C70.2686 101.354 70.2598 101.356 70.251 101.357C69.8105 101.424 69.3688 101.496 68.9271 101.569C68.7636 101.596 68.6001 101.622 68.436 101.649C68.0396 101.715 67.6421 101.786 67.2451 101.856C67.0328 101.894 66.8211 101.932 66.6087 101.971C66.2406 102.038 65.8718 102.108 65.5037 102.179C65.2572 102.226 65.0108 102.274 64.7644 102.323C64.4209 102.391 64.0769 102.461 63.7334 102.532C63.4546 102.59 63.1759 102.649 62.8971 102.709C62.5789 102.777 62.2607 102.846 61.942 102.916C61.625 102.987 61.308 103.06 60.991 103.133C60.7057 103.198 60.4199 103.263 60.1347 103.331C59.7553 103.42 59.3754 103.514 58.9955 103.608C58.7673 103.664 58.5397 103.718 58.3109 103.776C57.6987 103.929 57.0853 104.088 56.4718 104.252L56.4548 104.256C56.4495 104.257 56.4442 104.26 56.4389 104.261C55.4026 104.539 54.661 105.411 54.5328 106.428C54.5204 106.526 54.5093 106.627 54.4975 106.727C54.0241 107.812 53.7153 109.003 53.5695 110.233C53.4459 110.254 53.3354 110.34 53.3448 110.48C53.3777 110.987 53.4224 111.49 53.4742 111.99C53.4865 113.418 53.7171 114.851 54.1693 116.188C54.3217 116.834 54.4957 117.478 54.6951 118.123C55.2162 119.809 55.8261 121.842 54.4169 123.336C53.4636 124.347 51.828 124.785 50.5283 125.215C50.4506 125.24 50.4001 125.288 50.3718 125.342C48.9968 125.749 47.6553 126.239 46.3932 126.644C46.3261 126.666 46.282 126.704 46.2508 126.749C45.5716 126.996 44.904 127.269 44.2371 127.569C42.7974 128.216 38.8028 130.493 38.8123 127.127C38.8123 127.012 38.6446 126.968 38.5847 127.068C37.886 128.229 38.6658 129.557 40.0144 129.836C40.2138 129.877 40.4108 129.892 40.6043 129.888C40.172 130.229 39.6733 130.751 39.628 131.286C39.6233 131.34 39.6239 131.393 39.6286 131.447C39.6421 131.593 39.6927 131.738 39.7915 131.879C39.8438 131.953 39.9285 131.969 40.002 131.946C40.0538 131.929 40.1008 131.896 40.122 131.838C40.6707 130.348 42.2075 129.817 43.412 128.893C44.6723 128.276 45.9356 127.654 47.1701 126.989C50.0384 126.254 53.2954 125.077 56.2072 125.581C59.0578 126.074 60.751 128.413 62.0767 130.683C62.5066 132.834 63.5399 134.98 64.7009 136.595C64.8579 136.813 65.209 136.76 65.3008 136.556C65.3266 136.499 65.3355 136.431 65.309 136.352C64.5674 134.131 63.2888 131.968 63.2112 129.589C63.1135 126.598 64.7726 124.688 67.7415 123.924C69.2518 123.877 70.7627 123.645 72.2912 123.379C73.3028 123.204 74.3214 123.014 75.3524 122.853C80.4979 122.052 85.6081 122.12 90.7794 121.745C91.1206 121.72 91.3223 121.347 91.2311 121.089C91.1894 120.971 91.0864 120.877 90.9071 120.852L90.9053 120.851Z" fill="#D7EEFC"/>
<path d="M127.304 126.936C127.274 126.887 127.238 126.853 127.19 126.829C125.769 126.123 124.018 125.456 122.39 125.001C119.349 123.623 119.143 120.998 119.195 118.2C119.212 117.319 119.241 116.374 119.292 115.135C119.352 113.653 119.427 112.146 119.501 110.69L119.522 110.288C119.53 110.125 119.409 110.043 119.286 110.035C119.279 110.035 119.272 110.034 119.265 110.034C119.131 110.034 118.988 110.118 118.972 110.283C118.891 111.102 118.806 111.92 118.722 112.739C117.841 113.634 116.321 113.631 115.271 113.164C114.062 112.628 113.187 111.563 112.491 110.592C111.266 108.899 110.228 107.073 109.407 105.165C109.054 104.345 108.637 103.265 108.541 102.179C108.54 102.164 108.528 102.151 108.513 102.148C108.408 102.126 108.304 102.106 108.199 102.086C108.115 102.07 108.031 102.055 107.948 102.038C107.419 101.931 106.988 101.847 106.589 101.773C106.306 101.72 106.022 101.668 105.739 101.618C105.303 101.54 104.849 101.462 104.387 101.386L104.165 101.349C103.996 101.321 103.827 101.293 103.658 101.267C102.182 101.035 100.71 100.835 99.2807 100.674L99.2384 100.669C99.219 100.667 99.2055 100.676 99.1996 100.691C99.1931 100.706 99.199 100.723 99.2125 100.732C106.069 105.361 110.543 111.856 111.487 118.551C111.59 119.283 111.795 121.725 110.095 122.394C109.539 122.612 108.916 122.571 108.314 122.53C107.983 122.506 107.623 122.462 107.243 122.416C106.705 122.35 106.148 122.283 105.608 122.263C102.18 121.07 98.4121 120.556 94.711 120.776C94.5781 120.784 94.4681 120.833 94.3928 120.918C94.3176 121.003 94.2823 121.119 94.2958 121.237C94.3146 121.396 94.434 121.589 94.7104 121.609C101.052 122.074 107.937 123.157 110.941 127.658C110.794 128.065 110.673 128.476 110.557 128.873C110.463 129.191 110.375 129.492 110.282 129.757C109.324 132.503 108.513 134.992 107.804 137.368C107.748 137.553 107.887 137.711 108.045 137.765C108.084 137.778 108.126 137.786 108.168 137.786C108.275 137.786 108.381 137.738 108.438 137.617C109.249 135.87 110.012 134.087 110.75 132.362C110.836 132.162 110.922 131.962 111.008 131.762C111.343 130.986 111.688 130.183 112.002 129.385C112.084 129.177 112.163 128.906 112.247 128.618C112.307 128.409 112.37 128.193 112.44 127.977C114.439 126.383 116.513 124.993 119.856 125.462C121.236 125.655 122.691 126.007 124.574 126.603C125.363 126.853 126.144 127.117 126.943 127.389C127.06 127.428 127.178 127.398 127.26 127.305C127.352 127.201 127.371 127.047 127.305 126.938L127.304 126.936Z" fill="#D7EEFC"/>
<path d="M82.9961 177.454L82.5085 176.324C82.5044 176.316 82.5003 176.308 82.4962 176.299C82.4921 176.291 82.488 176.284 82.4844 176.276L81.1653 173.221C81.1611 173.21 81.1511 173.202 81.1394 173.2C81.1282 173.197 81.1159 173.2 81.1065 173.208C81.0429 173.263 80.9529 173.29 80.8777 173.274C80.82 173.262 80.7753 173.227 80.7495 173.173C79.7838 171.131 78.9157 169.079 78.2676 167.519C78.2664 167.516 78.2641 167.512 78.2617 167.51C74.4948 163.21 70.4144 159.787 66.134 157.335C65.313 156.865 64.3143 156.903 63.5263 157.434C62.7529 157.956 62.3947 158.822 62.5906 159.693L62.6 159.735C62.6011 159.74 62.6035 159.745 62.6076 159.75C62.6535 159.802 62.6999 159.854 62.7464 159.906L62.8529 160.026C63.5474 160.81 64.1279 161.462 64.6808 162.079C64.9948 162.43 65.3106 162.779 65.627 163.129L66.321 163.898C66.548 164.15 66.7751 164.401 67.0038 164.653C67.7649 165.49 68.5688 166.367 69.4616 167.334C69.561 167.442 69.6604 167.549 69.7604 167.656L69.9203 167.829C70.642 168.609 71.363 169.382 72.0629 170.129C72.1823 170.256 72.3022 170.384 72.4216 170.511L72.5781 170.677C73.2938 171.439 74.0131 172.199 74.7153 172.936L74.7824 173.006C74.9264 173.158 75.0705 173.31 75.2152 173.461C75.9463 174.227 76.6991 175.011 77.4519 175.789L77.603 175.946C77.69 176.036 77.7771 176.126 77.8647 176.217C78.8439 177.228 79.7161 178.122 80.5307 178.95L80.5618 178.983C80.5707 178.992 80.5801 179 80.5901 179.007C80.596 179.012 80.6018 179.017 80.6083 179.022C80.9083 179.301 81.2564 179.414 81.5911 179.414C81.8998 179.414 82.1974 179.318 82.435 179.167C82.942 178.844 83.3125 178.189 82.9961 177.454Z" fill="#4C6DA8"/>
<path d="M65.5036 149.995C66.2693 149.673 66.8069 149.067 67.1021 148.194C67.1968 147.914 67.2603 147.601 67.3015 147.207C67.4967 145.347 67.5714 143.469 67.5238 141.624C67.5238 141.62 67.5226 141.616 67.5209 141.612L65.333 136.543C65.3277 136.53 65.3142 136.521 65.2995 136.521C65.2848 136.521 65.2713 136.53 65.2654 136.543C65.2266 136.629 65.1319 136.689 65.019 136.699C64.9008 136.71 64.7943 136.664 64.7302 136.575C63.4628 134.813 62.5083 132.662 62.1119 130.676C62.1113 130.673 62.1101 130.669 62.1078 130.666C60.7245 128.297 59.0531 126.038 56.2124 125.546C53.7976 125.128 51.1987 125.847 48.685 126.543C48.1569 126.689 47.6576 126.827 47.1594 126.955C47.1565 126.956 47.1536 126.957 47.1506 126.958C45.9585 127.601 44.744 128.201 43.3872 128.866C43.0567 129.12 42.695 129.347 42.3456 129.567C41.3899 130.168 40.4872 130.736 40.0861 131.826C40.0708 131.868 40.0378 131.897 39.9884 131.913C39.9779 131.916 39.969 131.924 39.9655 131.935C39.962 131.946 39.9637 131.957 39.9708 131.966C40.4778 132.645 40.9247 133.24 41.337 133.786C41.6952 134.261 42.168 134.885 42.6468 135.509C43.3513 136.175 44.0636 136.859 44.7528 137.521C49.5219 142.097 54.4533 146.83 60.7686 149.507C61.3985 149.776 62.7182 150.265 64.0192 150.265C64.5314 150.265 65.0407 150.19 65.5042 149.994L65.5036 149.995Z" fill="#4C6DA8"/>
<path d="M135.519 131.26C135.308 131.091 133.367 129.57 130.031 128.042C129.143 127.634 128.219 127.258 127.286 126.921C127.272 126.915 127.255 126.92 127.245 126.931C127.234 126.942 127.233 126.958 127.241 126.971C127.292 127.055 127.275 127.176 127.202 127.259C127.141 127.329 127.055 127.351 126.966 127.322C126.168 127.05 125.386 126.786 124.596 126.536C124.589 126.533 124.582 126.533 124.576 126.534C124.195 126.616 123.791 126.59 123.4 126.563C123.251 126.553 123.098 126.543 122.948 126.539C122.892 126.538 122.835 126.537 122.779 126.537C120.049 126.537 117.844 128.514 116.855 130.509C115.918 132.405 115.638 134.779 116 137.768C116.298 140.196 116.909 142.584 117.817 144.865C118.169 145.752 118.603 146.648 119.391 147.184C119.929 147.554 120.584 147.736 121.395 147.741C121.405 147.741 121.416 147.736 121.422 147.728C122.066 147.016 122.753 146.25 123.581 145.319C126.882 141.609 130.176 137.775 133.373 133.924C133.505 133.764 133.637 133.604 133.769 133.443C133.895 133.29 134.021 133.137 134.147 132.984L134.468 132.594C134.816 132.173 135.164 131.751 135.513 131.324L135.526 131.304C135.535 131.289 135.531 131.27 135.518 131.259L135.519 131.26Z" fill="#4C6DA8"/>
<path d="M108.778 145.03C107.717 144.842 106.719 145.552 106.059 146.102C104.922 147.053 103.899 148.144 103.018 149.344C103.016 149.346 103.015 149.349 103.014 149.352C102.195 151.479 101.223 153.987 100.233 156.469C99.7253 157.741 99.2278 159.053 98.7461 160.321C97.5234 163.542 96.2589 166.873 94.6839 169.968C94.6363 170.062 94.5604 170.118 94.4652 170.128C94.3505 170.143 94.2193 170.086 94.1346 169.988C94.1264 169.978 94.1146 169.973 94.1011 169.975C94.0888 169.977 94.0776 169.986 94.0729 169.997L93.5559 171.193C93.2113 171.99 92.8661 172.787 92.522 173.584C92.4044 173.859 92.2873 174.134 92.1697 174.409C91.8945 175.055 91.6098 175.723 91.3181 176.373C91.2846 176.451 91.2422 176.531 91.197 176.614C91.1111 176.774 91.0223 176.938 91.0017 177.1C90.9811 177.273 91.0517 177.438 91.1811 177.52C91.2569 177.568 91.3463 177.582 91.4387 177.582C91.4828 177.582 91.5269 177.579 91.571 177.574C91.8533 177.543 92.0827 177.45 92.3138 177.273C92.4497 177.168 92.5732 177.046 92.7043 176.916C92.7708 176.849 92.8396 176.781 92.9131 176.712C93.3748 176.282 93.8359 175.849 94.3234 175.388L94.3764 175.337C94.8751 174.868 95.3809 174.388 95.869 173.923L96.126 173.679C96.2778 173.534 96.4301 173.39 96.5824 173.246C96.7641 173.074 96.9459 172.903 97.127 172.73C97.2052 172.655 97.2835 172.579 97.3617 172.504C97.427 172.44 97.4928 172.377 97.5581 172.314C97.7263 172.153 97.8939 171.991 98.0615 171.829L98.3491 171.552C98.9667 170.957 99.6254 170.322 100.285 169.678C100.52 169.45 100.754 169.219 100.988 168.99L101.316 168.668C101.473 168.515 101.629 168.362 101.786 168.209C102.071 167.93 102.357 167.651 102.641 167.37C102.672 167.338 102.703 167.308 102.734 167.276C102.769 167.241 102.804 167.206 102.839 167.172C103.947 166.077 105.083 164.942 106.314 163.701C106.586 163.426 106.857 163.151 107.128 162.875L107.303 162.697C108.433 161.55 109.45 160.51 110.412 159.514C110.465 159.459 110.519 159.404 110.573 159.349C110.627 159.295 110.68 159.239 110.734 159.184C110.737 159.181 110.74 159.176 110.741 159.172C111.411 157.334 112.059 155.35 112.265 153.302C112.541 150.554 111.925 148.054 110.53 146.263C109.966 145.544 109.393 145.141 108.779 145.03L108.778 145.03Z" fill="#4C6DA8"/>
<path d="M77.2072 164.941C76.2756 162.666 75.3117 160.312 74.2766 158.031C73.4015 156.104 72.4981 154.15 71.6247 152.26C70.3273 149.453 68.9852 146.551 67.7102 143.677C67.6584 143.56 67.7367 143.464 67.8378 143.421C67.9484 143.372 68.0936 143.385 68.1548 143.502C68.3748 143.925 68.5941 144.358 68.8059 144.776L68.8141 144.792C68.8229 144.809 68.8435 144.816 68.8617 144.809C68.88 144.801 68.8882 144.781 68.8806 144.763L67.5202 141.612C67.5132 141.597 67.4955 141.588 67.4791 141.592C67.4614 141.595 67.4497 141.61 67.4497 141.627C67.4973 143.469 67.4226 145.344 67.2279 147.202C67.1874 147.59 67.125 147.899 67.0315 148.174C66.7427 149.027 66.2187 149.619 65.473 149.932C63.8615 150.612 61.6666 149.818 60.7974 149.445C54.4945 146.773 49.5683 142.045 44.8034 137.473C44.1141 136.812 43.4019 136.128 42.6973 135.462C42.6838 135.449 42.662 135.448 42.6479 135.46C42.6332 135.472 42.6308 135.493 42.642 135.507C43.3601 136.449 44.0982 137.408 44.8998 138.44C44.9833 138.548 45.0674 138.655 45.1515 138.763L45.3392 139.002C45.9861 139.833 46.5907 140.602 47.1876 141.356C47.3629 141.578 47.5387 141.798 47.7146 142.019L48.0239 142.407C48.5033 143.007 49.019 143.653 49.5448 144.306C49.8642 144.702 50.1853 145.097 50.507 145.492L50.6193 145.63C51.0692 146.184 51.5197 146.736 51.9726 147.288C52.3225 147.714 52.6754 148.139 53.0277 148.565L53.1447 148.706C53.5876 149.241 54.0316 149.775 54.4774 150.308C54.8544 150.759 55.2337 151.208 55.6131 151.657C56.0953 152.229 56.5782 152.8 57.064 153.371C57.3469 153.702 57.6303 154.033 57.9144 154.363L58.0285 154.496C58.5425 155.095 59.1406 155.791 59.7423 156.484C59.8882 156.651 60.0346 156.819 60.181 156.988L60.4004 157.239C61.2467 158.208 61.8995 158.951 62.5165 159.649L62.6065 159.751C62.6176 159.764 62.6359 159.768 62.6506 159.76C62.6659 159.754 62.6735 159.737 62.6706 159.722L62.6612 159.681C62.4712 158.836 62.8182 157.998 63.5675 157.493C64.3308 156.978 65.2995 156.941 66.0946 157.396C70.3679 159.844 74.4419 163.262 78.2041 167.556C78.2111 167.564 78.2217 167.568 78.2323 167.568C78.2388 167.568 78.2452 167.566 78.2511 167.563C78.2664 167.554 78.2735 167.536 78.2664 167.521C77.9094 166.663 77.5513 165.788 77.2054 164.942L77.2072 164.941Z" fill="#637FBF"/>
<path d="M124.596 126.536C122.709 125.938 121.249 125.585 119.865 125.391C116.486 124.918 114.398 126.321 112.383 127.928C112.378 127.932 112.374 127.938 112.372 127.944C112.299 128.165 112.236 128.385 112.174 128.598C112.091 128.884 112.014 129.154 111.932 129.359C111.618 130.156 111.273 130.958 110.939 131.734C110.852 131.934 110.766 132.134 110.68 132.334C109.942 134.058 109.179 135.841 108.369 137.587C108.306 137.722 108.173 137.733 108.068 137.697C107.941 137.654 107.83 137.529 107.873 137.384C108.582 135.009 109.392 132.521 110.351 129.777C110.444 129.509 110.533 129.208 110.627 128.889C110.744 128.488 110.866 128.073 111.016 127.662C111.019 127.652 111.018 127.641 111.012 127.633C107.996 123.094 101.082 122.004 94.7157 121.538C94.484 121.521 94.3846 121.366 94.3681 121.227C94.3664 121.21 94.3517 121.198 94.3346 121.197L94.2123 121.188C94.1552 121.184 94.0982 121.18 94.04 121.177L93.8918 121.168C93.0672 121.12 92.1721 121.082 91.2305 121.053C91.2193 121.054 91.2076 121.058 91.1999 121.067C91.1929 121.076 91.1905 121.088 91.1946 121.099C91.2381 121.223 91.2099 121.378 91.1211 121.505C91.0364 121.627 90.9135 121.699 90.7747 121.709C89.0339 121.835 87.2718 121.912 85.568 121.987C82.2204 122.134 78.7587 122.286 75.3441 122.817C74.6154 122.93 73.8832 123.061 73.1745 123.186C72.8763 123.239 72.5793 123.292 72.2823 123.344C72.2753 123.345 72.2694 123.348 72.2641 123.352C72.0236 123.56 71.7477 123.813 71.5242 124.106C70.5397 125.401 70.7879 127.106 71.349 128.271C71.9694 129.551 73.001 130.559 74.1861 131.652C78.6382 135.755 83.4061 139.67 88.3575 143.289C91.2881 145.431 94.7451 147.818 98.6926 149.042C98.9725 149.128 99.299 149.261 99.6448 149.401C100.338 149.681 101.053 149.971 101.568 149.974C101.583 149.974 101.596 149.965 101.602 149.952C102.731 147.45 103.944 144.88 105.309 142.097C105.366 141.981 105.495 141.969 105.598 142.01C105.7 142.05 105.789 142.149 105.742 142.27C105.13 143.847 104.513 145.451 103.916 147.004L103.276 148.669C103.276 148.669 103.275 148.673 103.274 148.676L103.014 149.35C103.008 149.366 103.015 149.385 103.032 149.393C103.048 149.402 103.068 149.397 103.079 149.382C103.956 148.187 104.975 147.1 106.108 146.153C106.755 145.612 107.734 144.914 108.764 145.097C109.359 145.204 109.917 145.599 110.469 146.302C111.853 148.08 112.464 150.562 112.191 153.294C111.985 155.334 111.339 157.313 110.67 159.147C110.664 159.163 110.671 159.18 110.686 159.189C110.692 159.192 110.699 159.194 110.705 159.194C110.715 159.194 110.725 159.19 110.732 159.183C110.76 159.154 110.787 159.125 110.814 159.097L110.877 159.031C111.093 158.808 111.307 158.584 111.522 158.36C111.636 158.24 111.751 158.12 111.865 158.001C112.025 157.834 112.185 157.668 112.345 157.502C112.677 157.156 113.009 156.811 113.339 156.463C113.379 156.421 113.419 156.379 113.459 156.336C113.498 156.293 113.537 156.25 113.578 156.209C114.585 155.146 115.655 154.006 116.847 152.722C117.23 152.31 117.611 151.898 117.992 151.485C119.289 150.078 120.342 148.925 121.308 147.854L121.424 147.727C121.433 147.717 121.435 147.702 121.429 147.69C121.423 147.678 121.41 147.67 121.396 147.669C120.601 147.665 119.96 147.487 119.435 147.126C118.662 146.6 118.235 145.716 117.887 144.839C116.981 142.563 116.372 140.181 116.075 137.758C115.714 134.783 115.991 132.421 116.923 130.538C117.902 128.562 120.081 126.605 122.78 126.605C122.836 126.605 122.891 126.606 122.947 126.608C123.096 126.612 123.249 126.623 123.396 126.632C123.791 126.658 124.201 126.686 124.593 126.601C124.609 126.598 124.621 126.585 124.622 126.569C124.622 126.553 124.612 126.539 124.597 126.534L124.596 126.536Z" fill="#637FBF"/>
<path d="M89.399 159.938C85.8614 156.713 82.2039 153.379 77.803 151.083C76.5108 150.407 74.9735 149.73 73.332 149.827C73.0621 149.846 72.7257 149.896 72.5169 150.112C72.3158 150.318 72.284 150.621 72.2793 150.918C72.2793 151.377 72.3263 151.854 72.4222 152.342C73.1632 153.978 73.9525 155.766 74.8347 157.807C75.4005 159.117 75.9921 160.443 76.5644 161.725C78.1946 165.38 79.8802 169.158 81.1711 173.001C81.2052 173.103 81.1453 173.174 81.1064 173.207C81.0947 173.217 81.0911 173.232 81.097 173.246L82.4162 176.302C82.4203 176.312 82.4256 176.321 82.4303 176.33C82.4338 176.337 82.438 176.344 82.4409 176.351C83.0061 177.616 84.1229 178.563 85.4297 178.882C85.7897 178.969 86.1572 179.012 86.5313 179.012C87.5423 179.012 88.6033 178.695 89.6978 178.062C90.5299 177.581 91.1951 176.836 91.5697 175.963L94.1363 170.019C94.1416 170.007 94.1393 169.994 94.131 169.984C94.0822 169.926 94.0299 169.831 94.0581 169.714C94.2069 169.091 94.3745 168.457 94.5704 167.775C94.5709 167.771 94.5715 167.767 94.5715 167.763C94.4786 166.5 93.9793 165.168 93.1277 163.91C92.1143 162.414 90.7334 161.155 89.3984 159.938H89.399Z" fill="#637FBF"/>
<path d="M126.998 121.301C125.492 119.123 123.935 116.87 121.666 115.336C121.205 115.026 120.514 114.632 119.825 114.805C119.593 114.863 119.399 114.962 119.231 115.108C119.223 115.114 119.219 115.123 119.219 115.132C119.169 116.372 119.14 117.318 119.123 118.199C119.071 121.02 119.279 123.668 122.365 125.066C123.994 125.522 125.74 126.187 127.157 126.891C127.192 126.908 127.218 126.933 127.241 126.971C127.245 126.978 127.252 126.983 127.26 126.986C128.191 127.322 129.113 127.699 130 128.105C130.005 128.107 130.01 128.108 130.015 128.108C130.023 128.108 130.03 128.106 130.036 128.102C130.047 128.096 130.053 128.084 130.053 128.072C129.917 125.71 128.59 123.609 126.999 121.301H126.998Z" fill="#699ED5"/>
<path d="M92.2679 177.218C92.0456 177.388 91.828 177.477 91.5616 177.505C91.4546 177.518 91.3181 177.524 91.2199 177.464C91.1135 177.394 91.0564 177.253 91.0741 177.107C91.0793 177.064 91.1299 176.909 91.3417 176.418C91.3487 176.401 91.3411 176.381 91.3234 176.373C91.3052 176.365 91.2846 176.372 91.2758 176.389C90.8929 177.056 90.3342 177.615 89.6608 178.005C88.1787 178.86 86.7625 179.133 85.4487 178.817C84.1624 178.501 83.0638 177.57 82.5098 176.325C82.5022 176.308 82.481 176.299 82.4622 176.307C82.4433 176.314 82.4345 176.334 82.4422 176.352L82.9291 177.481C83.2297 178.18 82.8774 178.803 82.3951 179.109C81.9593 179.386 81.2436 179.517 80.6596 178.973C80.6454 178.959 80.6225 178.96 80.6078 178.973C80.5937 178.986 80.5931 179.008 80.6072 179.021C81.6417 180.043 82.9627 180.697 84.4271 180.912C84.8011 180.97 85.1752 180.999 85.5463 180.999C87.2365 180.999 88.8651 180.401 90.1401 179.286C90.1778 179.25 90.2154 179.217 90.253 179.184L90.263 179.175C90.6947 178.779 91.1229 178.381 91.5504 177.984C91.768 177.782 91.9856 177.579 92.2033 177.378L92.3173 177.269C92.3309 177.256 92.3315 177.235 92.3185 177.221C92.3056 177.207 92.2832 177.205 92.2685 177.217L92.2679 177.218Z" fill="#699ED5"/>
<path d="M56.4277 104.228C55.8466 104.382 55.2779 104.597 54.7374 104.87C53.7882 105.351 52.9613 105.978 52.2802 106.732C46.4608 113.147 41.8652 119.94 38.2317 127.497C37.8524 128.286 37.9441 129.222 38.4711 129.941L39.5803 131.445C39.5874 131.454 39.5985 131.46 39.6103 131.46C39.615 131.46 39.6197 131.459 39.6238 131.458C39.6397 131.452 39.6491 131.436 39.6468 131.42L39.6321 131.331L39.6521 131.311C39.6579 131.305 39.6615 131.297 39.6626 131.289C39.7109 130.717 40.2866 130.183 40.6254 129.915C40.6372 129.905 40.6419 129.89 40.6366 129.876C40.6313 129.863 40.6172 129.854 40.6025 129.854H40.6019C40.4007 129.857 40.2096 129.841 40.0208 129.802C39.3451 129.662 38.7834 129.243 38.5187 128.679C38.2753 128.16 38.3094 127.594 38.6152 127.085C38.6381 127.048 38.6793 127.043 38.7099 127.05C38.7399 127.058 38.7746 127.083 38.7746 127.126C38.7722 127.938 39.0051 128.487 39.4668 128.756C40.5242 129.376 42.5474 128.41 43.7566 127.832C43.9459 127.742 44.11 127.663 44.2518 127.599C44.9405 127.29 45.598 127.022 46.2626 126.781C46.2696 126.778 46.2755 126.774 46.2796 126.768C46.312 126.722 46.3508 126.693 46.4031 126.677C46.8836 126.523 47.3659 126.36 47.8764 126.187C48.6892 125.912 49.5296 125.627 50.3806 125.375C50.3906 125.373 50.3982 125.366 50.403 125.358C50.4294 125.306 50.4759 125.268 50.5382 125.247C50.6847 125.199 50.8358 125.15 50.9893 125.101C52.2085 124.708 53.59 124.263 54.4422 123.359C55.8784 121.836 55.2409 119.772 54.7286 118.113C54.5363 117.491 54.3593 116.84 54.2028 116.177C53.7547 114.853 53.5218 113.444 53.5088 111.986C53.4524 111.437 53.41 110.944 53.38 110.477C53.3712 110.348 53.48 110.283 53.5747 110.267C53.5906 110.264 53.6029 110.252 53.6047 110.236C53.7535 108.983 54.0646 107.807 54.5304 106.74C54.5316 106.737 54.5328 106.734 54.5328 106.731L54.548 106.602C54.5545 106.546 54.561 106.489 54.568 106.432C54.6974 105.405 55.4349 104.566 56.4477 104.295C56.4671 104.29 56.4783 104.27 56.473 104.252C56.4677 104.233 56.4459 104.223 56.4283 104.228L56.4277 104.228Z" fill="#699ED5"/>
<path d="M101.569 149.905C101.069 149.903 100.359 149.616 99.6742 149.338C99.3272 149.198 98.9991 149.064 98.7162 148.977C94.7799 147.757 91.3288 145.373 88.4028 143.235C83.4538 139.618 78.6882 135.705 74.2379 131.603C73.0587 130.515 72.0318 129.512 71.4161 128.243C70.8638 127.096 70.6186 125.418 71.5843 124.148C71.8042 123.859 72.0765 123.61 72.3135 123.405C72.3253 123.394 72.3288 123.377 72.3218 123.363C72.3141 123.349 72.2988 123.342 72.2824 123.344C70.5856 123.639 69.1641 123.844 67.7297 123.889C64.6526 124.682 63.0765 126.653 63.1723 129.589C63.227 131.254 63.8734 132.829 64.4986 134.353C64.7685 135.01 65.0473 135.689 65.2719 136.362C65.2937 136.425 65.2913 136.485 65.2649 136.542C65.2614 136.55 65.2614 136.56 65.2649 136.569L68.813 144.789C68.813 144.789 68.813 144.79 68.8136 144.79C69.9957 147.121 71.1761 149.591 72.4212 152.341C72.4288 152.357 72.447 152.366 72.4653 152.361C72.4829 152.356 72.4941 152.338 72.4906 152.321C72.3982 151.845 72.3512 151.372 72.3512 150.918C72.3553 150.654 72.3759 150.357 72.5694 150.158C72.7611 149.96 73.0799 149.914 73.3357 149.896C74.9566 149.799 76.4833 150.472 77.766 151.143C82.1587 153.434 85.8127 156.766 89.3468 159.987C90.6789 161.202 92.0563 162.458 93.0649 163.947C93.91 165.195 94.4052 166.516 94.497 167.768C94.4981 167.784 94.5123 167.798 94.5299 167.8C94.5311 167.8 94.5323 167.8 94.5334 167.8C94.5499 167.8 94.5646 167.789 94.5687 167.774C95.6667 163.944 97.2535 160.142 98.7885 156.465C98.9385 156.106 99.0879 155.748 99.2361 155.391C99.9642 153.642 100.737 151.863 101.6 149.953C101.604 149.943 101.603 149.93 101.597 149.92C101.59 149.91 101.579 149.905 101.566 149.905L101.569 149.905Z" fill="#699ED5"/>
<path d="M68.8842 117.708C65.4131 115.318 61.6467 113.292 57.6887 111.688C57.0958 111.449 55.6508 110.986 55.038 111.843C54.9262 111.998 54.8551 112.191 54.8157 112.45C54.8157 112.452 54.8157 112.456 54.8157 112.459C55.055 114.467 55.7231 116.25 56.857 117.906C58.902 120.893 62.5707 122.79 66.1817 122.789C66.4458 122.789 66.7105 122.779 66.9734 122.759C67.0139 122.756 67.0545 122.76 67.0945 122.773C67.0992 122.774 67.1039 122.774 67.1086 122.774C67.8126 122.734 68.556 122.66 69.3823 122.548C69.3853 122.548 69.3888 122.547 69.3917 122.546C70.2592 122.198 70.7891 121.688 70.9667 121.03C71.2502 119.972 70.5497 118.854 68.8842 117.708V117.708Z" fill="#87D0F2"/>
<path d="M107.406 108.489C105.328 105.573 102.51 102.871 99.2543 100.673C99.2495 100.67 99.2431 100.667 99.2372 100.667L99.1002 100.652C98.532 100.588 98.0121 100.534 97.5105 100.486L97.3164 100.468C96.75 100.414 96.2307 100.368 95.7273 100.329C95.6932 100.326 95.6585 100.324 95.6238 100.321L95.5332 100.314C94.9562 100.27 94.434 100.233 93.9364 100.202L93.7606 100.192C93.1766 100.157 92.6461 100.129 92.1385 100.106L91.9986 100.1C91.3928 100.074 90.8482 100.055 90.3342 100.04L90.2601 100.038C84.9552 99.894 79.5039 100.153 74.0555 100.804L73.9526 100.816C73.4239 100.88 72.8687 100.951 72.2564 101.034L72.0994 101.055C71.573 101.127 71.0173 101.207 70.3997 101.3L70.2662 101.32C69.0224 101.701 67.3297 102.383 66.991 103.897C66.6616 105.345 67.8185 106.69 68.8624 107.7C74.3872 113.046 80.8272 117.393 88.0034 120.618C88.0076 120.62 88.0129 120.621 88.017 120.621C89.048 120.671 89.9907 120.758 90.8994 120.885C91.0899 120.912 91.1646 121.016 91.194 121.098C91.1987 121.112 91.2122 121.122 91.2275 121.122C92.168 121.151 93.0625 121.189 93.8864 121.237L94.0347 121.246C94.0929 121.25 94.1493 121.253 94.2058 121.257L94.3281 121.265C94.3393 121.266 94.3499 121.262 94.3569 121.255C94.3646 121.247 94.3681 121.237 94.3669 121.227C94.3552 121.127 94.3846 121.03 94.4469 120.96C94.5093 120.89 94.6016 120.849 94.7139 120.843C98.4091 120.625 102.166 121.136 105.587 122.327C105.591 122.328 105.595 122.33 105.598 122.33C106.136 122.348 106.693 122.417 107.232 122.482C107.613 122.529 107.973 122.573 108.307 122.597C108.55 122.613 108.795 122.63 109.038 122.63C109.409 122.63 109.776 122.592 110.121 122.456C111.87 121.768 111.663 119.284 111.558 118.539C111.065 115.045 109.668 111.663 107.405 108.489H107.406Z" fill="#87D0F2"/>
<path d="M136.688 127.479C132.215 119.657 126.786 112.565 120.553 106.401C119.989 105.842 119.35 105.368 118.653 104.993C118.126 104.698 117.545 104.454 116.927 104.266C116.924 104.265 116.92 104.264 116.917 104.262C116.911 104.26 116.906 104.257 116.897 104.255L116.883 104.252C116.552 104.153 116.221 104.058 115.902 103.966C115.896 103.965 115.889 103.965 115.883 103.968L115.688 103.912C115.522 103.864 115.357 103.817 115.191 103.771L115.111 103.748C114.921 103.695 114.73 103.642 114.54 103.591C114.128 103.48 113.687 103.364 113.15 103.227L112.93 103.17C112.807 103.138 112.684 103.106 112.561 103.075C112.043 102.946 111.499 102.815 110.897 102.675C110.849 102.664 110.8 102.652 110.751 102.641C110.694 102.627 110.637 102.613 110.579 102.6C109.983 102.463 109.361 102.327 108.678 102.185C108.651 102.179 108.625 102.173 108.598 102.167C108.569 102.161 108.54 102.154 108.511 102.148C108.5 102.146 108.488 102.148 108.479 102.156C108.47 102.163 108.465 102.174 108.467 102.185C108.563 103.281 108.983 104.367 109.338 105.191C110.162 107.105 111.201 108.935 112.429 110.631C113.131 111.61 114.014 112.685 115.239 113.228C116.316 113.707 117.88 113.707 118.783 112.778C118.789 112.773 118.792 112.766 118.793 112.758C118.878 111.935 118.962 111.113 119.043 110.29C119.056 110.16 119.18 110.099 119.28 110.105C119.362 110.111 119.454 110.161 119.447 110.286L119.427 110.688C119.353 112.144 119.277 113.65 119.218 115.133C119.218 115.147 119.225 115.16 119.239 115.166C119.252 115.172 119.268 115.17 119.279 115.16C119.438 115.022 119.623 114.928 119.843 114.873C120.498 114.708 121.172 115.091 121.622 115.394C123.88 116.92 125.434 119.167 126.936 121.34C128.52 123.639 129.843 125.733 129.977 128.077C129.978 128.09 129.986 128.101 129.998 128.106C133.326 129.631 135.26 131.147 135.47 131.315C135.477 131.32 135.485 131.323 135.493 131.323C135.494 131.323 135.496 131.323 135.497 131.323C135.507 131.322 135.516 131.317 135.522 131.31L135.782 130.992C136.007 130.717 136.231 130.445 136.455 130.168C137.084 129.388 137.174 128.334 136.686 127.481L136.688 127.479Z" fill="#87D0F2"/>
</g>
</g>
<defs>
<clipPath id="clip0_3556_17923">
<rect width="176" height="276" fill="white"/>
</clipPath>
<clipPath id="clip1_3556_17923">
<rect width="57.2" height="57.087" fill="white" transform="matrix(-1 0 0 1 57.2 63.3477)"/>
</clipPath>
<clipPath id="clip2_3556_17923">
<rect width="43.508" height="43.5511" fill="white" transform="matrix(0.500742 -0.865597 -0.866453 -0.499258 165.335 184.229)"/>
</clipPath>
<clipPath id="clip3_3556_17923">
<rect width="99" height="81" fill="white" transform="translate(38 100)"/>
</clipPath>
</defs>
</svg>
