<svg width="25" height="25" viewBox="0 0 25 25" fill="none" xmlns="http://www.w3.org/2000/svg">
<path d="M22.5 8.66216V8.73516C22.5 9.59516 22.5 10.0262 22.293 10.3782C22.086 10.7302 21.709 10.9392 20.957 11.3582L20.164 11.7982C20.71 9.95016 20.893 7.96416 20.96 6.26616L20.97 6.04516L20.972 5.99316C21.623 6.21916 21.989 6.38816 22.217 6.70416C22.5 7.09716 22.5 7.61916 22.5 8.66216ZM2.5 8.66216V8.73516C2.5 9.59516 2.5 10.0262 2.707 10.3782C2.914 10.7302 3.291 10.9392 4.043 11.3582L4.837 11.7982C4.29 9.95016 4.107 7.96416 4.04 6.26616L4.03 6.04516L4.029 5.99316C3.377 6.21916 3.011 6.38816 2.783 6.70416C2.5 7.09716 2.5 7.62016 2.5 8.66216Z" fill="url(#paint0_linear_3006_12289)"/>
<path fill-rule="evenodd" clip-rule="evenodd" d="M16.877 2.84724C15.4302 2.61011 13.9661 2.49404 12.5 2.50024C10.717 2.50024 9.24701 2.65724 8.12301 2.84724C6.98401 3.03924 6.41501 3.13524 5.93901 3.72124C5.46401 4.30724 5.48901 4.94024 5.53901 6.20624C5.71201 10.5542 6.65001 15.9862 11.75 16.4662V20.0002H10.32C10.0889 20.0004 9.865 20.0805 9.68634 20.2271C9.50768 20.3737 9.3853 20.5776 9.34001 20.8042L9.15001 21.7502H6.50001C6.30109 21.7502 6.11033 21.8293 5.96968 21.9699C5.82902 22.1106 5.75001 22.3013 5.75001 22.5002C5.75001 22.6991 5.82902 22.8899 5.96968 23.0306C6.11033 23.1712 6.30109 23.2502 6.50001 23.2502H18.5C18.6989 23.2502 18.8897 23.1712 19.0303 23.0306C19.171 22.8899 19.25 22.6991 19.25 22.5002C19.25 22.3013 19.171 22.1106 19.0303 21.9699C18.8897 21.8293 18.6989 21.7502 18.5 21.7502H15.85L15.66 20.8042C15.6147 20.5776 15.4923 20.3737 15.3137 20.2271C15.135 20.0805 14.9111 20.0004 14.68 20.0002H13.25V16.4662C18.35 15.9862 19.289 10.5552 19.461 6.20624C19.511 4.94024 19.537 4.30624 19.061 3.72124C18.585 3.13524 18.016 3.03924 16.877 2.84724Z" fill="url(#paint1_linear_3006_12289)"/>
<defs>
<linearGradient id="paint0_linear_3006_12289" x1="12.5" y1="5.99316" x2="12.5" y2="11.7982" gradientUnits="userSpaceOnUse">
<stop offset="0.495" stop-color="#FED083"/>
<stop offset="1" stop-color="#FFAE27"/>
</linearGradient>
<linearGradient id="paint1_linear_3006_12289" x1="12.5001" y1="2.5" x2="12.5001" y2="23.2502" gradientUnits="userSpaceOnUse">
<stop offset="0.495" stop-color="#FED083"/>
<stop offset="1" stop-color="#FFAE27"/>
</linearGradient>
</defs>
</svg>
