<svg width="31" height="25" viewBox="0 0 31 25" fill="none" xmlns="http://www.w3.org/2000/svg">
<path fill-rule="evenodd" clip-rule="evenodd" d="M19.8274 0.5C20.9434 0.5 22.1224 0.89 23.2024 1.3205L23.9929 1.6445C25.8829 2.4365 26.9449 4.0985 27.7684 5.924C29.1049 8.8865 30.0334 12.836 30.3544 15.839C30.5074 17.264 30.5449 18.698 30.2704 19.6625C29.9749 20.693 28.9699 21.422 27.9934 21.995L27.5104 22.2695L27.0094 22.5485C26.7494 22.6925 26.4869 22.8345 26.2219 22.9745L25.4389 23.3795L24.3634 23.915L23.4979 24.341C23.3211 24.4363 23.1269 24.4952 22.9269 24.5141C22.7269 24.533 22.5252 24.5115 22.3337 24.4509C22.1421 24.3903 21.9647 24.2919 21.8119 24.1615C21.6592 24.031 21.5341 23.8712 21.4443 23.6916C21.3545 23.5119 21.3016 23.316 21.2889 23.1155C21.2763 22.915 21.304 22.714 21.3704 22.5245C21.4369 22.3349 21.5407 22.1606 21.6759 22.0119C21.811 21.8633 21.9745 21.7432 22.1569 21.659L23.3419 21.074L22.4719 20.1605C20.3869 21.0155 17.9314 21.5 15.3229 21.5C12.7144 21.5 10.2589 21.017 8.17391 20.1605L7.30391 21.0725L8.49341 21.6575C8.66971 21.7456 8.82694 21.8675 8.95612 22.0163C9.08531 22.1651 9.18391 22.3379 9.24631 22.5248C9.30871 22.7117 9.33369 22.9091 9.3198 23.1057C9.30592 23.3023 9.25346 23.4942 9.16541 23.6705C9.07736 23.8468 8.95544 24.004 8.80663 24.1332C8.65781 24.2624 8.48501 24.361 8.29808 24.4234C7.92057 24.5494 7.50846 24.5203 7.15241 24.3425L6.33641 23.9375C5.73341 23.6375 5.12891 23.3405 4.53191 23.027L3.13991 22.2695L2.65841 21.995C1.68191 21.422 0.675407 20.693 0.381407 19.6625C0.105407 18.698 0.144407 17.2655 0.295907 15.8375C0.616907 12.836 1.54541 8.8865 2.88191 5.924C3.70541 4.0985 4.76741 2.4365 6.65741 1.6445C7.91141 1.1195 9.43091 0.5 10.8229 0.5C11.7274 0.5 12.4384 1.3325 12.3079 2.2205C13.3063 2.07466 14.3139 2.00097 15.3229 2C16.3594 2 17.3719 2.075 18.3439 2.222C18.315 2.00898 18.3317 1.79226 18.3928 1.58616C18.4539 1.38007 18.5582 1.18931 18.6985 1.02652C18.8389 0.863722 19.0123 0.732601 19.2072 0.641833C19.402 0.551065 19.6125 0.502721 19.8274 0.5ZM10.4479 10.25C9.75171 10.25 9.08403 10.5266 8.59175 11.0188C8.09947 11.5111 7.82291 12.1788 7.82291 12.875C7.82291 13.5712 8.09947 14.2389 8.59175 14.7312C9.08403 15.2234 9.75171 15.5 10.4479 15.5C11.1441 15.5 11.8118 15.2234 12.3041 14.7312C12.7963 14.2389 13.0729 13.5712 13.0729 12.875C13.0729 12.1788 12.7963 11.5111 12.3041 11.0188C11.8118 10.5266 11.1441 10.25 10.4479 10.25ZM20.1979 10.25C19.5017 10.25 18.834 10.5266 18.3418 11.0188C17.8495 11.5111 17.5729 12.1788 17.5729 12.875C17.5729 13.5712 17.8495 14.2389 18.3418 14.7312C18.834 15.2234 19.5017 15.5 20.1979 15.5C20.8941 15.5 21.5618 15.2234 22.0541 14.7312C22.5463 14.2389 22.8229 13.5712 22.8229 12.875C22.8229 12.1788 22.5463 11.5111 22.0541 11.0188C21.5618 10.5266 20.8941 10.25 20.1979 10.25Z" fill="#582B02"/>
</svg>
