<svg width="37" height="37" viewBox="0 0 37 37" fill="none" xmlns="http://www.w3.org/2000/svg">
<g clip-path="url(#clip0_3418_12136)">
<path d="M33.7629 14.5001H31.8229V9.50014C31.8229 9.23492 31.7176 8.98057 31.53 8.79303C31.3425 8.60549 31.0881 8.50014 30.8229 8.50014H6.82291C6.55769 8.50014 6.30334 8.39478 6.1158 8.20724C5.92826 8.01971 5.82291 7.76535 5.82291 7.50014C5.82291 7.23492 5.92826 6.98057 6.1158 6.79303C6.30334 6.60549 6.55769 6.50014 6.82291 6.50014H30.4229C30.6881 6.50014 30.9425 6.39478 31.13 6.20724C31.3175 6.01971 31.4229 5.76535 31.4229 5.50014C31.4229 5.23492 31.3175 4.98057 31.13 4.79303C30.9425 4.60549 30.6881 4.50014 30.4229 4.50014H6.82291C6.4368 4.49218 6.05291 4.56036 5.69316 4.7008C5.33341 4.84124 5.00486 5.05118 4.72626 5.31863C4.44767 5.58608 4.2245 5.9058 4.0695 6.25952C3.9145 6.61323 3.83071 6.99403 3.82291 7.38014V28.3801C3.82422 28.9233 3.93267 29.461 4.14206 29.9622C4.35145 30.4634 4.65766 30.9184 5.04316 31.3011C5.42865 31.6838 5.88586 31.9867 6.38859 32.1925C6.89132 32.3982 7.42971 32.5028 7.97291 32.5001H30.8229C31.0881 32.5001 31.3425 32.3948 31.53 32.2072C31.7176 32.0197 31.8229 31.7654 31.8229 31.5001V26.5001H33.7629C33.8891 26.5097 34.016 26.4934 34.1357 26.4522C34.2554 26.411 34.3654 26.3458 34.459 26.2606C34.5526 26.1754 34.6279 26.072 34.6801 25.9567C34.7324 25.8414 34.7605 25.7167 34.7629 25.5901V15.5901C34.7662 15.3153 34.6646 15.0496 34.4788 14.8471C34.293 14.6445 34.037 14.5205 33.7629 14.5001ZM32.8229 24.5001H24.2429C23.2181 24.4636 22.2496 24.0219 21.5503 23.2719C20.8509 22.5219 20.4778 21.525 20.5129 20.5001C20.4778 19.4753 20.8509 18.4784 21.5503 17.7284C22.2496 16.9784 23.2181 16.5366 24.2429 16.5001H32.8229V24.5001Z" fill="#582B02"/>
<path d="M24.8629 21.9199C25.6913 21.9199 26.3629 21.2483 26.3629 20.4199C26.3629 19.5915 25.6913 18.9199 24.8629 18.9199C24.0345 18.9199 23.3629 19.5915 23.3629 20.4199C23.3629 21.2483 24.0345 21.9199 24.8629 21.9199Z" fill="#582B02"/>
</g>
<defs>
<clipPath id="clip0_3418_12136">
<rect width="36" height="36" fill="white" transform="translate(0.822906 0.5)"/>
</clipPath>
</defs>
</svg>
